<?xml version="1.0" encoding="UTF-8"?>
<svg version="1.1" xmlns="http://www.w3.org/2000/svg" width="700" height="592">
<path d="M0 0 C1.00923238 -0.00445668 1.00923238 -0.00445668 2.03885329 -0.0090034 C4.29810101 -0.01768957 6.55729573 -0.01919857 8.81655884 -0.02069092 C10.434485 -0.02531911 12.05241007 -0.03034377 13.67033386 -0.03573608 C18.06911156 -0.048861 22.467874 -0.05530509 26.86666822 -0.05974674 C29.61405232 -0.06267699 32.36143224 -0.06678169 35.10881424 -0.07125092 C43.70251362 -0.08492537 52.29620346 -0.09459259 60.88991296 -0.09845281 C70.81446181 -0.1029352 80.73887303 -0.1204917 90.66338003 -0.1494534 C98.33224787 -0.17105701 106.00107696 -0.18115636 113.66997492 -0.18249393 C118.25155781 -0.1835428 122.83301133 -0.18946813 127.41456223 -0.20731354 C131.72375958 -0.22377167 136.03273 -0.22596077 140.34194756 -0.21717453 C141.92338734 -0.21640297 143.50483922 -0.22076251 145.0862484 -0.23063278 C147.24567698 -0.24332022 149.40429787 -0.23749371 151.5637207 -0.22705078 C152.77198202 -0.22851734 153.98024334 -0.2299839 155.22511864 -0.2314949 C158.7739951 0.18310045 160.61077644 0.94109918 163.40884399 3.14044189 C166.16150715 6.70683033 165.69644534 10.97762267 165.68299866 15.28775024 C165.68823534 16.11589568 165.69347201 16.94404111 165.69886738 17.79728186 C165.71388649 20.57626798 165.71457295 23.35507029 165.71524048 26.13409424 C165.72286063 28.12492688 165.73128788 30.11575656 165.74046326 32.10658264 C165.76242822 37.51773875 165.77120975 42.92883835 165.7762897 48.34003401 C165.77993064 51.71978522 165.7861693 55.09952157 165.79329109 58.47926712 C165.81779167 70.26737368 165.83083899 82.05543618 165.8343811 93.84356689 C165.83801776 104.8363089 165.867921 115.82877194 165.90978569 126.82142866 C165.94445828 136.25592966 165.95992901 145.69033806 165.96062714 155.12490237 C165.96142093 160.76123496 165.97020666 166.39728342 165.9986248 172.03355026 C166.02475363 177.33435425 166.0270395 182.63463745 166.01096916 187.9354763 C166.0091506 189.8809402 166.015882 191.82643369 166.03178787 193.77183342 C166.05218287 196.42823016 166.04173611 199.08279348 166.02357483 201.73916626 C166.0367748 202.50882324 166.04997476 203.27848021 166.06357473 204.07146013 C166.0047707 207.83773453 165.49505995 210.58666926 163.30452061 213.6187439 C159.74700853 216.71680085 158.13195316 216.89016118 153.46328735 216.8888855 C152.77650626 216.89683431 152.08972517 216.90478312 151.38213253 216.91297281 C149.0868017 216.93218307 146.79394825 216.90861442 144.49868774 216.8850708 C142.85090211 216.88992812 141.20312237 216.89736822 139.55535889 216.90719604 C135.08407247 216.92600229 130.61366255 216.90717484 126.14244461 216.88053179 C121.46293259 216.85789255 116.7834634 216.86611858 112.10391235 216.87002563 C104.24544969 216.87179129 96.38733217 216.84963629 88.52896118 216.81280518 C79.44419458 216.77046984 70.35993358 216.76345012 61.27508831 216.77592909 C52.53502923 216.78731972 43.79514816 216.77602127 35.05511475 216.753582 C31.335904 216.74429433 27.6168022 216.74254041 23.89758301 216.74675369 C19.5176308 216.75052196 15.13819293 216.73429391 10.758358 216.7026329 C9.15114342 216.69415024 7.54387664 216.69244416 5.93664932 216.69801331 C3.7420027 216.70446403 1.54888955 216.68628245 -0.64559937 216.66183472 C-2.48727943 216.65567611 -2.48727943 216.65567611 -4.36616516 216.64939308 C-8.19706497 216.04482051 -9.85244521 214.83284306 -12.59115601 212.14044189 C-14.15662837 209.00949716 -13.73913958 205.67115821 -13.73832703 202.23364258 C-13.74200371 201.40720599 -13.7456804 200.58076941 -13.74946851 199.72928929 C-13.76053202 196.94413345 -13.76435369 194.15901489 -13.76815796 191.37384033 C-13.77442059 189.38330465 -13.78106721 187.39277015 -13.78807068 185.40223694 C-13.80549896 179.98270793 -13.81603741 174.56318776 -13.82427621 169.14363766 C-13.82942246 165.75954725 -13.83549836 162.37545961 -13.84178734 158.99137115 C-13.86084446 148.40875688 -13.87507452 137.8261496 -13.88339931 127.24352145 C-13.89317483 115.01765019 -13.91950049 102.79195983 -13.9599002 90.56615233 C-13.99003585 81.12320733 -14.00486576 71.68031426 -14.00818032 62.23732209 C-14.01053371 56.59428787 -14.01953174 50.9514468 -14.04464149 45.30846405 C-14.06788253 39.99954638 -14.07217136 34.69094956 -14.06188011 29.38199425 C-14.06138368 27.43330762 -14.06773574 25.48460541 -14.08143616 23.53596687 C-14.09909597 20.875317 -14.09207826 18.21582596 -14.0789032 15.55517578 C-14.08987244 14.78415457 -14.10084169 14.01313335 -14.11214334 13.21874785 C-14.05058967 8.06942109 -12.92499075 5.06092112 -9.59115601 1.14044189 C-6.18816036 0.00611001 -3.58938342 0.00884235 0 0 Z M6.40884399 20.14044189 C6.40884399 34.00044189 6.40884399 47.86044189 6.40884399 62.14044189 C10.66006687 57.89414852 10.66006687 57.89414852 14.57290649 53.42559814 C15.13252075 52.74602051 15.69213501 52.06644287 16.26870728 51.36627197 C16.85120239 50.65237305 17.43369751 49.93847412 18.03384399 49.20294189 C18.64340942 48.45875 19.25297485 47.71455811 19.88101196 46.94781494 C23.80260973 42.14582717 27.69151941 37.3186025 31.53384399 32.45294189 C31.97035278 31.90194824 32.40686157 31.35095459 32.8565979 30.78326416 C35.56947934 27.32128767 37.95621855 23.81938006 40.40884399 20.14044189 C29.18884399 20.14044189 17.96884399 20.14044189 6.40884399 20.14044189 Z M55.70767212 32.17803955 C53.67167441 35.25423308 51.34340154 38.08036202 49.03384399 40.95294189 C48.12888158 42.11467793 47.22526371 43.27746241 46.32290649 44.44122314 C43.09404344 48.5704637 39.75350238 52.6048469 36.40884399 56.64044189 C31.64702516 62.38701958 26.98205026 68.19344539 22.4034729 74.08673096 C18.68020967 78.85417192 14.79840501 83.47538051 10.8475647 88.05548096 C7.11223332 92.40290156 6.28342576 94.30428473 6.31118774 100.02325439 C6.3144104 101.18985596 6.31763306 102.35645752 6.32095337 103.55841064 C6.32933228 104.78173096 6.33771118 106.00505127 6.34634399 107.26544189 C6.35085571 108.49649658 6.35536743 109.72755127 6.36001587 110.99591064 C6.3718307 114.04413581 6.38830372 117.09226503 6.40884399 120.14044189 C10.42259501 116.28163348 13.93150623 112.1716942 17.40884399 107.82794189 C18.5623701 106.3968558 19.71601945 104.96586903 20.86978149 103.53497314 C21.74908325 102.44176758 21.74908325 102.44176758 22.64614868 101.32647705 C24.34394316 99.22092971 26.05008071 97.12253623 27.76040649 95.02716064 C32.91224691 88.7148165 38.02626122 82.38050518 43.03384399 75.95294189 C46.99759151 70.86691989 51.09874144 65.92410704 55.29092407 61.02545166 C59.00355 56.66766582 62.54533404 52.19368751 66.05532837 47.67193604 C70.48855128 41.98300116 75.08929414 36.43640638 79.72647095 30.91290283 C82.60442747 27.45722288 85.24409505 24.10657122 87.40884399 20.14044189 C72.22807554 18.1991126 64.22987192 19.05499492 55.70767212 32.17803955 Z M108.59634399 24.01544189 C107.48761996 25.69414378 106.42430821 27.4037377 105.40884399 29.14044189 C104.2022513 30.67924623 102.97193695 32.19967812 101.72134399 33.70294189 C101.06392212 34.53438721 100.40650024 35.36583252 99.72915649 36.22247314 C96.88170978 39.80335311 93.98852547 43.34567643 91.09634399 46.89044189 C86.93610419 51.99403721 82.82911447 57.13282464 78.78384399 62.32794189 C74.82024259 67.41407418 70.71894115 72.35678306 66.52676392 77.25543213 C62.80838224 81.61997392 59.26379144 86.10282885 55.74478149 90.62872314 C52.04725654 95.36780442 48.24378617 100.01211715 44.40884399 104.64044189 C39.71945771 110.30190218 35.11686274 116.01627492 30.60342407 121.81866455 C26.29425567 127.33610702 21.83674005 132.72819551 17.35415649 138.10528564 C16.23783345 139.44953543 15.13217392 140.8027174 14.03775024 142.16485596 C12.40884399 144.14044189 12.40884399 144.14044189 10.67056274 145.95196533 C5.27920627 151.98227384 5.69993499 157.8492317 6.03384399 165.64044189 C6.06091431 166.84442627 6.08798462 168.04841064 6.11587524 169.28887939 C6.18617057 172.241283 6.28452351 175.18990229 6.40884399 178.14044189 C10.42261191 174.28161722 13.93137055 170.1715992 17.40884399 165.82794189 C18.56501764 164.39428657 19.72126984 162.96069458 20.87759399 161.52716064 C21.75737915 160.43347168 21.75737915 160.43347168 22.65493774 159.31768799 C25.39506349 155.91617888 28.15245087 152.52877018 30.90884399 149.14044189 C31.98962794 147.80975722 33.07035694 146.47902791 34.15103149 145.14825439 C36.34066037 142.45302269 38.53370556 139.76062036 40.72915649 137.07012939 C45.88901896 130.74158013 51.01541827 124.39442281 56.03384399 117.95294189 C59.99531874 112.86983616 64.09289108 107.92871918 68.28433228 103.03424072 C71.59724658 99.14759791 74.77550766 95.17283212 77.90884399 91.14044189 C81.47614293 86.54957139 85.12728911 82.05650839 88.90884399 77.64044189 C94.61690008 70.96651624 100.02195176 64.07444803 105.40884399 57.14044189 C107.17657917 54.8671748 108.94711521 52.59614498 110.72134399 50.32794189 C111.16228394 49.76405762 111.60322388 49.20017334 112.05752563 48.61920166 C116.48064373 42.99427737 121.0442086 37.48613277 125.63858032 32.00054932 C128.82020987 28.17703205 131.73897816 24.33875673 134.40884399 20.14044189 C120.34881041 18.26741823 120.34881041 18.26741823 108.59634399 24.01544189 Z M144.40884399 39.14044189 C143.47512384 40.16363401 142.58197977 41.22388135 141.70571899 42.29669189 C141.14409058 42.98142578 140.58246216 43.66615967 140.0038147 44.37164307 C139.39497437 45.12034668 138.78613403 45.86905029 138.15884399 46.64044189 C137.53131226 47.40783691 136.90378052 48.17523193 136.25723267 48.96588135 C134.30494578 51.35511213 132.35688824 53.74775149 130.40884399 56.14044189 C129.26454532 57.54037162 128.12002538 58.94012052 126.97525024 60.33966064 C121.45908005 67.09460741 116.01304882 73.89670913 110.64907837 80.77301025 C106.32414845 86.29418074 101.86108517 91.69837697 97.39175415 97.10284424 C93.72278912 101.5401789 90.09426186 106.00502815 86.51040649 110.51153564 C83.7659437 113.94466476 80.99426073 117.35527857 78.22134399 120.76544189 C77.66712769 121.44727539 77.11291138 122.12910889 76.54190063 122.831604 C73.72050195 126.30150692 70.89638742 129.76916698 68.06900024 133.23419189 C62.91591732 139.55513393 57.79601421 145.89449033 52.78384399 152.32794189 C48.82425613 157.4086265 44.72769556 162.34650298 40.53994751 167.24005127 C36.21279573 172.31938222 32.09984258 177.55478924 28.00259399 182.82012939 C24.97887363 186.70552007 21.88019428 190.52934425 18.77212524 194.34747314 C17.30796747 195.89771453 17.30796747 195.89771453 17.40884399 197.14044189 C29.1536469 198.83116708 29.1536469 198.83116708 40.30581665 196.09014893 C43.59514796 193.23939513 45.89878061 189.68899839 48.19497681 186.02227783 C50.2146043 182.89128654 52.57758178 180.04209333 54.90884399 177.14044189 C55.82636505 175.96402443 56.74303365 174.7869416 57.65884399 173.60919189 C60.76183549 169.65992999 64.01734482 165.84898212 67.28384399 162.03497314 C71.08100589 157.57978035 74.69116301 152.99546459 78.28164673 148.37310791 C81.41649584 144.35548529 84.65455534 140.44626412 87.97134399 136.57794189 C91.95348835 131.92895804 95.73496983 127.16893527 99.43521118 122.28985596 C104.63825641 115.46718575 110.15726305 108.90330304 115.62857056 102.29571533 C123.57344487 92.6773184 131.39000099 82.96051832 139.06900024 73.12872314 C141.40884399 70.14044189 141.40884399 70.14044189 143.53067017 67.83966064 C145.79700763 64.58259228 145.87686901 62.8927114 145.79946899 58.96466064 C145.78657837 57.80772705 145.77368774 56.65079346 145.76040649 55.45880127 C145.72689087 54.26061768 145.69337524 53.06243408 145.65884399 51.82794189 C145.64079712 50.61042236 145.62275024 49.39290283 145.60415649 48.13848877 C145.5570953 45.13833768 145.49135709 42.13979301 145.40884399 39.14044189 C145.07884399 39.14044189 144.74884399 39.14044189 144.40884399 39.14044189 Z M144.40884399 97.14044189 C143.47512384 98.16363401 142.58197977 99.22388135 141.70571899 100.29669189 C141.14409058 100.98142578 140.58246216 101.66615967 140.0038147 102.37164307 C139.39497437 103.12034668 138.78613403 103.86905029 138.15884399 104.64044189 C137.53131226 105.40783691 136.90378052 106.17523193 136.25723267 106.96588135 C134.30494578 109.35511213 132.35688824 111.74775149 130.40884399 114.14044189 C129.26454532 115.54037162 128.12002538 116.94012052 126.97525024 118.33966064 C121.8468355 124.62002207 116.76814676 130.93253357 111.78384399 137.32794189 C107.82062589 142.41308201 103.71991825 147.35488696 99.52896118 152.25323486 C95.7923046 156.64003262 92.22243608 161.14124198 88.68325806 165.68804932 C85.06769673 170.32553918 81.37655936 174.89704877 77.65884399 179.45294189 C69.37110755 187.77933186 69.37110755 187.77933186 64.40884399 197.14044189 C75.57754686 198.45605972 75.57754686 198.45605972 86.06509399 195.62872314 C88.13190254 193.25977521 89.74441668 190.80788654 91.40884399 188.14044189 C93.09988541 185.95686414 94.80710102 183.79505578 96.53384399 181.64044189 C97.47763675 180.43034939 98.42031169 179.21938438 99.36196899 178.00762939 C102.60127671 173.87040086 105.93538255 169.8145187 109.28384399 165.76544189 C118.55264366 154.5518551 127.7824063 143.31153083 136.72012329 131.83111572 C138.77866274 129.19096356 140.75467954 126.81540485 143.20181274 124.51544189 C146.92589509 120.07715198 145.93039361 114.22646097 145.72134399 108.76544189 C145.6987854 107.64782471 145.67622681 106.53020752 145.65298462 105.37872314 C145.59427778 102.631243 145.51221245 99.88654428 145.40884399 97.14044189 C145.07884399 97.14044189 144.74884399 97.14044189 144.40884399 97.14044189 Z M144.40884399 153.14044189 C142.74371343 154.98990425 141.13053208 156.85793983 139.53384399 158.76544189 C139.04061646 159.3515625 138.54738892 159.93768311 138.03921509 160.54156494 C134.16305125 165.1758409 130.4092532 169.89784974 126.70108032 174.66705322 C122.38311457 180.21166996 117.94185657 185.65271641 113.47183228 191.07525635 C110.71054595 193.81015974 110.71054595 193.81015974 109.40884399 197.14044189 C121.28884399 197.14044189 133.16884399 197.14044189 145.40884399 197.14044189 C145.40884399 182.62044189 145.40884399 168.10044189 145.40884399 153.14044189 C145.07884399 153.14044189 144.74884399 153.14044189 144.40884399 153.14044189 Z " fill="#000000" transform="translate(400.5911560058594,336.85955810546875)"/>
<path d="M0 0 C0.68678109 -0.00865438 1.37356218 -0.01730876 2.08115482 -0.02622539 C4.37645705 -0.04777226 6.6693243 -0.02654632 8.96459961 -0.00532532 C10.61238766 -0.01182022 12.2601673 -0.02088246 13.90792847 -0.03231812 C18.37919362 -0.05539534 22.84960501 -0.04068282 27.32084274 -0.01784873 C32.00036585 0.00106736 36.67983164 -0.01009107 41.359375 -0.01675415 C49.21782999 -0.02309464 57.07594294 -0.00482542 64.93432617 0.02787781 C74.01915504 0.06537239 83.10333592 0.06359368 92.18819904 0.04083663 C100.92827174 0.01988677 109.66810498 0.02716202 118.40817261 0.04715538 C122.12741943 0.05514118 125.8464637 0.05315017 129.56570435 0.04313087 C133.94573756 0.03257911 138.32501577 0.04670779 142.70492935 0.07987404 C144.3121447 0.08808149 145.91942922 0.08779689 147.52663803 0.07839584 C149.72156567 0.06696729 151.91414611 0.08634437 154.10888672 0.11352539 C155.95056679 0.11830131 155.95056679 0.11830131 157.82945251 0.12317371 C161.94872251 0.93042394 163.42462197 2.56131402 166.05444336 5.75517273 C167.61624546 8.87877694 167.19871049 12.20170812 167.19488525 15.6307373 C167.19785638 16.4537959 167.2008275 17.2768545 167.20388865 18.12485427 C167.21259975 20.8985285 167.21408593 23.6721597 167.21557617 26.44584656 C167.22020265 28.42815239 167.22522707 30.41045734 167.23062134 32.39276123 C167.24376391 37.78950028 167.25019393 43.18622688 167.254632 48.58297944 C167.25755977 51.95232134 167.26166401 55.32165981 167.26613617 58.69099998 C167.27981608 69.22609403 167.28948028 79.76118027 167.29333806 90.29628259 C167.29781998 102.47006063 167.31537204 114.64372646 167.34433866 126.81747037 C167.36593426 136.21878727 167.37604121 145.62007254 167.37737918 155.02141398 C167.37842874 160.64034533 167.38436866 166.25917126 167.40219879 171.87807655 C167.41864277 177.16315042 167.42085285 182.44803922 167.41205978 187.7331295 C167.41128743 189.67416758 167.41565809 191.61521545 167.42551804 193.55622864 C167.43818014 196.20392689 167.4323921 198.85096402 167.42193604 201.49865723 C167.42999244 202.26870034 167.43804884 203.03874344 167.44634938 203.83212119 C167.40495671 208.30670456 166.91941054 211.25661307 164.05444336 214.75517273 C160.69672614 217.21682663 157.41118024 217.00894764 153.34303284 217.01586914 C152.66935683 217.01969469 151.99568082 217.02352023 151.30159038 217.02746171 C149.04538181 217.03777625 146.78942845 217.03380258 144.53320312 217.02983093 C142.91512822 217.03417826 141.29705538 217.03936148 139.6789856 217.0453186 C135.28437563 217.05871745 130.88985161 217.0592863 126.49522519 217.0567553 C122.82714422 217.05568622 119.15908069 217.06056735 115.49100345 217.06536072 C106.83790182 217.07645892 98.18484359 217.07689152 89.53173828 217.07084656 C80.60328363 217.06480517 71.6749865 217.07712123 62.74655873 217.09841663 C55.08190962 217.11602594 47.41731069 217.12203505 39.7526421 217.11877888 C35.17443779 217.11696485 30.59634587 217.11961419 26.01815987 217.13349342 C21.71303884 217.1460563 17.40816361 217.14414233 13.10304642 217.13108253 C11.52322367 217.12871385 9.94338371 217.13146188 8.3635807 217.13970566 C6.20638031 217.15015056 4.05000807 217.14209153 1.89283752 217.12939453 C0.08239377 217.12964614 0.08239377 217.12964614 -1.7646246 217.12990284 C-5.3102553 216.71220936 -7.14918103 215.95222974 -9.94555664 213.75517273 C-12.6982198 210.1887843 -12.23315798 205.91799195 -12.2197113 201.60786438 C-12.22494798 200.77971895 -12.23018466 199.95157351 -12.23558003 199.09833276 C-12.25059913 196.31934664 -12.2512856 193.54054433 -12.25195312 190.76152039 C-12.25957328 188.77068775 -12.26800052 186.77985806 -12.2771759 184.78903198 C-12.29914087 179.37787587 -12.3079224 173.96677627 -12.31300235 168.55558062 C-12.31664329 165.1758294 -12.32288195 161.79609306 -12.33000374 158.4163475 C-12.35450431 146.62824095 -12.36755164 134.84017844 -12.37109375 123.05204773 C-12.3747304 112.05930572 -12.40463364 101.06684268 -12.44649833 90.07418597 C-12.48117093 80.63968497 -12.49664166 71.20527656 -12.49733979 61.77071226 C-12.49813357 56.13437966 -12.50691931 50.4983312 -12.53533745 44.86206436 C-12.56146628 39.56126038 -12.56375214 34.26097717 -12.54768181 28.96013832 C-12.54586325 27.01467442 -12.55259464 25.06918093 -12.56850052 23.1237812 C-12.58889552 20.46738446 -12.57844876 17.81282114 -12.56028748 15.15644836 C-12.57348744 14.38679139 -12.58668741 13.61713441 -12.60028738 12.8241545 C-12.54148469 9.05796608 -12.03188544 6.30918464 -9.84123325 3.2772913 C-6.28483587 0.17968853 -4.66765432 0.00366229 0 0 Z M8.05444336 19.75517273 C8.05444336 33.61517273 8.05444336 47.47517273 8.05444336 61.75517273 C11.6858541 58.12376198 15.08156135 54.49114659 18.36694336 50.56767273 C18.84768311 49.99597351 19.32842285 49.42427429 19.82373047 48.83525085 C25.90070838 41.58459899 31.75970377 34.16975607 37.55444336 26.69267273 C38.00053955 26.11968445 38.44663574 25.54669617 38.90625 24.9563446 C41.09497401 22.60594819 41.09497401 22.60594819 42.05444336 19.75517273 C30.83444336 19.75517273 19.61444336 19.75517273 8.05444336 19.75517273 Z M55.6574707 34.39042664 C53.13620455 38.1097358 50.24891488 41.5008602 47.36694336 44.94267273 C43.32606363 49.89520695 39.35852949 54.90122335 35.42944336 59.94267273 C32.33823192 63.90895539 29.19935873 67.81769097 25.93115234 71.63993835 C25.01366748 72.71638451 24.10426805 73.79977506 23.203125 74.88993835 C20.89310506 77.67544052 18.54468909 80.27593009 15.91772461 82.76689148 C9.31402542 89.42365333 7.46852505 94.52377452 7.30517578 104.01029968 C7.39497173 109.27276799 7.63136536 114.50900558 8.05444336 119.75517273 C11.62844841 116.26443302 14.96498949 112.64420753 18.17944336 108.81767273 C18.65534912 108.25338562 19.13125488 107.68909851 19.62158203 107.10771179 C23.42192004 102.5725709 27.08506513 97.9394288 30.71704102 93.26908875 C34.99352809 87.78697227 39.41982184 82.43471597 43.85571289 77.0813446 C47.55377011 72.60757755 51.17922973 68.08727552 54.74194336 63.50517273 C58.24712758 58.9985073 61.84228393 54.592918 65.55444336 50.25517273 C70.82788004 44.09168467 75.84940145 37.75024139 80.82055664 31.34159851 C81.97407079 29.85850889 83.13696273 28.38272643 84.30053711 26.90751648 C84.94120117 26.09411804 85.58186523 25.2807196 86.24194336 24.44267273 C86.79237305 23.74528992 87.34280273 23.0479071 87.90991211 22.32939148 C89.15245209 20.94475365 89.15245209 20.94475365 89.05444336 19.75517273 C72.07808185 17.06996239 64.99738547 20.18198487 55.6574707 34.39042664 Z M106.45288086 28.98173523 C106.06197266 29.60596375 105.67106445 30.23019226 105.26831055 30.87333679 C103.24868306 34.00432808 100.88570557 36.8535213 98.55444336 39.75517273 C97.6369223 40.9315902 96.72025371 42.10867303 95.80444336 43.28642273 C93.13682029 46.68157936 90.36266775 49.97600388 87.55444336 53.25517273 C83.36372495 58.15162619 79.34608157 63.15591983 75.39038086 68.24345398 C71.11395676 73.72450459 66.68850827 79.07630123 62.25317383 84.42900085 C58.55511661 88.90276791 54.92965699 93.42306994 51.36694336 98.00517273 C47.42568228 103.0725084 43.34580907 107.99348507 39.17211914 112.8704071 C35.4606441 117.22695622 31.92109024 121.70044491 28.41015625 126.21928406 C23.93488418 131.9581811 19.30245303 137.56365752 14.64892578 143.15849304 C14.08020752 143.84395203 13.51148926 144.52941101 12.92553711 145.23564148 C12.16648071 146.14672668 12.16648071 146.14672668 11.39208984 147.07621765 C8.34894772 150.8958359 7.81210079 152.91505956 7.85913086 157.73564148 C7.86557617 158.89902039 7.87202148 160.06239929 7.87866211 161.2610321 C7.89541992 162.47597351 7.91217773 163.69091492 7.92944336 164.94267273 C7.9384668 166.1692157 7.94749023 167.39575867 7.95678711 168.6594696 C7.98038319 171.69156568 8.01330495 174.72327211 8.05444336 177.75517273 C11.62845136 174.26443015 14.96497114 170.64420117 18.17944336 166.81767273 C18.65172363 166.25773621 19.12400391 165.69779968 19.6105957 165.12089539 C23.53012748 160.44366532 27.3127011 155.66621235 31.06420898 150.85380554 C36.00523851 144.51670544 41.1130387 138.32083234 46.22631836 132.12236023 C50.29571452 127.17270462 54.30047968 122.1816871 58.24194336 117.13017273 C64.18451408 109.5208867 70.33228398 102.08539678 76.48852539 94.64872742 C80.02972519 90.36660306 83.54249107 86.06128509 87.05444336 81.75517273 C87.5373584 81.16413757 88.02027344 80.57310242 88.51782227 79.9641571 C94.23709564 72.96240132 99.9325852 65.94734904 105.49194336 58.81767273 C109.59398934 53.55773036 113.80041343 48.39284272 118.05444336 43.25517273 C122.569334 37.79898227 127.04348147 32.31573919 131.42944336 26.75517273 C132.13520508 25.86475281 132.13520508 25.86475281 132.85522461 24.9563446 C135.07669858 22.6120004 135.07669858 22.6120004 136.05444336 19.75517273 C123.07465812 18.2278202 114.09640887 17.49734586 106.45288086 28.98173523 Z M146.05444336 38.75517273 C144.39544043 40.79678703 142.7803343 42.85609375 141.17944336 44.94267273 C137.3436629 49.88872763 133.43401571 54.7473845 129.36694336 59.50517273 C125.58545951 63.93404451 121.88656855 68.41369269 118.26928711 72.97782898 C115.45344556 76.50880489 112.5964212 80.00541392 109.74194336 83.50517273 C105.58179671 88.60884544 101.47471547 93.74755338 97.42944336 98.94267273 C93.46937254 104.02427455 89.37232484 108.9631285 85.18334961 113.85697937 C81.34146356 118.36585953 77.67591089 122.99837241 74.03442383 127.66972351 C70.58240384 132.09573702 67.05718209 136.45474402 63.49194336 140.79032898 C56.38253579 149.43782953 49.30892011 158.11074441 42.42944336 166.94267273 C38.38398666 172.13451385 34.19594471 177.1819151 29.921875 182.18656921 C23.12902659 188.86423306 23.12902659 188.86423306 19.05444336 196.75517273 C31.39064524 198.18867234 31.39064524 198.18867234 42.94897461 195.10282898 C44.96276732 192.76912622 46.49967264 190.41422932 48.05444336 187.75517273 C49.26103605 186.21636839 50.4913504 184.69593651 51.74194336 183.19267273 C52.40194336 182.35864929 53.06194336 181.52462585 53.74194336 180.66532898 C56.54939423 177.13230381 59.39372769 173.63035915 62.24194336 170.13017273 C62.79422607 169.45115906 63.34650879 168.77214539 63.91552734 168.07255554 C65.0540183 166.67289774 66.19260998 165.27332188 67.33129883 163.87382507 C69.04343525 161.76870749 70.75426305 159.66253407 72.46459961 157.55595398 C77.15263533 151.78197367 81.84144531 146.00881451 86.55444336 140.25517273 C98.13578527 126.12676059 98.13578527 126.12676059 109.49194336 111.81767273 C113.59398596 106.55773469 117.80028726 101.39273381 122.05444336 96.25517273 C127.70871054 89.42524297 133.3392052 82.56891661 138.67285156 75.48344421 C140.05444336 73.75517273 140.05444336 73.75517273 141.91064453 71.82572937 C146.94304072 66.28227514 147.8160938 62.14735558 147.66967773 54.7219696 C147.58169922 52.97496765 147.58169922 52.97496765 147.49194336 51.19267273 C147.44457031 49.39346375 147.44457031 49.39346375 147.39624023 47.5579071 C147.31433623 44.62106369 147.19970458 41.68944934 147.05444336 38.75517273 C146.72444336 38.75517273 146.39444336 38.75517273 146.05444336 38.75517273 Z M146.05444336 96.75517273 C144.39544043 98.79678703 142.7803343 100.85609375 141.17944336 102.94267273 C137.3436629 107.88872763 133.43401571 112.7473845 129.36694336 117.50517273 C125.58545951 121.93404451 121.88656855 126.41369269 118.26928711 130.97782898 C115.45344556 134.50880489 112.5964212 138.00541392 109.74194336 141.50517273 C105.58179671 146.60884544 101.47471547 151.74755338 97.42944336 156.94267273 C93.90232686 161.4687033 90.28459854 165.89506222 86.55444336 170.25517273 C82.64537188 174.82733387 78.8392918 179.46699587 75.11694336 184.19267273 C74.44405273 185.04345398 74.44405273 185.04345398 73.75756836 185.91142273 C71.00752466 189.42582903 68.48419391 193.0175286 66.05444336 196.75517273 C77.38243749 198.14366554 77.38243749 198.14366554 87.93334961 195.02079773 C90.25897196 192.39965431 92.14260086 189.69161432 94.05444336 186.75517273 C95.30009297 185.11717653 96.58211438 183.51270999 97.86938477 181.90727234 C99.27311196 180.15373693 100.65107079 178.38206449 102.02709961 176.60673523 C105.33780302 172.3663062 108.75250828 168.21437448 112.17944336 164.06767273 C112.77885742 163.34209167 113.37827148 162.61651062 113.99584961 161.86894226 C115.68127362 159.83037737 117.36780675 157.79273435 119.05444336 155.75517273 C123.00025212 150.9783434 126.92993787 146.1915861 130.76538086 141.32548523 C131.23459961 140.73034119 131.70381836 140.13519714 132.18725586 139.52201843 C133.13803118 138.30546115 134.08082067 137.082619 135.01538086 135.8535614 C137.07313828 133.16335048 139.02430249 130.78279394 141.53100586 128.48564148 C145.9940433 124.23550512 147.24103085 120.8957012 147.54272461 114.80204773 C147.6340438 108.77498092 147.42796324 102.77027939 147.05444336 96.75517273 C146.72444336 96.75517273 146.39444336 96.75517273 146.05444336 96.75517273 Z M146.05444336 152.75517273 C144.3893128 154.60463509 142.77613144 156.47267066 141.17944336 158.38017273 C140.68621582 158.96629333 140.19298828 159.55241394 139.68481445 160.15629578 C135.80865062 164.79057173 132.05485257 169.51258058 128.34667969 174.28178406 C124.02871393 179.82640079 119.58745593 185.26744725 115.11743164 190.68998718 C112.35614531 193.42489058 112.35614531 193.42489058 111.05444336 196.75517273 C122.93444336 196.75517273 134.81444336 196.75517273 147.05444336 196.75517273 C147.05444336 182.23517273 147.05444336 167.71517273 147.05444336 152.75517273 C146.72444336 152.75517273 146.39444336 152.75517273 146.05444336 152.75517273 Z " fill="#000000" transform="translate(145.945556640625,46.24482727050781)"/>
<path d="M0 0 C1.61730686 -0.00435336 3.23461167 -0.00953858 4.85191345 -0.01548767 C9.22397106 -0.02882301 13.59594194 -0.02946237 17.96801591 -0.02692437 C21.62823191 -0.02585077 25.28843063 -0.03074805 28.94864291 -0.03552979 C37.59012417 -0.04660646 46.23156196 -0.047073 54.87304688 -0.04101562 C63.76340842 -0.03497922 72.65361156 -0.04728262 81.54394609 -0.06858569 C89.19861441 -0.08624786 96.85323252 -0.09219572 104.50792044 -0.08894795 C109.07006529 -0.08714202 113.63209717 -0.08970178 118.1942234 -0.10366249 C122.48794138 -0.11631129 126.781414 -0.11423064 131.07512856 -0.1012516 C132.64233994 -0.0989014 134.20956899 -0.10156404 135.7767601 -0.10987473 C150.21919737 -0.18088197 163.63395371 1.36592564 174.68041992 11.4621582 C182.33506197 19.61408558 185.24075822 30.08012777 185.19784546 41.01483154 C185.20237657 41.87059729 185.20690768 42.72636303 185.2115761 43.60806108 C185.22419108 46.46280269 185.22260161 49.31735281 185.22094727 52.17211914 C185.22693436 54.22424565 185.23374032 56.2763699 185.24130249 58.32849121 C185.25895206 63.89476554 185.26365746 69.46097834 185.26493406 75.02727795 C185.2663569 78.50775731 185.27062904 81.9882211 185.2759285 85.46869659 C185.29442589 97.61919648 185.30259954 109.76965252 185.30102539 121.92016602 C185.29982433 133.23263441 185.32092049 144.5449119 185.35251272 155.85733199 C185.37869614 165.58071593 185.3893918 175.30403761 185.38811457 185.02745652 C185.38760552 190.82985285 185.39325767 196.63207951 185.41447067 202.43444061 C185.43388753 207.89447482 185.43395379 213.35417811 185.41943741 218.81422424 C185.41735245 220.81241084 185.42203143 222.81061834 185.43415833 224.80876923 C185.51833561 239.64563213 184.21259833 251.68939184 173.93041992 263.2746582 C163.11605841 272.78066596 150.65168383 273.86875968 136.9152832 273.80810547 C135.22048191 273.8151756 133.52568692 273.82392519 131.8309021 273.83421326 C127.25634166 273.85659588 122.68212903 273.85379349 118.10753489 273.84489179 C114.2758086 273.83975832 110.44414632 273.84709362 106.61242664 273.85436386 C97.56618578 273.87132799 88.52011374 273.86783278 79.47387695 273.85107422 C70.16985071 273.83415994 60.8662939 273.84998584 51.56231892 273.8822971 C43.54748781 273.90906744 35.53280216 273.91624885 27.51793087 273.90778202 C22.74277567 273.90287403 17.96790265 273.90495224 13.19278336 273.92556953 C8.69943501 273.94404384 4.20675698 273.93782594 -0.28655624 273.91337013 C-1.92591017 273.90839907 -3.56531622 273.9117545 -5.20462799 273.92451859 C-17.73446624 274.0142847 -29.86420178 272.50519477 -39.28833008 263.3605957 C-46.85538139 254.49918035 -50.38515465 246.03767378 -50.33027649 234.44509888 C-50.33410204 233.57975489 -50.33792758 232.71441091 -50.34186906 231.82284439 C-50.35215203 228.93578877 -50.34821586 226.04893377 -50.34423828 223.16186523 C-50.34858736 221.08679013 -50.35377117 219.01171663 -50.35972595 216.93664551 C-50.37310625 211.30851792 -50.37369567 205.68045753 -50.37116265 200.05231714 C-50.37009226 195.35056769 -50.37497809 190.6488318 -50.37976807 185.94708526 C-50.39085997 174.85297815 -50.39130248 163.7589049 -50.38525391 152.66479492 C-50.37921394 141.22735028 -50.39152651 129.79002864 -50.41282398 118.35260499 C-50.43044845 108.52564496 -50.43643998 98.69872405 -50.43318623 88.87174881 C-50.43137454 83.00573435 -50.43399822 77.13980764 -50.44790077 71.27380753 C-50.46048814 65.75636676 -50.45852627 60.23911755 -50.44548988 54.72167969 C-50.44312653 52.70008148 -50.44585013 50.67846976 -50.45411301 48.65688705 C-50.46460254 45.89043209 -50.45646208 43.12461724 -50.44380188 40.35818481 C-50.45117616 39.56429419 -50.45855045 38.77040356 -50.4661482 37.95245564 C-50.37214034 28.14169717 -46.82054056 19.24363599 -40.02661133 12.13793945 C-28.04605031 0.98220191 -15.80654484 -0.02819535 0 0 Z M-26.94458008 26.9621582 C-31.04782108 33.35838683 -31.36797533 40.53120258 -31.30577087 47.97181702 C-31.306924 48.79873989 -31.30807713 49.62566276 -31.3092652 50.47764391 C-31.31054681 53.22266488 -31.29743489 55.96741605 -31.28417969 58.71240234 C-31.28193637 60.69087145 -31.2805135 62.66934163 -31.27984619 64.64781189 C-31.27505412 70.00307445 -31.25697747 75.35821053 -31.23509669 80.71342778 C-31.22191699 84.06155214 -31.21142711 87.40967413 -31.20184517 90.75781059 C-31.16809573 102.444559 -31.12287169 114.13120412 -31.06787109 125.81787109 C-31.01697262 136.70321203 -30.9923557 147.58840302 -30.97968096 158.47384936 C-30.96753962 167.83043916 -30.93630047 177.18684163 -30.89039618 186.54332632 C-30.86336769 192.12705081 -30.84419597 197.710533 -30.84455681 203.29432869 C-30.84429568 208.54360468 -30.82027122 213.79224413 -30.77810669 219.0413456 C-30.76668681 220.96496693 -30.76370991 222.88866018 -30.76989937 224.81230545 C-30.77704319 227.44375691 -30.75341114 230.07324511 -30.72227478 232.70448303 C-30.7315838 233.46101278 -30.74089282 234.21754253 -30.75048393 234.99699742 C-30.63167558 240.77888172 -28.89288015 244.90873291 -25.06958008 249.2746582 C-20.7204194 252.9237382 -16.43017784 253.77576141 -10.82777405 253.78259277 C-10.1332337 253.78883274 -9.43869335 253.7950727 -8.72310632 253.80150175 C-6.41384641 253.81735773 -4.10565299 253.80485764 -1.79638672 253.79223633 C-0.13347258 253.79766083 1.52943676 253.80478533 3.19233704 253.81347656 C7.69656866 253.83167538 12.20043282 253.8246563 16.70467067 253.81196022 C21.42548387 253.801813 26.14626621 253.81123084 30.86708069 253.81750488 C38.7950707 253.82477699 46.72291155 253.8152058 54.65087891 253.79614258 C63.80604356 253.77438218 72.96085175 253.78142089 82.11600775 253.8034482 C89.98630342 253.82162362 97.85649204 253.82414983 105.72680193 253.81369352 C110.42300382 253.8074694 115.11903839 253.80659301 119.81522942 253.81983948 C124.23211081 253.8314283 128.64853458 253.82331714 133.06536674 253.80026245 C134.68262473 253.79499118 136.29992149 253.79646196 137.91716385 253.80531311 C149.53617867 253.94738962 149.53617867 253.94738962 159.93041992 249.2746582 C164.44893622 243.59754798 165.07923016 239.14361281 165.07759094 232.10247803 C165.08126763 231.25955837 165.08494432 230.41663872 165.08873242 229.54817605 C165.09977818 226.71318222 165.10361461 223.87822503 165.10742188 221.04321289 C165.11368582 219.01474389 165.12033256 216.98627604 165.12733459 214.95780945 C165.14474991 209.43910204 165.15529769 203.9204033 165.16354012 198.40167522 C165.16868889 194.95475552 165.17476466 191.50783852 165.18105125 188.06092072 C165.20010435 177.27914963 165.21433555 166.49738541 165.22266322 155.71560073 C165.23243872 143.26448897 165.258766 130.81355483 165.29916412 118.36250567 C165.3293086 108.74203169 165.3441305 99.12160868 165.34744424 89.50108838 C165.3497965 83.75352175 165.35878008 78.00614487 165.38390541 72.25862885 C165.40716203 66.85120345 165.41142896 61.44409305 165.40114403 56.03663063 C165.40064798 54.05288712 165.40698858 52.06912824 165.42070007 50.08543205 C165.43838639 47.37483445 165.43132897 44.66537132 165.41816711 41.95477295 C165.42913636 41.1717829 165.44010561 40.38879285 165.45140725 39.58207583 C165.38665254 34.0494431 164.06169376 30.85238195 160.93041992 26.2746582 C155.71493089 21.32663014 151.1455883 20.02680135 144.04301453 20.00723267 C143.36243368 20.00270155 142.68185284 19.99817044 141.98064834 19.99350202 C139.70691861 19.98087196 137.43342883 19.98247746 135.15966797 19.98413086 C133.5266082 19.9781447 131.89355127 19.97133895 130.26049805 19.96377563 C125.82856499 19.94611654 121.39670917 19.94142027 116.96474433 19.94014406 C114.19420365 19.93872176 111.42368256 19.93445065 108.65314674 19.92914963 C98.98294454 19.9106491 89.31279744 19.90247898 79.64257812 19.90405273 C70.63630253 19.90525389 61.63026668 19.88415676 52.62405175 19.85256541 C44.88544963 19.8263903 37.14692575 19.81568597 29.40827972 19.81696355 C24.78915179 19.81747286 20.17023692 19.81180723 15.55115318 19.79060745 C11.20492033 19.77120443 6.85910329 19.77111459 2.51285553 19.78564072 C0.92138624 19.78772742 -0.67010921 19.78303615 -2.26153374 19.7709198 C-12.17897068 19.70032814 -19.36993843 19.88151492 -26.94458008 26.9621582 Z " fill="#000000" transform="translate(156.069580078125,17.725341796875)"/>
<path d="M0 0 C1.70099219 -0.00407028 3.40198173 -0.00941472 5.10296631 -0.01593018 C9.70213103 -0.02955525 14.30109286 -0.02432506 18.90026093 -0.01479292 C23.72469103 -0.00717134 28.54910434 -0.01424886 33.37353516 -0.01895142 C41.47366437 -0.0244017 49.5737114 -0.01723645 57.67382812 -0.00292969 C67.02436472 0.01339541 76.37470505 0.00810639 85.72523689 -0.0084089 C93.76882158 -0.0220445 101.81234735 -0.0239333 109.85593987 -0.0160929 C114.65328054 -0.01142778 119.4505291 -0.0107595 124.24786377 -0.02070236 C128.75908803 -0.02939997 133.27006043 -0.02329929 137.78125763 -0.00601959 C139.43196445 -0.00206963 141.08269264 -0.00316311 142.73339081 -0.00980759 C155.4062558 -0.05609671 165.72387785 1.46620863 176.1484375 9.38818359 C185.05312658 18.41182845 188.30248655 28.42190683 188.28887939 40.85661316 C188.29185052 41.70729207 188.29482164 42.55797098 188.2978828 43.43442804 C188.30655171 46.28385069 188.30807652 49.13323123 188.30957031 51.98266602 C188.31419979 54.02626637 188.31922462 56.06986587 188.32461548 58.11346436 C188.33772955 63.66531522 188.34418258 69.217154 188.34862614 74.76901793 C188.35155864 78.23908828 188.35566381 81.70915533 188.36013031 85.17922401 C188.37380302 96.040553 188.38347062 106.90187444 188.3873322 117.76321143 C188.39181163 130.29291116 188.40935522 142.82250172 188.4383328 155.35216826 C188.45996404 165.04236867 188.47003727 174.7325384 188.47137332 184.42276269 C188.47242037 190.20780498 188.4783069 195.99274463 188.49619293 201.77776146 C188.51269833 207.22211944 188.51481706 212.66629788 188.50605392 218.110672 C188.50528486 220.10443923 188.50960898 222.09821621 188.51951218 224.091959 C188.58868043 238.88974846 188.01123456 251.10334858 177.26171875 262.36474609 C165.44496405 273.27609129 152.39569508 273.69043386 136.96533203 273.6628418 C135.34787767 273.66719631 133.73042536 273.67238191 132.11297607 273.67832947 C127.74510972 273.69165115 123.37733026 273.69230579 119.00944757 273.68976617 C115.35166673 273.68869181 111.69390314 273.69359167 108.03612602 273.69837159 C99.40086109 273.70944315 90.76563967 273.70991744 82.13037109 273.70385742 C73.24737315 273.69781904 64.36453366 273.71013063 55.48156273 273.73142749 C47.8311205 273.74908915 40.18072849 273.75503767 32.53026664 273.75178975 C27.97149012 273.74998402 23.41282665 273.75254167 18.85406876 273.76650429 C14.56444132 273.77915259 10.27505949 273.77707291 5.98543549 273.7640934 C4.41983581 273.76174324 2.85421845 273.76440569 1.28863907 273.77271652 C-14.22541016 273.84907302 -25.93240974 271.77844331 -37.6015625 261.13818359 C-45.13670417 253.25257022 -46.99890554 244.38378398 -47.00546265 233.8260498 C-47.0098449 232.96523694 -47.01422715 232.10442407 -47.0187422 231.21752596 C-47.03209433 228.33365436 -47.03830104 225.44981331 -47.04443359 222.56591797 C-47.05233749 220.49762841 -47.06060662 218.42934022 -47.06921387 216.36105347 C-47.0954044 209.56802685 -47.11074028 202.77499417 -47.125 195.98193359 C-47.13036122 193.6404266 -47.13573874 191.29891964 -47.14113235 188.95741272 C-47.16275825 179.21394128 -47.18149311 169.47047148 -47.19275475 159.72698212 C-47.20898196 145.78060103 -47.24213361 131.83449905 -47.29915559 117.88822317 C-47.33791271 108.0731384 -47.35739438 98.25812811 -47.36267531 88.44296885 C-47.3663213 82.58564678 -47.3782627 76.72862262 -47.41077805 70.87138367 C-47.4409594 65.35552612 -47.44713449 59.84014518 -47.43539429 54.32422256 C-47.43517438 52.30751387 -47.44340986 50.29078242 -47.46104813 48.27415085 C-47.58166204 33.68141865 -46.74748414 21.2923001 -35.953125 10.25537109 C-25.17448533 0.6788102 -13.81677267 -0.05561597 0 0 Z M-23.8515625 26.38818359 C-27.87513728 32.69178408 -28.00051776 39.22885139 -27.99200439 46.52130127 C-27.99497552 47.32383198 -27.99794664 48.12636268 -28.0010078 48.9532125 C-28.00965699 51.63369531 -28.01119983 54.31413326 -28.01269531 56.99462891 C-28.01732614 58.92015172 -28.02235116 60.84567362 -28.02774048 62.77119446 C-28.0408404 67.99655022 -28.04730466 73.22189315 -28.05175114 78.44726276 C-28.05468556 81.71414931 -28.05879105 84.98103238 -28.06325531 88.24791718 C-28.07692348 98.47599466 -28.08659365 108.70406415 -28.0904572 118.93215013 C-28.09493735 130.72662616 -28.11248618 142.52098627 -28.1414578 154.31542706 C-28.16309306 163.44089661 -28.17316246 172.56633358 -28.17449832 181.69182849 C-28.17554496 187.13815697 -28.18142289 192.58437638 -28.19931793 198.0306778 C-28.21583062 203.15577061 -28.21793856 208.28067272 -28.20917892 213.4057827 C-28.20841028 215.2818344 -28.21272836 217.1578965 -28.22263718 219.0339222 C-28.94879009 234.06726033 -28.94879009 234.06726033 -23.16545486 247.30566788 C-17.96609904 252.17753685 -13.06034093 253.63605805 -5.9641571 253.65560913 C-5.28357626 253.66014024 -4.60299542 253.66467136 -3.90179092 253.66933978 C-1.62806118 253.68196984 0.64542859 253.68036433 2.91918945 253.67871094 C4.55224922 253.6846971 6.18530615 253.69150285 7.81835938 253.69906616 C12.25029244 253.71672525 16.68214825 253.72142153 21.11411309 253.72269773 C23.88465378 253.72412003 26.65517486 253.72839114 29.42571068 253.73369217 C39.09591289 253.7521927 48.76605998 253.76036282 58.4362793 253.75878906 C67.44255489 253.75758791 76.44859074 253.77868504 85.45480567 253.81027639 C93.19340779 253.83645149 100.93193167 253.84715583 108.6705777 253.84587824 C113.28970563 253.84536894 117.9086205 253.85103457 122.52770424 253.87223434 C126.8739371 253.89163736 131.21975413 253.89172721 135.56600189 253.87720108 C137.15747118 253.87511438 138.74896663 253.87980564 140.34039116 253.891922 C153.02503277 254.15308182 153.02503277 254.15308182 163.68663502 247.90546227 C168.14225726 242.87517247 168.29589651 238.62802084 168.28887939 232.20927429 C168.29185052 231.36564907 168.29482164 230.52202386 168.2978828 229.65283424 C168.30658007 226.81550259 168.30807891 223.97821308 168.30957031 221.14086914 C168.31419775 219.11077789 168.3192223 217.08068751 168.32461548 215.05059814 C168.33774839 209.52782212 168.34418614 204.00505825 168.34862614 198.48226905 C168.35155533 195.03334689 168.35565984 191.58442807 168.36013031 188.13550758 C168.37380737 177.34893105 168.3834731 166.56236213 168.3873322 155.77577752 C168.3918141 143.31619807 168.40936729 130.85672827 168.4383328 118.39718217 C168.45993469 108.77162757 168.47003568 99.14610386 168.47137332 89.52052528 C168.47242238 83.76911541 168.47835185 78.01780857 168.49619293 72.26642418 C168.51264784 66.85657733 168.51484163 61.44691126 168.50605392 56.03704834 C168.50528218 54.05127797 168.50964435 52.06549797 168.51951218 50.07975197 C168.53219313 47.36896637 168.52637584 44.65882476 168.51593018 41.94804382 C168.52398658 41.16214093 168.53204298 40.37623804 168.54034352 39.56651992 C168.48330233 33.2376628 166.87583497 29.33704228 162.7109375 24.63818359 C156.92159868 19.5548617 150.97936282 19.26538841 143.44448853 19.25447083 C142.79572168 19.25220527 142.14695483 19.24993971 141.47852838 19.2476055 C139.31851221 19.24130777 137.15855946 19.24209213 134.99853516 19.24291992 C133.44414693 19.23992581 131.88975944 19.2365227 130.33537292 19.23274231 C126.12251152 19.22392424 121.90967045 19.22156513 117.69680071 19.22092652 C115.06244604 19.22021483 112.42809652 19.21807826 109.79374313 19.21542931 C100.5968671 19.20618347 91.40000553 19.20209351 82.203125 19.20288086 C73.64053944 19.2034816 65.07801688 19.19292854 56.51544726 19.1771372 C49.15474961 19.1640478 41.79407252 19.15869754 34.43336332 19.15933627 C30.04123236 19.15959082 25.64915744 19.15676301 21.25703812 19.14615822 C17.125113 19.13645355 12.99329722 19.13641426 8.86136818 19.14367485 C7.34891792 19.14471772 5.83646077 19.14237556 4.32402229 19.13631439 C-10.98482686 18.9308862 -10.98482686 18.9308862 -23.8515625 26.38818359 Z " fill="#000000" transform="translate(152.8515625,308.61181640625)"/>
<path d="M0 0 C1.62232113 -0.00271455 3.24464103 -0.00627808 4.86695862 -0.01062012 C9.24702743 -0.01969049 13.62700139 -0.01622226 18.00707173 -0.00986195 C22.60460608 -0.00477499 27.20213267 -0.00950078 31.79966736 -0.01263428 C39.51717579 -0.01626572 47.23464584 -0.01149604 54.95214844 -0.00195312 C63.85903307 0.0089337 72.76582615 0.00540087 81.67270857 -0.00560594 C89.33838814 -0.01469764 97.00404023 -0.015955 104.66972345 -0.0107286 C109.2401129 -0.00761975 113.81045938 -0.00716971 118.38084602 -0.01380157 C122.67781143 -0.019602 126.97465937 -0.01552902 131.27161217 -0.00401306 C132.84330679 -0.00138102 134.41501139 -0.00210652 135.98670197 -0.00653839 C151.48902945 -0.04620385 162.80968758 1.80409243 174.42944336 12.61816406 C181.83325079 20.97371302 183.91895705 29.96500272 183.91645813 40.80314636 C183.92013482 41.66199238 183.92381151 42.52083839 183.92759961 43.40571004 C183.93861016 46.28276786 183.94247582 49.15978953 183.94628906 52.03686523 C183.95255566 54.10017002 183.95920264 56.16347369 183.96620178 58.22677612 C183.98721996 65.00176206 183.9976016 71.77674816 184.00756836 78.55175781 C184.01161665 80.88590316 184.0157336 83.22004839 184.01991844 85.5541935 C184.03896462 96.52017187 184.05319726 107.48614353 184.06153041 118.45213526 C184.07130316 131.1029875 184.09762623 143.75366478 184.1380313 156.40445536 C184.16820493 166.18807249 184.18300045 175.9716395 184.18631142 185.75530225 C184.18866032 191.5962722 184.19760035 197.43705512 184.2227726 203.27797508 C184.24608019 208.77489931 184.25027559 214.27151371 184.24001122 219.76847458 C184.23951642 221.78159809 184.2458203 223.79473701 184.25956726 225.80781364 C184.38469062 245.22288713 184.38469062 245.22288713 179.76928711 253.25878906 C179.30006836 254.16113281 178.83084961 255.06347656 178.34741211 255.99316406 C172.61127726 264.69859225 164.96328979 269.65107499 155.07616711 272.79761887 C151.95179701 273.42221415 148.96787842 273.39170973 145.78108215 273.39923096 C144.72579891 273.40368764 144.72579891 273.40368764 143.6491968 273.40823436 C141.29183528 273.41690573 138.93452464 273.41842829 136.57714844 273.41992188 C134.88674817 273.42455122 133.19634894 273.42957604 131.50595093 273.43496704 C126.91275517 273.44808332 122.31957403 273.45453469 117.72636247 273.4589777 C114.8551522 273.46191015 111.98394592 273.46601532 109.11273766 273.47048187 C100.12498869 273.48415582 91.13724883 273.49382254 82.14949018 273.49768376 C71.78295991 273.50216203 61.41656167 273.51969961 51.05007154 273.54868436 C43.03207945 273.57032244 35.01412444 273.58038921 26.99610347 273.58172488 C22.20984775 273.58277154 17.42371614 273.58864955 12.63749123 273.60654449 C8.13210584 273.62306157 3.62693737 273.62516307 -0.87846756 273.61640549 C-2.52756775 273.61563701 -4.17667977 273.61995274 -5.82575035 273.62986374 C-18.50201948 273.70155017 -28.80268948 272.18339625 -39.23071289 264.25878906 C-47.77317228 255.60221285 -51.38063199 245.79345641 -51.37788391 233.84141541 C-51.3815606 232.98412938 -51.38523729 232.12684336 -51.38902539 231.24357897 C-51.40005419 228.36574907 -51.40390474 225.48795529 -51.40771484 222.61010742 C-51.41398018 220.54857265 -51.42062705 218.487039 -51.42762756 216.42550659 C-51.44866482 209.64988999 -51.45903075 202.87427318 -51.46899414 196.09863281 C-51.47304205 193.76482189 -51.47715898 191.43101108 -51.48134422 189.09720039 C-51.50039643 178.1306826 -51.51462649 167.16417153 -51.52295619 156.19764036 C-51.53272423 143.54678803 -51.55903245 130.89611088 -51.59945709 118.24532026 C-51.6296421 108.46255691 -51.64442741 98.67984371 -51.64773721 88.8970347 C-51.65008527 83.05657687 -51.65901407 77.21630616 -51.68419838 71.37589836 C-51.70752519 65.87734277 -51.71169367 60.37909691 -51.701437 54.88050461 C-51.70094262 52.86780198 -51.70723383 50.85508387 -51.72099304 48.84242821 C-51.81839983 33.74314149 -50.65858717 21.81976274 -39.57055664 10.57519531 C-28.12050982 0.11626871 -14.80004357 -0.04179226 0 0 Z M-28.16821289 27.32128906 C-31.4562056 32.00418777 -31.37718702 35.91984859 -31.37115479 41.43769836 C-31.37412591 42.28132358 -31.37709703 43.1249488 -31.38015819 43.99413842 C-31.38885546 46.83147007 -31.3903543 49.66875958 -31.3918457 52.50610352 C-31.39647314 54.53619477 -31.40149769 56.56628515 -31.40689087 58.59637451 C-31.42002378 64.11915054 -31.42646153 69.6419144 -31.43090153 75.16470361 C-31.43383072 78.61362577 -31.43793523 82.06254459 -31.4424057 85.51146507 C-31.45608276 96.29804161 -31.46574849 107.08461053 -31.46960759 117.87119514 C-31.47408949 130.33077458 -31.49164268 142.79024439 -31.52060819 155.24979049 C-31.54221008 164.87534508 -31.55231107 174.5008688 -31.55364871 184.12644738 C-31.55469778 189.87785725 -31.56062724 195.62916408 -31.57846832 201.38054848 C-31.59492323 206.79039532 -31.59711702 212.20006139 -31.58832932 217.60992432 C-31.58755757 219.59569469 -31.59191974 221.58147468 -31.60178757 223.56722069 C-31.61446852 226.27800628 -31.60865123 228.9881479 -31.59820557 231.69892883 C-31.60626197 232.48483172 -31.61431838 233.27073461 -31.62261891 234.08045274 C-31.56557773 240.40930986 -29.95811036 244.30993037 -25.79321289 249.00878906 C-21.27571888 252.97536917 -18.33141359 253.51003275 -12.30497742 253.5262146 C-11.60821122 253.53074571 -10.91144503 253.53527683 -10.19356471 253.53994524 C-7.85911893 253.55260411 -5.524906 253.55096794 -3.19042969 253.54931641 C-1.51648661 253.55530078 0.1574537 253.56210612 1.83139038 253.56967163 C6.37901389 253.58734926 10.92656215 253.59202778 15.4742167 253.5933032 C19.27134725 253.59520235 23.06846027 253.60256016 26.86558408 253.60964739 C35.82560024 253.62593606 44.7855762 253.63081595 53.74560547 253.62939453 C62.98534086 253.62819332 72.22484258 253.64929003 81.46451885 253.68088186 C89.39926162 253.70704419 97.33392808 253.71776183 105.26871365 253.71648371 C110.00687094 253.71597402 114.74482065 253.72166125 119.48293495 253.74283981 C123.94077371 253.7622212 128.39820687 253.76234742 132.85606003 253.74780655 C134.48987483 253.74571714 136.12371501 253.75042726 137.75748634 253.76252747 C139.9929987 253.77800857 142.22711748 253.76865469 144.46260071 253.75326538 C145.71196568 253.75435492 146.96133066 253.75544445 148.24855518 253.756567 C153.7363712 252.98067329 157.46719599 250.80722174 161.08178711 246.50878906 C164.39784983 240.12229789 165.06617996 233.93776197 165.02998352 226.87843323 C165.03380907 226.07348811 165.03763461 225.26854298 165.04157609 224.43920559 C165.0518319 221.76254376 165.04792816 219.08609943 165.04394531 216.40942383 C165.04829587 214.48198245 165.05348016 212.55454281 165.05943298 210.62710571 C165.07279648 205.40604771 165.07340465 200.18506222 165.07086968 194.96399045 C165.06979829 190.60019505 165.0746876 186.23641422 165.0794751 181.87262195 C165.09056089 171.57579608 165.09101276 161.27900669 165.08496094 150.98217773 C165.07891962 140.37006661 165.09123835 129.75808801 165.11253101 119.14599949 C165.13015908 110.02389608 165.1361465 100.90183481 165.13289326 91.779715 C165.13108237 86.33625141 165.13369738 80.8928824 165.1476078 75.44943428 C165.1602013 70.33005153 165.15822757 65.21087516 165.14519691 60.09149551 C165.142835 58.21663912 165.14555197 56.34176813 165.15382004 54.46692848 C165.16432187 51.89975775 165.15615965 49.33327518 165.14350891 46.76612854 C165.1508832 46.03128426 165.15825748 45.29643997 165.16585523 44.53932768 C165.09716342 37.87450569 163.58326802 31.28871275 159.51928711 25.88378906 C154.42844667 21.02435046 149.53178194 19.88489295 142.64137268 19.87110901 C141.61793814 19.8630307 141.61793814 19.8630307 140.57382816 19.8547892 C138.30619236 19.8405748 136.03914571 19.84759678 133.77148438 19.85473633 C132.13812799 19.84902933 130.50477559 19.84206379 128.87142944 19.8339386 C124.44783642 19.81602861 120.024442 19.81717147 115.60082364 19.82288098 C111.90304357 19.82597591 108.20530148 19.81987701 104.50752681 19.81384224 C95.78184108 19.79980576 87.05625327 19.80135104 78.33056641 19.81274414 C69.33900566 19.8242252 60.34774318 19.81014793 51.35622174 19.78334767 C43.62606191 19.76117263 35.8959956 19.75455733 28.16580623 19.76042408 C23.55342809 19.76379046 18.94124114 19.76139978 14.32888985 19.74417305 C9.99081912 19.72867714 5.65318943 19.73268862 1.31513596 19.7514782 C-0.27310287 19.75515674 -1.86137457 19.75207704 -3.44958305 19.74159241 C-17.2159119 19.62784609 -17.2159119 19.62784609 -28.16821289 27.32128906 Z " fill="#000000" transform="translate(410.230712890625,17.7412109375)"/>
<path d="M0 0 C0.70704901 -0.00367669 1.41409802 -0.00735338 2.14257276 -0.01114148 C4.50597515 -0.02213276 6.8693335 -0.0260144 9.23275757 -0.02983093 C10.9299127 -0.03609907 12.62706647 -0.04274619 14.32421875 -0.04974365 C19.89316865 -0.07074644 25.46211871 -0.08114318 31.03109741 -0.09111023 C32.95165394 -0.09515933 34.87221033 -0.0992763 36.79276657 -0.10346031 C45.81788926 -0.12250445 54.84300381 -0.13673656 63.86814272 -0.14507228 C74.26977191 -0.15483916 84.67118798 -0.18114763 95.0727421 -0.22157317 C103.12305617 -0.25178184 111.17330932 -0.2665457 119.22367895 -0.26985329 C124.02679561 -0.27219852 128.8296844 -0.2810901 133.63274002 -0.30631447 C138.15542595 -0.32968321 142.67773538 -0.33379323 147.20046616 -0.32355309 C148.85357164 -0.32305973 150.50669621 -0.32932052 152.15974426 -0.34310913 C165.18834166 -0.44563927 175.46097974 1.20651491 185.64047241 9.94795227 C195.2192526 19.40909832 197.16644127 29.92118389 197.27710164 42.91466153 C197.28503284 45.76885646 197.27822089 48.62281087 197.27108765 51.477005 C197.27679605 53.53942738 197.28376213 55.60184659 197.29188538 57.66426086 C197.30977925 63.24485364 197.30865554 68.82528886 197.30294299 74.40590167 C197.29984587 79.07282449 197.30594938 83.73971728 197.31198174 88.40663582 C197.32601281 99.41986388 197.32447729 110.43301434 197.31307983 121.44624329 C197.30159825 132.79116184 197.31567834 144.13584401 197.34247631 155.48073143 C197.36465775 165.23815363 197.37126521 174.99550177 197.3653999 184.75294739 C197.36203521 190.57317364 197.36441316 196.39324835 197.38165092 202.21345329 C197.397157 207.6874951 197.3931237 213.16118756 197.37434578 218.63521576 C197.37067015 220.63823697 197.37373826 222.64128429 197.38423157 224.64428139 C197.4570843 239.70639295 196.26505394 251.61647408 185.20687866 262.83076477 C173.75683184 273.28969137 160.43636559 273.44775234 145.63632202 273.40596008 C144.01400089 273.40867463 142.39168099 273.41223816 140.7693634 273.4165802 C136.38929459 273.42565057 132.00932063 273.42218235 127.62925029 273.41582203 C123.03171594 273.41073507 118.43418935 273.41546087 113.83665466 273.41859436 C106.11914624 273.4222258 98.40167618 273.41745612 90.68417358 273.40791321 C81.77728895 273.39702639 72.87049587 273.40055921 63.96361345 273.41156602 C56.29793388 273.42065773 48.63228179 273.42191508 40.96659857 273.41668868 C36.39620912 273.41357983 31.82586264 273.4131298 27.255476 273.41976166 C22.95851059 273.42556208 18.66166265 273.42148911 14.36470985 273.40997314 C12.79301523 273.4073411 11.22131063 273.4080666 9.64962006 273.41249847 C-5.85718784 273.4521754 -17.16388262 271.59668062 -28.79312134 260.79170227 C-35.87068119 252.79252361 -38.28462074 244.10901103 -38.27340698 233.72306824 C-38.2763781 232.86507665 -38.27934923 232.00708506 -38.28241038 231.12309372 C-38.29109431 228.24292605 -38.29260539 225.36279997 -38.2940979 222.48262024 C-38.29872636 220.41946321 -38.30375106 218.35630703 -38.30914307 216.29315186 C-38.32226807 210.68339238 -38.32871246 205.07364487 -38.33315372 199.46387243 C-38.33608485 195.95812793 -38.34018978 192.45238669 -38.3446579 188.94664383 C-38.35833433 177.97532061 -38.36799975 167.00400487 -38.37185979 156.03267372 C-38.37633825 143.37335326 -38.39387578 130.71414091 -38.42286038 118.05485332 C-38.44449142 108.26700936 -38.45456486 98.47919577 -38.45590091 88.69132817 C-38.45694809 82.8470266 -38.46283743 77.00282663 -38.48072052 71.15855026 C-38.49722525 65.65757256 -38.49934496 60.15677255 -38.49058151 54.65577888 C-38.48981238 52.64104931 -38.49413753 50.62631008 -38.50403976 48.61160469 C-38.57527353 33.21022009 -37.71579325 22.20931925 -27.13296509 10.14717102 C-19.22698365 2.7522226 -10.72625028 0.0362577 0 0 Z M-13.13296509 24.14717102 C-17.50475831 29.97622865 -18.28179169 34.20794018 -18.28013611 41.3193512 C-18.2838128 42.16227085 -18.28748948 43.0051905 -18.29127759 43.87365317 C-18.30232335 46.708647 -18.30615977 49.54360419 -18.30996704 52.37861633 C-18.31623099 54.40708534 -18.32287772 56.43555319 -18.32987976 58.46401978 C-18.34729508 63.98272718 -18.35784286 69.50142592 -18.36608529 75.020154 C-18.37123406 78.4670737 -18.37730983 81.91399071 -18.38359642 85.36090851 C-18.40264952 96.14267959 -18.41688072 106.92444381 -18.42520839 117.70622849 C-18.43498388 130.15734026 -18.46131116 142.60827439 -18.50170928 155.05932355 C-18.53185377 164.67979753 -18.54667566 174.30022054 -18.5499894 183.92074084 C-18.55234166 189.66830747 -18.56132525 195.41568436 -18.58645058 201.16320038 C-18.60970719 206.57062578 -18.61397412 211.97773617 -18.60368919 217.38519859 C-18.60319315 219.3689421 -18.60953375 221.35270099 -18.62324524 223.33639717 C-18.64093156 226.04699477 -18.63387414 228.7564579 -18.62071228 231.46705627 C-18.63716615 232.64154135 -18.63716615 232.64154135 -18.65395242 233.83975339 C-18.5891977 239.37238612 -17.26423893 242.56944728 -14.13296509 247.14717102 C-8.91747605 252.09519908 -4.34813347 253.39502787 2.75444031 253.41459656 C3.43502115 253.41912767 4.11560199 253.42365878 4.8168065 253.4283272 C7.09053623 253.44095726 9.364026 253.43935176 11.63778687 253.43769836 C13.27084663 253.44368453 14.90390357 253.45049028 16.53695679 253.45805359 C20.96888985 253.47571268 25.40074566 253.48040895 29.8327105 253.48168516 C32.60325119 253.48310746 35.37377228 253.48737857 38.14430809 253.4926796 C47.8145103 253.51118012 57.48465739 253.51935025 67.15487671 253.51777649 C76.1611523 253.51657534 85.16718815 253.53767246 94.17340308 253.56926382 C101.9120052 253.59543892 109.65052908 253.60614326 117.38917512 253.60486567 C122.00830304 253.60435637 126.62721792 253.61002199 131.24630165 253.63122177 C135.59253451 253.65062479 139.93835155 253.65071464 144.2845993 253.63618851 C145.87606859 253.63410181 147.46756404 253.63879307 149.05898857 253.65090942 C158.97710396 253.72150592 166.23208587 253.58060054 173.74203491 246.39717102 C177.74917969 240.26859666 178.16403935 233.84732353 178.12773132 226.72885132 C178.13155687 225.91982264 178.13538242 225.11079397 178.13932389 224.27724928 C178.14958043 221.58676827 178.14567582 218.89650362 178.14169312 216.20600891 C178.14604363 214.26871545 178.15122791 212.33142372 178.15718079 210.39413452 C178.17054472 205.14621797 178.17115241 199.89837356 178.16861749 194.65044332 C178.16754612 190.26427999 178.17243533 185.87813117 178.17722291 181.49197096 C178.18830884 171.14240742 178.18876047 160.79288019 178.18270874 150.4433136 C178.17666741 139.77667116 178.18898616 129.11016058 178.21027881 118.44354063 C178.2279066 109.27472852 178.23389435 100.10595834 178.23064107 90.93712991 C178.22883013 85.46572084 178.23144565 79.99440585 178.24535561 74.52301216 C178.25794863 69.37736494 178.25597581 64.23192305 178.24294472 59.08627892 C178.2405827 57.20174718 178.24330014 55.31720093 178.25156784 53.43268585 C178.2620688 50.8523791 178.25390813 48.27275713 178.24125671 45.69247437 C178.248631 44.95373913 178.25600528 44.2150039 178.26360303 43.45388275 C178.19467812 36.73312765 176.82671438 30.51941459 172.49203491 25.27217102 C165.8981213 19.93424096 160.56558081 19.02563297 152.16308594 19.01345825 C151.51431909 19.0111927 150.86555224 19.00892714 150.19712579 19.00659293 C148.03710962 19.0002952 145.87715687 19.00107956 143.71713257 19.00190735 C142.16274434 18.99891324 140.60835685 18.99551012 139.05397034 18.99172974 C134.84110894 18.98291167 130.62826786 18.98055256 126.41539812 18.97991395 C123.78104346 18.97920226 121.14669393 18.97706568 118.51234055 18.97441673 C109.31546451 18.9651709 100.11860294 18.96108093 90.92172241 18.96186829 C82.35913685 18.96246903 73.79661429 18.95191597 65.23404467 18.93612462 C57.87334702 18.92303522 50.51266993 18.91768497 43.15196073 18.9183237 C38.75982978 18.91857825 34.36775485 18.91575044 29.97563553 18.90514565 C25.84371041 18.89544098 21.71189464 18.89540168 17.57996559 18.90266228 C16.06751533 18.90370514 14.55505818 18.90136299 13.04261971 18.89530182 C-0.80879361 18.56841218 -0.80879361 18.56841218 -13.13296509 24.14717102 Z " fill="#000000" transform="translate(397.1329650878906,308.8528289794922)"/>
<path d="M0 0 C2.89329478 2.01272681 4.69943058 3.47270868 5.40003777 7.03272247 C5.53863296 11.18465228 5.44376875 14.07168919 2.73562622 17.35339355 C1.68811023 18.42974392 0.61565164 19.48219017 -0.47607422 20.51367188 C-1.05807587 21.09859406 -1.64007751 21.68351624 -2.23971558 22.28616333 C-4.15732421 24.20260592 -6.10485543 26.08514912 -8.0546875 27.96875 C-9.39699831 29.29680127 -10.73739642 30.62678833 -12.07595825 31.95861816 C-15.59664686 35.45068503 -19.14395159 38.91446706 -22.69714355 42.37341309 C-26.31445012 45.90556362 -29.90337547 49.46631363 -33.49609375 53.0234375 C-38.73911839 58.20306085 -43.98831889 63.3762716 -49.26513672 68.52148438 C-50.09591736 69.33644882 -50.09591736 69.33644882 -50.94348145 70.1678772 C-55.79750181 74.88437517 -55.79750181 74.88437517 -60.25 75.3125 C-67.2248835 74.73125971 -71.69085342 69.61772016 -76.421875 64.87890625 C-77.00793518 64.2971312 -77.59399536 63.71535614 -78.19781494 63.11595154 C-79.42721706 61.89226065 -80.65405011 60.66598377 -81.87841797 59.43725586 C-83.74973952 57.56276092 -85.63403756 55.70202308 -87.51953125 53.84179688 C-88.71695583 52.64664432 -89.91359791 51.45070716 -91.109375 50.25390625 C-91.67082214 49.70166885 -92.23226929 49.14943146 -92.81072998 48.58045959 C-95.76273675 45.59316316 -97.88291862 43.08568607 -99 39 C-98.91709425 35.02052386 -98.27178086 33.34943253 -95.8125 30.1875 C-92.58798395 27.67954307 -91.0792927 26.91841415 -87 27 C-83.22290537 28.52211276 -79.51515041 30.74509947 -77 34 C-77 34.66 -77 35.32 -77 36 C-76.34 36 -75.68 36 -75 36 C-75 36.66 -75 37.32 -75 38 C-73.515 38.495 -73.515 38.495 -72 39 C-72 39.66 -72 40.32 -72 41 C-71.34 41 -70.68 41 -70 41 C-70 41.66 -70 42.32 -70 43 C-69.46375 43.226875 -68.9275 43.45375 -68.375 43.6875 C-65.22117866 45.43040127 -62.74914811 47.66887304 -60 50 C-59.09584099 49.08584824 -59.09584099 49.08584824 -58.17341614 48.15322876 C-52.4873685 42.40703274 -46.7941022 36.66810865 -41.09264088 30.93720436 C-38.16182077 27.99073842 -35.23385262 25.04155145 -32.31225586 22.0859375 C-29.49186246 19.23291251 -26.66417177 16.38731061 -23.83130455 13.54667282 C-22.75261838 12.46245 -21.67657313 11.37559303 -20.6032505 10.28606033 C-19.09766422 8.7586496 -17.58289968 7.2409349 -16.06567383 5.72509766 C-15.20629715 4.85905914 -14.34692047 3.99302063 -13.46150208 3.10073853 C-9.06479406 -0.65157759 -5.58186817 -1.7443338 0 0 Z " fill="#000000" transform="translate(270,408)"/>
<path d="M0 0 C3.31541064 2.39838216 4.68360676 4.07059486 6 7.9375 C6 13.61846661 2.93776114 17.40007055 -0.93501282 21.34159851 C-1.44936386 21.84987686 -1.9637149 22.35815521 -2.49365234 22.88183594 C-3.04201248 23.43545303 -3.59037262 23.98907013 -4.15534973 24.5594635 C-5.95810651 26.37535345 -7.77153076 28.18013106 -9.5859375 29.984375 C-10.84806457 31.24852442 -12.10974613 32.51311878 -13.3710022 33.77813721 C-16.01071503 36.42226411 -18.65575537 39.06091096 -21.3046875 41.69580078 C-24.69657654 45.07058118 -28.0747956 48.45867499 -31.44914818 51.85097885 C-34.04997643 54.4626546 -36.65791635 57.06713432 -39.26805496 59.66950226 C-40.51656847 60.91601736 -41.76286512 62.16475703 -43.0068779 63.41576385 C-44.74660812 65.16312613 -46.49568976 66.90056132 -48.24755859 68.63574219 C-49.01301247 69.4103051 -49.01301247 69.4103051 -49.79393005 70.20051575 C-53.50671083 73.84815389 -56.54622752 75.94547172 -61.8125 76.0625 C-70.43187335 73.18937555 -77.35431654 63.92407758 -83.74755859 57.60253906 C-84.83798666 56.52879621 -85.93376873 55.46046515 -87.03466797 54.39746094 C-88.64747485 52.83957641 -90.24305419 51.26572016 -91.8359375 49.6875 C-92.57026505 48.98717651 -92.57026505 48.98717651 -93.31942749 48.27270508 C-96.75529725 44.81529119 -98.07787307 41.75719322 -99 37 C-98.29122886 33.61364899 -97.19034562 32.20122252 -94.8125 29.6875 C-91.06767973 27.44060784 -89.31124943 27.19620773 -85 28 C-78.93195145 32.36107762 -73.73801378 38.13643605 -68.5 43.4375 C-67.77296875 44.16904297 -67.0459375 44.90058594 -66.296875 45.65429688 C-64.52890377 47.43389949 -62.76379821 49.21626446 -61 51 C-54.89194899 45.95140777 -49.3372784 40.45006722 -43.76171875 34.82421875 C-42.79031894 33.84840504 -41.81861864 32.87289038 -40.84663391 31.8976593 C-37.79074136 28.83043287 -34.73884533 25.75924925 -31.6875 22.6875 C-28.13188963 19.10826247 -24.57464596 15.53067933 -21.01319313 11.95725441 C-19.59191594 10.52949664 -18.17368087 9.09876343 -16.75553894 7.66789246 C-15.46828667 6.37568535 -15.46828667 6.37568535 -14.1550293 5.05737305 C-13.39892868 4.29603561 -12.64282806 3.53469818 -11.86381531 2.75028992 C-8.36491222 -0.53549423 -4.62485739 -0.77966944 0 0 Z " fill="#000000" transform="translate(523,117)"/>
</svg>
