<?xml version="1.0" encoding="UTF-8"?>
<svg version="1.1" xmlns="http://www.w3.org/2000/svg" width="700" height="587">
<path d="M0 0 C19.14 0 38.28 0 58 0 C58 19.14 58 38.28 58 58 C38.86 58 19.72 58 0 58 C0 38.86 0 19.72 0 0 Z " fill="#000000" transform="translate(546,496)"/>
<path d="M0 0 C19.14 0 38.28 0 58 0 C58 19.14 58 38.28 58 58 C38.86 58 19.72 58 0 58 C0 38.86 0 19.72 0 0 Z " fill="#000000" transform="translate(396,496)"/>
<path d="M0 0 C19.14 0 38.28 0 58 0 C58 19.14 58 38.28 58 58 C38.86 58 19.72 58 0 58 C0 38.86 0 19.72 0 0 Z " fill="#000000" transform="translate(321,496)"/>
<path d="M0 0 C19.14 0 38.28 0 58 0 C58 19.14 58 38.28 58 58 C38.86 58 19.72 58 0 58 C0 38.86 0 19.72 0 0 Z " fill="#000000" transform="translate(246,496)"/>
<path d="M0 0 C19.14 0 38.28 0 58 0 C58 19.14 58 38.28 58 58 C38.86 58 19.72 58 0 58 C0 38.86 0 19.72 0 0 Z " fill="#000000" transform="translate(171,496)"/>
<path d="M0 0 C19.14 0 38.28 0 58 0 C58 19.14 58 38.28 58 58 C38.86 58 19.72 58 0 58 C0 38.86 0 19.72 0 0 Z " fill="#000000" transform="translate(96,496)"/>
<path d="M0 0 C19.14 0 38.28 0 58 0 C58 19.14 58 38.28 58 58 C38.86 58 19.72 58 0 58 C0 38.86 0 19.72 0 0 Z " fill="#000000" transform="translate(321,421)"/>
<path d="M0 0 C19.14 0 38.28 0 58 0 C58 19.14 58 38.28 58 58 C38.86 58 19.72 58 0 58 C0 38.86 0 19.72 0 0 Z " fill="#000000" transform="translate(246,421)"/>
<path d="M0 0 C19.14 0 38.28 0 58 0 C58 19.14 58 38.28 58 58 C38.86 58 19.72 58 0 58 C0 38.86 0 19.72 0 0 Z " fill="#000000" transform="translate(171,421)"/>
<path d="M0 0 C19.14 0 38.28 0 58 0 C58 19.14 58 38.28 58 58 C38.86 58 19.72 58 0 58 C0 38.86 0 19.72 0 0 Z " fill="#000000" transform="translate(96,421)"/>
<path d="M0 0 C19.14 0 38.28 0 58 0 C58 19.14 58 38.28 58 58 C38.86 58 19.72 58 0 58 C0 38.86 0 19.72 0 0 Z " fill="#000000" transform="translate(246,346)"/>
<path d="M0 0 C19.14 0 38.28 0 58 0 C58 19.14 58 38.28 58 58 C38.86 58 19.72 58 0 58 C0 38.86 0 19.72 0 0 Z " fill="#000000" transform="translate(96,346)"/>
<path d="M0 0 C19.14 0 38.28 0 58 0 C58 18.81 58 37.62 58 57 C38.86 57 19.72 57 0 57 C0 38.19 0 19.38 0 0 Z " fill="#000000" transform="translate(471,356)"/>
<path d="M0 0 C19.14 0 38.28 0 58 0 C58 18.81 58 37.62 58 57 C38.86 57 19.72 57 0 57 C0 38.19 0 19.38 0 0 Z " fill="#000000" transform="translate(546,281)"/>
<path d="M0 0 C19.14 0 38.28 0 58 0 C58 18.81 58 37.62 58 57 C38.86 57 19.72 57 0 57 C0 38.19 0 19.38 0 0 Z " fill="#000000" transform="translate(471,281)"/>
<path d="M0 0 C19.14 0 38.28 0 58 0 C58 18.81 58 37.62 58 57 C38.86 57 19.72 57 0 57 C0 38.19 0 19.38 0 0 Z " fill="#000000" transform="translate(396,281)"/>
<path d="M0 0 C19.14 0 38.28 0 58 0 C58 18.81 58 37.62 58 57 C38.86 57 19.72 57 0 57 C0 38.19 0 19.38 0 0 Z " fill="#000000" transform="translate(171,215)"/>
<path d="M0 0 C19.14 0 38.28 0 58 0 C58 18.81 58 37.62 58 57 C38.86 57 19.72 57 0 57 C0 38.19 0 19.38 0 0 Z " fill="#000000" transform="translate(246,140)"/>
<path d="M0 0 C19.14 0 38.28 0 58 0 C58 18.81 58 37.62 58 57 C38.86 57 19.72 57 0 57 C0 38.19 0 19.38 0 0 Z " fill="#000000" transform="translate(171,140)"/>
<path d="M0 0 C2.64209536 2.23948155 3.86629857 4.09767359 4.37705994 7.54470825 C4.5307366 10.81732538 4.55408738 14.06755111 4.53125 17.34375 C4.5350769 18.54559937 4.53890381 19.74744873 4.54284668 20.98571777 C4.54556602 23.52417845 4.53820346 26.06266714 4.52148438 28.60107422 C4.50007721 32.48598724 4.5212876 36.36905074 4.546875 40.25390625 C4.54423173 42.72135825 4.53910678 45.1888091 4.53125 47.65625 C4.53934692 48.81781616 4.54744385 49.97938232 4.55578613 51.17614746 C4.46226949 59.22066975 4.46226949 59.22066975 2.08959961 63.22070312 C-1.12020671 65.95385752 -3.86355257 66.29604793 -8 66 C-11.62090756 64.42569236 -12.79255284 63.31117074 -15 60 C-15.26742554 57.58486938 -15.26742554 57.58486938 -15.29052734 54.68994141 C-15.30328705 53.6051651 -15.31604675 52.52038879 -15.32919312 51.40274048 C-15.33141876 50.23085175 -15.33364441 49.05896301 -15.3359375 47.8515625 C-15.3425943 46.64688324 -15.3492511 45.44220398 -15.35610962 44.20101929 C-15.36624274 41.65062997 -15.37092644 39.10021411 -15.37060547 36.54980469 C-15.37497498 32.64734168 -15.41128009 28.74601255 -15.44921875 24.84375 C-15.45508742 22.36719137 -15.45905648 19.89062737 -15.4609375 17.4140625 C-15.47530853 16.24622223 -15.48967957 15.07838196 -15.50448608 13.87515259 C-15.45895076 5.80094271 -15.45895076 5.80094271 -13.15869141 1.78662109 C-9.2332076 -1.46226949 -4.71955449 -1.72114271 0 0 Z " fill="#000000" transform="translate(543,169)"/>
<path d="M0 0 C2.64209536 2.23948155 3.86629857 4.09767359 4.37705994 7.54470825 C4.5307366 10.81732538 4.55408738 14.06755111 4.53125 17.34375 C4.5350769 18.54559937 4.53890381 19.74744873 4.54284668 20.98571777 C4.54556602 23.52417845 4.53820346 26.06266714 4.52148438 28.60107422 C4.50007721 32.48598724 4.5212876 36.36905074 4.546875 40.25390625 C4.54423173 42.72135825 4.53910678 45.1888091 4.53125 47.65625 C4.53934692 48.81781616 4.54744385 49.97938232 4.55578613 51.17614746 C4.46226949 59.22066975 4.46226949 59.22066975 2.08959961 63.22070312 C-1.12020671 65.95385752 -3.86355257 66.29604793 -8 66 C-11.62090756 64.42569236 -12.79255284 63.31117074 -15 60 C-15.26742554 57.58486938 -15.26742554 57.58486938 -15.29052734 54.68994141 C-15.30328705 53.6051651 -15.31604675 52.52038879 -15.32919312 51.40274048 C-15.33141876 50.23085175 -15.33364441 49.05896301 -15.3359375 47.8515625 C-15.3425943 46.64688324 -15.3492511 45.44220398 -15.35610962 44.20101929 C-15.36624274 41.65062997 -15.37092644 39.10021411 -15.37060547 36.54980469 C-15.37497498 32.64734168 -15.41128009 28.74601255 -15.44921875 24.84375 C-15.45508742 22.36719137 -15.45905648 19.89062737 -15.4609375 17.4140625 C-15.47530853 16.24622223 -15.48967957 15.07838196 -15.50448608 13.87515259 C-15.45895076 5.80094271 -15.45895076 5.80094271 -13.15869141 1.78662109 C-9.2332076 -1.46226949 -4.71955449 -1.72114271 0 0 Z " fill="#000000" transform="translate(468,169)"/>
<path d="M0 0 C0.7321875 -0.01289063 1.464375 -0.02578125 2.21875 -0.0390625 C5.66635773 0.96452194 7.72702591 2.55762727 9.5 5.625 C10.26439251 9.8063426 10.20033205 13.94659661 10.1640625 18.1875 C10.16884613 19.41154541 10.17362976 20.63559082 10.17855835 21.89672852 C10.18195778 24.4822722 10.17275263 27.06785884 10.15185547 29.65332031 C10.12509466 33.61100096 10.15160625 37.56584508 10.18359375 41.5234375 C10.18028966 44.03646459 10.17388347 46.54948992 10.1640625 49.0625 C10.17418365 50.24593994 10.18430481 51.42937988 10.19473267 52.64868164 C10.06452493 61.77470469 10.06452493 61.77470469 7.10107422 64.86865234 C4.44079475 66.66497772 3.17070739 67.30582231 0 67.25 C-1.09828125 67.26933594 -1.09828125 67.26933594 -2.21875 67.2890625 C-5.66635773 66.28547806 -7.72702591 64.69237273 -9.5 61.625 C-10.26439251 57.4436574 -10.20033205 53.30340339 -10.1640625 49.0625 C-10.16884613 47.83845459 -10.17362976 46.61440918 -10.17855835 45.35327148 C-10.18195778 42.7677278 -10.17275263 40.18214116 -10.15185547 37.59667969 C-10.12509466 33.63899904 -10.15160625 29.68415492 -10.18359375 25.7265625 C-10.18028966 23.21353541 -10.17388347 20.70051008 -10.1640625 18.1875 C-10.17418365 17.00406006 -10.18430481 15.82062012 -10.19473267 14.60131836 C-10.06452493 5.47529531 -10.06452493 5.47529531 -7.10107422 2.38134766 C-4.44079475 0.58502228 -3.17070739 -0.05582231 0 0 Z " fill="#000000" transform="translate(237.5,27.375)"/>
<path d="M0 0 C3.67184127 2.80775939 4.8782114 4.26871692 5.64697266 8.88476562 C5.67976322 10.39158111 5.68392736 11.89920869 5.6640625 13.40625 C5.66884613 14.20857056 5.67362976 15.01089111 5.67855835 15.83752441 C5.68195067 17.52858448 5.67279483 19.21971071 5.65185547 20.91064453 C5.62507567 23.49270444 5.65162096 26.07041834 5.68359375 28.65234375 C5.68028953 30.29948872 5.67388302 31.94663099 5.6640625 33.59375 C5.67418365 34.36158813 5.68430481 35.12942627 5.69473267 35.92053223 C5.60675019 39.9635658 5.16573053 41.79385726 2.60107422 44.98388672 C-0.08154897 47.06320926 -1.16845089 47.68365403 -4.5 47.625 C-5.2321875 47.63789062 -5.964375 47.65078125 -6.71875 47.6640625 C-10.25204305 46.63553541 -11.70862513 44.85011029 -14 42 C-14.49926958 39.0021217 -14.70348428 36.58447068 -14.6640625 33.59375 C-14.67123795 32.39026917 -14.67123795 32.39026917 -14.67855835 31.16247559 C-14.68195067 29.47141552 -14.67279483 27.78028929 -14.65185547 26.08935547 C-14.62507567 23.50729556 -14.65162096 20.92958166 -14.68359375 18.34765625 C-14.68028953 16.70051128 -14.67388302 15.05336901 -14.6640625 13.40625 C-14.67418365 12.63841187 -14.68430481 11.87057373 -14.69473267 11.07946777 C-14.60754489 7.07295263 -14.16737394 5.21066689 -11.64599609 2.03710938 C-7.51231261 -1.14534634 -4.9535785 -1.38700198 0 0 Z " fill="#000000" transform="translate(317,47)"/>
<path d="M0 0 C3.67184127 2.80775939 4.8782114 4.26871692 5.64697266 8.88476562 C5.67976322 10.39158111 5.68392736 11.89920869 5.6640625 13.40625 C5.66884613 14.20857056 5.67362976 15.01089111 5.67855835 15.83752441 C5.68195067 17.52858448 5.67279483 19.21971071 5.65185547 20.91064453 C5.62507567 23.49270444 5.65162096 26.07041834 5.68359375 28.65234375 C5.68028953 30.29948872 5.67388302 31.94663099 5.6640625 33.59375 C5.67418365 34.36158813 5.68430481 35.12942627 5.69473267 35.92053223 C5.60675019 39.9635658 5.16573053 41.79385726 2.60107422 44.98388672 C-0.08154897 47.06320926 -1.16845089 47.68365403 -4.5 47.625 C-5.2321875 47.63789062 -5.964375 47.65078125 -6.71875 47.6640625 C-10.25204305 46.63553541 -11.70862513 44.85011029 -14 42 C-14.49926958 39.0021217 -14.70348428 36.58447068 -14.6640625 33.59375 C-14.67123795 32.39026917 -14.67123795 32.39026917 -14.67855835 31.16247559 C-14.68195067 29.47141552 -14.67279483 27.78028929 -14.65185547 26.08935547 C-14.62507567 23.50729556 -14.65162096 20.92958166 -14.68359375 18.34765625 C-14.68028953 16.70051128 -14.67388302 15.05336901 -14.6640625 13.40625 C-14.67418365 12.63841187 -14.68430481 11.87057373 -14.69473267 11.07946777 C-14.60754489 7.07295263 -14.16737394 5.21066689 -11.64599609 2.03710938 C-7.51231261 -1.14534634 -4.9535785 -1.38700198 0 0 Z " fill="#000000" transform="translate(167,47)"/>
<path d="M0 0 C2.75329021 1.79562405 4.52627461 3.05254922 6 6 C6.13536102 8.6401934 6.21265301 11.25276064 6.23828125 13.89453125 C6.246353 14.6789006 6.25442474 15.46326996 6.26274109 16.27140808 C6.27658062 17.93327627 6.28730337 19.59517287 6.29516602 21.25708008 C6.31236353 23.79238135 6.35624655 26.32637314 6.40039062 28.86132812 C6.41051915 30.47655292 6.41903476 32.09178879 6.42578125 33.70703125 C6.44328934 34.46240677 6.46079742 35.21778229 6.47883606 35.99604797 C6.46357449 39.7202655 6.12683938 41.80229127 4.09619141 44.9675293 C1.32918032 47.65042788 -0.31918394 47.89150954 -4.03515625 48.140625 C-7.0024458 47.92825438 -8.7316057 46.86808943 -11 45 C-13.48544147 41.27183779 -13.3232248 38.32765797 -13.3359375 34.0078125 C-13.3425943 33.22485809 -13.3492511 32.44190369 -13.35610962 31.63522339 C-13.36623027 29.97933296 -13.37092682 28.32340179 -13.37060547 26.66748047 C-13.3749725 24.14091291 -13.41127807 21.61610151 -13.44921875 19.08984375 C-13.45508841 17.47917263 -13.45905681 15.86849322 -13.4609375 14.2578125 C-13.47530853 13.50557404 -13.48967957 12.75333557 -13.50448608 11.978302 C-13.47238991 8.27127238 -13.12393554 6.19227651 -11.09619141 3.04638672 C-7.5157575 -0.44897748 -4.94415839 -0.41899647 0 0 Z " fill="#000000" transform="translate(616,187)"/>
<path d="M0 0 C2.75329021 1.79562405 4.52627461 3.05254922 6 6 C6.13536102 8.6401934 6.21265301 11.25276064 6.23828125 13.89453125 C6.246353 14.6789006 6.25442474 15.46326996 6.26274109 16.27140808 C6.27658062 17.93327627 6.28730337 19.59517287 6.29516602 21.25708008 C6.31236353 23.79238135 6.35624655 26.32637314 6.40039062 28.86132812 C6.41051915 30.47655292 6.41903476 32.09178879 6.42578125 33.70703125 C6.44328934 34.46240677 6.46079742 35.21778229 6.47883606 35.99604797 C6.46357449 39.7202655 6.12683938 41.80229127 4.09619141 44.9675293 C1.32918032 47.65042788 -0.31918394 47.89150954 -4.03515625 48.140625 C-7.0024458 47.92825438 -8.7316057 46.86808943 -11 45 C-13.48544147 41.27183779 -13.3232248 38.32765797 -13.3359375 34.0078125 C-13.3425943 33.22485809 -13.3492511 32.44190369 -13.35610962 31.63522339 C-13.36623027 29.97933296 -13.37092682 28.32340179 -13.37060547 26.66748047 C-13.3749725 24.14091291 -13.41127807 21.61610151 -13.44921875 19.08984375 C-13.45508841 17.47917263 -13.45905681 15.86849322 -13.4609375 14.2578125 C-13.47530853 13.50557404 -13.48967957 12.75333557 -13.50448608 11.978302 C-13.47238991 8.27127238 -13.12393554 6.19227651 -11.09619141 3.04638672 C-7.5157575 -0.44897748 -4.94415839 -0.41899647 0 0 Z " fill="#000000" transform="translate(391,187)"/>
</svg>
