<?xml version="1.0" encoding="UTF-8"?>
<svg version="1.1" xmlns="http://www.w3.org/2000/svg" width="700" height="567">
<path d="M0 0 C1.20427781 -0.00654048 1.20427781 -0.00654048 2.43288445 -0.0132131 C5.14610835 -0.0242357 7.85883109 -0.01371495 10.572052 -0.00342751 C12.52766113 -0.0068813 14.48326831 -0.01164399 16.43887138 -0.01760924 C21.8307 -0.03018708 27.22237029 -0.02391814 32.61419964 -0.01465058 C38.42204067 -0.00788809 44.22985367 -0.01832736 50.03768921 -0.02659035 C61.4223293 -0.03995989 72.80691019 -0.03703563 84.19155264 -0.02835242 C93.44060345 -0.02158893 102.68963762 -0.02065337 111.93869019 -0.02392387 C113.25293877 -0.02438357 114.56718736 -0.02484327 115.92126167 -0.0253169 C117.92156116 -0.02603559 119.92186066 -0.02675432 121.92216014 -0.02749758 C146.93350318 -0.03668039 171.94481388 -0.02834499 196.95615193 -0.01220688 C219.19092892 0.00203058 241.42565437 0.00075672 263.66043091 -0.01358986 C288.62520451 -0.02964397 313.58994951 -0.03602922 338.55472755 -0.02675307 C341.21465683 -0.02579738 343.8745861 -0.02485427 346.53451538 -0.02392387 C347.84339655 -0.02346105 349.15227772 -0.02299822 350.50082195 -0.02252137 C359.74330197 -0.01992649 368.98576377 -0.02431319 378.22824097 -0.03136253 C389.48522375 -0.03975929 400.74214374 -0.03753594 411.99911928 -0.0215203 C417.74725331 -0.01361295 423.49528248 -0.01058778 429.24341583 -0.02046776 C434.49872787 -0.02936434 439.75383723 -0.02456553 445.00913072 -0.0085351 C446.91688595 -0.00516582 448.82465807 -0.00692906 450.73240256 -0.01416247 C453.31291845 -0.02320111 455.89272748 -0.01401469 458.47320557 0 C459.22492672 -0.0070235 459.97664788 -0.014047 460.75114846 -0.02128333 C463.51554551 0.00900813 465.72875455 0.10869374 468.1982199 1.41590631 C469.84924246 4.53486576 469.64629514 7.69789755 469.61412621 11.14092064 C469.61848653 11.94377251 469.62284685 12.74662438 469.6273393 13.57380509 C469.63836191 16.28702899 469.62784116 18.99975173 469.61755371 21.71297264 C469.62100751 23.66858177 469.62577019 25.62418895 469.63173544 27.57979202 C469.64431329 32.97162064 469.63804435 38.36329093 469.62877679 43.75512028 C469.6220143 49.56296131 469.63245357 55.37077431 469.64071655 61.17860985 C469.6540861 72.56324993 469.65116183 83.94783083 469.64247863 95.33247328 C469.63571514 104.58152409 469.63477957 113.83055826 469.63805008 123.07961082 C469.63850978 124.39385941 469.63896948 125.708108 469.63944311 127.06218231 C469.6401618 129.0624818 469.64088053 131.0627813 469.64162378 133.06308078 C469.65080659 158.07442382 469.6424712 183.08573452 469.62633309 208.09707257 C469.61209563 230.33184956 469.61336948 252.56657501 469.62771606 274.80135155 C469.64377017 299.76612515 469.65015542 324.73087015 469.64087927 349.69564819 C469.63992358 352.35557746 469.63898047 355.01550674 469.63805008 357.67543602 C469.63758725 358.98431719 469.63712443 360.29319835 469.63664757 361.64174259 C469.63405269 370.88422261 469.63843939 380.1266844 469.64548874 389.36916161 C469.65388549 400.62614438 469.65166215 411.88306437 469.63564651 423.14003992 C469.62773915 428.88817395 469.62471399 434.63620312 469.63459396 440.38433647 C469.64349054 445.63964851 469.63869173 450.89475787 469.62266131 456.15005136 C469.61929202 458.05780658 469.62105527 459.96557871 469.62828867 461.8733232 C469.63732732 464.45383909 469.62814089 467.03364812 469.61412621 469.61412621 C469.6211497 470.36584736 469.6281732 471.11756852 469.63540953 471.8920691 C469.60511808 474.65646615 469.50543247 476.86967519 468.1982199 479.33914053 C465.07926045 480.9901631 461.91622866 480.78721578 458.47320557 480.75504684 C457.6703537 480.75940717 456.86750183 480.76376749 456.04032111 480.76825994 C453.32709721 480.77928255 450.61437448 480.7687618 447.90115356 480.75847435 C445.94554444 480.76192815 443.98993726 480.76669083 442.03433418 480.77265608 C436.64250556 480.78523393 431.25083528 480.77896499 425.85900593 480.76969743 C420.05116489 480.76293493 414.2433519 480.77337421 408.43551636 480.78163719 C397.05087627 480.79500674 385.66629537 480.79208247 374.28165293 480.78339927 C365.03260212 480.77663577 355.78356795 480.77570021 346.53451538 480.77897072 C345.22026679 480.77943042 343.9060182 480.77989012 342.5519439 480.78036375 C340.5516444 480.78108244 338.55134491 480.78180117 336.55104543 480.78254442 C311.53970238 480.79172723 286.52839169 480.78339184 261.51705363 480.76725373 C239.28227665 480.75301627 217.0475512 480.75429012 194.81277466 480.7686367 C169.84800106 480.78469081 144.88325606 480.79107606 119.91847801 480.78179991 C117.25854874 480.78084422 114.59861947 480.77990111 111.93869019 480.77897072 C110.62980902 480.77850789 109.32092785 480.77804507 107.97238362 480.77756821 C98.72990359 480.77497333 89.4874418 480.77936003 80.2449646 480.78640938 C68.98798182 480.79480613 57.73106183 480.79258279 46.47408628 480.77656715 C40.72595226 480.76865979 34.97792308 480.76563462 29.22978973 480.7755146 C23.97447769 480.78441118 18.71936833 480.77961237 13.46407485 480.76358195 C11.55631962 480.76021266 9.64854749 480.76197591 7.740803 480.76920931 C5.16028711 480.77824796 2.58047809 480.76906153 0 480.75504684 C-0.75172116 480.76207034 -1.50344231 480.76909384 -2.2779429 480.77633017 C-5.04233994 480.74603872 -7.25554898 480.64635311 -9.72501433 479.33914053 C-11.37603689 476.22018109 -11.17308957 473.0571493 -11.14092064 469.61412621 C-11.14528096 468.81127434 -11.14964128 468.00842247 -11.15413374 467.18124175 C-11.16515634 464.46801785 -11.15463559 461.75529511 -11.14434814 459.0420742 C-11.14780194 457.08646508 -11.15256463 455.1308579 -11.15852988 453.17525482 C-11.17110772 447.7834262 -11.16483878 442.39175592 -11.15557122 436.99992657 C-11.14880873 431.19208553 -11.159248 425.38427253 -11.16751099 419.576437 C-11.18088053 408.19179691 -11.17795626 396.80721601 -11.16927306 385.42257357 C-11.16250957 376.17352276 -11.161574 366.92448859 -11.16484451 357.67543602 C-11.16530421 356.36118743 -11.16576391 355.04693884 -11.16623754 353.69286454 C-11.16695623 351.69256504 -11.16767496 349.69226555 -11.16841821 347.69196606 C-11.17760102 322.68062302 -11.16926563 297.66931233 -11.15312752 272.65797427 C-11.13889006 250.42319728 -11.14016392 228.18847184 -11.1545105 205.9536953 C-11.17056461 180.9889217 -11.17694986 156.02417669 -11.16767371 131.05939865 C-11.16671802 128.39946938 -11.16577491 125.7395401 -11.16484451 123.07961082 C-11.16438169 121.77072966 -11.16391886 120.46184849 -11.16344201 119.11330426 C-11.16084712 109.87082423 -11.16523383 100.62836244 -11.17228317 91.38588524 C-11.18067992 80.12890246 -11.17845658 68.87198247 -11.16244094 57.61500692 C-11.15453358 51.8668729 -11.15150842 46.11884372 -11.1613884 40.37071037 C-11.17028498 35.11539833 -11.16548617 29.86028897 -11.14945574 24.60499549 C-11.14608646 22.69724026 -11.1478497 20.78946813 -11.1550831 18.88172364 C-11.16412175 16.30120775 -11.15493532 13.72139873 -11.14092064 11.14092064 C-11.14794414 10.38919948 -11.15496764 9.63747833 -11.16220397 8.86297774 C-11.13191251 6.0985807 -11.0322269 3.88537165 -9.72501433 1.41590631 C-6.60605488 -0.23511626 -3.44302309 -0.03216893 0 0 Z M3.23660278 14.37752342 C3.23660278 60.90752342 3.23660278 107.43752342 3.23660278 155.37752342 C49.76660278 155.37752342 96.29660278 155.37752342 144.23660278 155.37752342 C144.23660278 108.84752342 144.23660278 62.31752342 144.23660278 14.37752342 C97.70660278 14.37752342 51.17660278 14.37752342 3.23660278 14.37752342 Z M159.23660278 14.37752342 C159.23660278 60.90752342 159.23660278 107.43752342 159.23660278 155.37752342 C205.43660278 155.37752342 251.63660278 155.37752342 299.23660278 155.37752342 C299.23660278 108.84752342 299.23660278 62.31752342 299.23660278 14.37752342 C253.03660278 14.37752342 206.83660278 14.37752342 159.23660278 14.37752342 Z M314.23660278 14.37752342 C314.23660278 57.27752342 314.23660278 100.17752342 314.23660278 144.37752342 C320.26810101 139.2076678 326.00547515 133.89383131 331.64627075 128.31795311 C332.71557007 127.26539751 333.79022891 126.2182618 334.86990356 125.17635155 C336.44179637 123.65892324 337.99686626 122.12595902 339.54910278 120.58846092 C340.4733606 119.68402245 341.39761841 118.77958397 342.34988403 117.84773827 C344.48887875 115.60704721 344.48887875 115.60704721 344.09963989 113.21126366 C343.81483765 112.60612938 343.5300354 112.0009951 343.23660278 111.37752342 C342.86664185 110.53576561 342.49668091 109.6940078 342.11550903 108.82674217 C341.24142137 106.99297369 340.36642852 105.15963638 339.49050903 103.32674217 C334.51150782 91.61600723 334.65675077 78.30330651 338.91629028 66.37361717 C344.55466278 53.57884882 353.20138215 44.57585914 366.23660278 39.37752342 C378.35505357 34.83768083 391.07412552 35.07401093 403.23660278 39.37752342 C405.21407723 40.37202375 407.16962283 41.41141604 409.09988403 42.49471092 C410.55261719 43.304645 410.55261719 43.304645 412.03469849 44.13094139 C412.7613269 44.54231346 413.48795532 44.95368553 414.23660278 45.37752342 C418.51222631 41.12653779 422.78461681 36.87233965 427.0539856 32.61507225 C428.50816882 31.16593149 429.9632464 29.71768765 431.41921997 28.27034569 C433.50651601 26.19511905 435.5906207 24.11673451 437.67410278 22.03767967 C438.33031616 21.38662758 438.98652954 20.73557549 439.66262817 20.06479454 C441.20638169 18.52123516 442.7244295 16.95203364 444.23660278 15.37752342 C444.23660278 15.04752342 444.23660278 14.71752342 444.23660278 14.37752342 C401.33660278 14.37752342 358.43660278 14.37752342 314.23660278 14.37752342 Z M441.71609497 37.54793358 C440.31485852 38.93258927 438.90827526 40.31185525 437.49636841 41.68562889 C435.4679206 43.65952303 433.4562208 45.6491661 431.44754028 47.64314842 C430.49299454 48.56369011 430.49299454 48.56369011 429.51916504 49.5028286 C428.65299057 50.37327812 428.65299057 50.37327812 427.76931763 51.26131248 C427.25493134 51.76761192 426.74054504 52.27391136 426.21057129 52.79555321 C425.01607408 54.36234946 425.01607408 54.36234946 425.50823975 56.41506004 C426.42809779 58.89347759 427.5273332 61.24550945 428.67410278 63.62752342 C434.48092802 76.38239966 435.10105935 89.08271092 430.43582153 102.44002342 C424.83813234 116.15162692 416.59980485 124.35340484 402.98660278 130.19002342 C390.20361067 135.41481782 376.88089987 134.58606189 364.23660278 129.37752342 C362.86327028 128.64137858 361.50472312 127.87582605 360.17410278 127.06502342 C357.50745071 125.14679263 357.50745071 125.14679263 355.24203491 125.60530663 C353.02143157 126.4603778 351.88191521 127.36330555 350.21218872 129.04549217 C349.37177032 129.88140892 349.37177032 129.88140892 348.51437378 130.73421288 C347.9225531 131.33838036 347.33073242 131.94254784 346.72097778 132.56502342 C345.79723358 133.49157738 345.79723358 133.49157738 344.85482788 134.43684959 C343.55701376 135.74137832 342.26279867 137.04949607 340.97195435 138.36092186 C338.98720187 140.37691491 336.99189548 142.38196055 334.99441528 144.38533592 C333.73597523 145.65294238 332.4781413 146.92115093 331.22097778 148.19002342 C330.62106018 148.7941909 330.02114258 149.39835838 329.40304565 150.02083397 C326.56304644 152.33511959 326.56304644 152.33511959 325.23660278 155.37752342 C368.13660278 155.37752342 411.03660278 155.37752342 455.23660278 155.37752342 C455.23660278 112.47752342 455.23660278 69.57752342 455.23660278 25.37752342 C451.54898949 25.37752342 444.40217072 34.88524249 441.71609497 37.54793358 Z M358.23660278 61.37752342 C351.52318923 70.57791887 348.15892666 79.63041532 349.92410278 91.00252342 C350.90361574 95.80551453 352.52748587 99.31384805 355.23660278 103.37752342 C361.11635328 98.50027906 366.50541095 93.23865464 371.88894653 87.82283592 C373.23914635 86.47051369 373.23914635 86.47051369 374.61662292 85.09087181 C376.98733101 82.71554125 379.35584794 80.33806937 381.72329712 77.95949364 C384.14841007 75.52407625 386.57642363 73.0915543 389.00418091 70.65877342 C393.75097406 65.90099573 398.4948956 61.14036963 403.23660278 56.37752342 C399.09697127 51.92617267 394.65295219 50.60355165 388.72879028 50.04939842 C376.4564603 49.70230222 367.00844879 52.52181656 358.23660278 61.37752342 Z M413.23660278 66.37752342 C397.72660278 81.88752342 382.21660278 97.39752342 366.23660278 113.37752342 C371.73288502 118.87380566 377.06968317 119.6017166 384.61160278 119.81502342 C395.30707251 119.56036938 403.65581485 116.01629062 411.23660278 108.37752342 C418.48296532 98.58639973 420.2824862 89.45498666 419.23660278 77.37752342 C418.30283228 73.80981536 417.15925667 70.53516667 415.23660278 67.37752342 C414.57660278 67.04752342 413.91660278 66.71752342 413.23660278 66.37752342 Z M3.23660278 170.37752342 C3.23660278 216.57752342 3.23660278 262.77752342 3.23660278 310.37752342 C49.76660278 310.37752342 96.29660278 310.37752342 144.23660278 310.37752342 C144.23660278 264.17752342 144.23660278 217.97752342 144.23660278 170.37752342 C97.70660278 170.37752342 51.17660278 170.37752342 3.23660278 170.37752342 Z M159.23660278 170.37752342 C159.23660278 212.94752342 159.23660278 255.51752342 159.23660278 299.37752342 C163.69099468 295.55947323 167.84436675 291.89061954 171.95144653 287.76033592 C172.70235313 287.0073069 172.70235313 287.0073069 173.46842957 286.23906517 C175.03938876 284.66258672 176.60680155 283.0826377 178.17410278 281.50252342 C179.25004005 280.42156069 180.32621009 279.34082959 181.40261841 278.26033592 C184.0166357 275.63539702 186.62748874 273.00733714 189.23660278 270.37752342 C188.03201015 267.32526137 186.77567005 264.4002985 185.23660278 261.50252342 C179.10886695 249.26983145 179.22394348 236.14437053 183.20535278 223.23689842 C188.20979404 210.04951944 197.07245812 200.92313835 209.86160278 195.06502342 C223.71440075 190.03358265 237.55545325 190.71211686 251.08035278 196.27986717 C253.34827951 197.43437335 255.25028338 198.79298227 257.23660278 200.37752342 C261.51546877 198.72385227 264.37666628 195.50772768 267.53347778 192.31111717 C268.12711121 191.71702553 268.72074463 191.12293388 269.33236694 190.51083946 C270.58195595 189.25823625 271.82912052 188.00321035 273.07400513 186.74593163 C274.9883369 184.8132727 276.91062136 182.88880629 278.83425903 180.96541405 C280.04697299 179.74778736 281.25922887 178.52970424 282.47097778 177.31111717 C283.04902161 176.73196053 283.62706543 176.15280388 284.22262573 175.55609703 C286.96993138 173.32727472 286.96993138 173.32727472 288.23660278 170.37752342 C245.66660278 170.37752342 203.09660278 170.37752342 159.23660278 170.37752342 Z M314.23660278 170.37752342 C314.23660278 216.57752342 314.23660278 262.77752342 314.23660278 310.37752342 C360.76660278 310.37752342 407.29660278 310.37752342 455.23660278 310.37752342 C455.23660278 264.17752342 455.23660278 217.97752342 455.23660278 170.37752342 C408.70660278 170.37752342 362.17660278 170.37752342 314.23660278 170.37752342 Z M295.46096802 184.0396328 C294.23647614 185.26428399 293.0147557 186.49170994 291.79519653 187.72127342 C290.831791 188.68680138 290.831791 188.68680138 289.84892273 189.67183495 C287.78830267 191.73807421 285.73117754 193.80775511 283.67410278 195.87752342 C282.28175267 197.27488607 280.88917753 198.67202454 279.49636841 200.06892967 C276.0738254 203.50252715 272.65441396 206.9392161 269.23660278 210.37752342 C270.38566643 213.36508891 271.5943536 216.01224262 273.17410278 218.81502342 C279.16067909 230.78817604 279.37362095 243.86474809 275.61160278 256.50252342 C270.50490186 270.40818025 262.30822476 278.92698609 249.04910278 285.15877342 C236.2808636 290.69167707 222.61639517 290.38854698 209.67410278 285.44002342 C206.4899111 284.11372436 203.93575076 282.52582487 201.23660278 280.37752342 C196.9577368 282.03119458 194.09653929 285.24731916 190.93972778 288.44392967 C190.34609436 289.03802132 189.75246094 289.63211296 189.14083862 290.24420738 C187.89124962 291.49681059 186.64408505 292.75183649 185.39920044 294.00911522 C183.48486867 295.94177414 181.5625842 297.86624055 179.63894653 299.7896328 C178.42623258 301.00725948 177.2139767 302.22534261 176.00222778 303.44392967 C175.42418396 304.02308632 174.84614014 304.60224297 174.25057983 305.19894981 C171.50327419 307.42777213 171.50327419 307.42777213 170.23660278 310.37752342 C212.80660278 310.37752342 255.37660278 310.37752342 299.23660278 310.37752342 C299.23660278 267.80752342 299.23660278 225.23752342 299.23660278 181.37752342 C297.71590418 181.26215784 297.71590418 181.26215784 295.46096802 184.0396328 Z M202.15847778 217.70564842 C195.92376881 226.03605789 193.01361045 234.9659966 194.23660278 245.37752342 C195.29970272 250.16828788 196.50424097 254.2789807 199.23660278 258.37752342 C202.76899302 256.87067375 205.03281938 254.8238573 207.72976685 252.11141014 C208.61037781 251.23064812 209.49098877 250.34988609 210.39828491 249.44243431 C211.34970709 248.48079991 212.30101881 247.51905622 213.25222778 246.55721092 C214.23256408 245.57314235 215.21334446 244.58951601 216.19454956 243.60631371 C218.77014745 241.02309628 221.33968136 238.4339283 223.9079895 235.84346581 C226.53211345 233.19884723 229.16194049 230.55991332 231.79129028 227.92049217 C236.94531949 222.7450427 242.09295435 217.5632922 247.23660278 212.37752342 C246.74160278 210.89252342 246.74160278 210.89252342 246.23660278 209.37752342 C230.91391008 201.71617707 213.65598548 204.8249819 202.15847778 217.70564842 Z M255.24975586 224.12386131 C254.43701202 224.94104637 253.62426819 225.75823143 252.78689575 226.60017967 C251.86609222 227.52113426 250.9452887 228.44208885 249.99658203 229.39095116 C248.99054475 230.40720297 247.98461676 231.42356297 246.97879028 232.44002342 C245.95075329 233.47178932 244.92227473 234.50311542 243.89337158 235.53401756 C241.18295173 238.25208357 238.47859054 240.97610168 235.77542114 243.70137596 C233.01739761 246.47983679 230.25372281 249.25266352 227.49050903 252.02596092 C222.06697353 257.47096365 216.64982223 262.9222627 211.23660278 268.37752342 C211.56660278 269.36752342 211.89660278 270.35752342 212.23660278 271.37752342 C221.5907812 275.98526535 230.40763164 276.70368314 240.29910278 273.81502342 C250.88793733 269.9052999 257.14013636 263.3677559 262.23660278 253.37752342 C265.9829144 244.24588885 264.82052413 234.3373268 261.23660278 225.37752342 C260.57660278 224.38752342 259.91660278 223.39752342 259.23660278 222.37752342 C257.04609889 222.1574624 257.04609889 222.1574624 255.24975586 224.12386131 Z M3.23660278 325.37752342 C3.23660278 368.27752342 3.23660278 411.17752342 3.23660278 455.37752342 C9.26810101 450.2076678 15.00547515 444.89383131 20.64627075 439.31795311 C21.71557007 438.26539751 22.79022891 437.2182618 23.86990356 436.17635155 C25.44179637 434.65892324 26.99686626 433.12595902 28.54910278 431.58846092 C29.4733606 430.68402245 30.39761841 429.77958397 31.34988403 428.84773827 C33.48906761 426.60675884 33.48906761 426.60675884 33.09963989 424.20906639 C32.81483765 423.60465721 32.5300354 423.00024803 32.23660278 422.37752342 C31.68166138 421.13228905 31.68166138 421.13228905 31.11550903 419.86189842 C30.68109497 418.95955467 30.24668091 418.05721092 29.79910278 417.12752342 C23.90247805 404.17539973 23.51750867 391.2935807 27.91629028 377.66658592 C33.10374122 364.74400105 41.81157358 356.36530424 54.34207153 350.56502342 C67.28792753 345.25390301 81.39343933 346.08706636 94.23660278 351.37752342 C95.60993529 352.11366826 96.96848244 352.87922079 98.29910278 353.69002342 C100.96575486 355.60825421 100.96575486 355.60825421 103.23117065 355.14974022 C105.45177399 354.29466905 106.59129035 353.3917413 108.26101685 351.70955467 C108.82129578 351.15227684 109.38157471 350.59499901 109.95883179 350.02083397 C110.55065247 349.41666649 111.14247314 348.81249901 111.75222778 348.19002342 C112.67597198 347.26346947 112.67597198 347.26346947 113.61837769 346.31819725 C114.9161918 345.01366853 116.2104069 343.70555078 117.50125122 342.39412498 C119.4860037 340.37813194 121.48131008 338.37308629 123.47879028 336.36971092 C124.73723033 335.10210446 125.99506427 333.83389591 127.25222778 332.56502342 C128.15210419 331.6587722 128.15210419 331.6587722 129.07015991 330.73421288 C131.91015913 328.41992726 131.91015913 328.41992726 133.23660278 325.37752342 C90.33660278 325.37752342 47.43660278 325.37752342 3.23660278 325.37752342 Z M159.23660278 325.37752342 C159.23660278 371.90752342 159.23660278 418.43752342 159.23660278 466.37752342 C205.43660278 466.37752342 251.63660278 466.37752342 299.23660278 466.37752342 C299.23660278 419.84752342 299.23660278 373.31752342 299.23660278 325.37752342 C253.03660278 325.37752342 206.83660278 325.37752342 159.23660278 325.37752342 Z M314.23660278 325.37752342 C314.23660278 371.90752342 314.23660278 418.43752342 314.23660278 466.37752342 C360.76660278 466.37752342 407.29660278 466.37752342 455.23660278 466.37752342 C455.23660278 419.84752342 455.23660278 373.31752342 455.23660278 325.37752342 C408.70660278 325.37752342 362.17660278 325.37752342 314.23660278 325.37752342 Z M130.71609497 348.54793358 C129.31485852 349.93258927 127.90827526 351.31185525 126.49636841 352.68562889 C124.4679206 354.65952303 122.4562208 356.6491661 120.44754028 358.64314842 C119.49299454 359.56369011 119.49299454 359.56369011 118.51916504 360.5028286 C117.65299057 361.37327812 117.65299057 361.37327812 116.76931763 362.26131248 C116.25493134 362.76761192 115.74054504 363.27391136 115.21057129 363.79555321 C114.01607408 365.36234946 114.01607408 365.36234946 114.50823975 367.41506004 C115.42809779 369.89347759 116.5273332 372.24550945 117.67410278 374.62752342 C123.10985399 386.56732377 124.25416799 399.14251669 120.20925903 411.82283592 C114.91402641 425.73079631 107.04474125 434.25297501 93.51785278 440.66658592 C81.13469409 445.85110116 67.87630186 445.80131909 55.23660278 441.37752342 C53.25728344 440.38413408 51.30032708 439.34482063 49.36941528 438.26033592 C48.40149048 437.72037987 47.43356567 437.18042381 46.43630981 436.62410545 C45.71040649 436.21273338 44.98450317 435.80136131 44.23660278 435.37752342 C39.96097925 439.62850905 35.68858876 443.88270719 31.41921997 448.13997459 C29.96503675 449.58911535 28.50995917 451.0373592 27.0539856 452.48470116 C24.96668956 454.55992779 22.88258486 456.63831233 20.79910278 458.71736717 C20.1428894 459.36841927 19.48667603 460.01947136 18.81057739 460.6902523 C17.26682388 462.23381168 15.74877607 463.8030132 14.23660278 465.37752342 C14.23660278 465.70752342 14.23660278 466.03752342 14.23660278 466.37752342 C57.13660278 466.37752342 100.03660278 466.37752342 144.23660278 466.37752342 C144.23660278 423.47752342 144.23660278 380.57752342 144.23660278 336.37752342 C140.54898949 336.37752342 133.40217072 345.88524249 130.71609497 348.54793358 Z M47.23660278 372.37752342 C39.99882524 382.15704726 38.16780037 391.30999854 39.23660278 403.37752342 C40.23126026 406.91936895 41.52279792 410.12588473 43.23660278 413.37752342 C46.3077508 413.69658152 46.3077508 413.69658152 48.34370422 411.63118553 C49.15422745 410.81400047 49.96475067 409.99681541 50.79983521 409.15486717 C51.7205632 408.23391258 52.6412912 407.31295799 53.58992004 406.36409569 C54.59079806 405.34789667 55.59151135 404.33153538 56.59207153 403.31502342 C57.61846022 402.28304021 58.64551278 401.25171687 59.67320251 400.22102928 C62.3776293 397.50514246 65.07292709 394.78036741 67.76644897 392.05367088 C70.51603792 389.27340608 73.27412811 386.50160366 76.03152466 383.72908592 C81.44159405 378.28683195 86.84205132 372.83516431 92.23660278 367.37752342 C88.09697127 362.92617267 83.65295219 361.60355165 77.72879028 361.04939842 C65.44725612 360.7020419 56.02000407 363.52694507 47.23660278 372.37752342 Z M100.33204651 379.16182518 C99.49931717 379.99677513 98.66658783 380.83172508 97.80862427 381.69197655 C97.35006042 382.15039436 96.89149658 382.60881218 96.41903687 383.08112144 C94.89620941 384.6046484 93.37695942 386.13169251 91.85769653 387.65877342 C90.80559172 388.71274228 89.75326665 389.76649132 88.70072937 390.82002831 C85.92511721 393.59946668 83.15252051 396.38189456 80.38052368 399.16493797 C77.55375275 402.00192079 74.72416442 404.83609039 71.89480591 407.67049217 C66.33929712 413.23674012 60.78696816 418.80614675 55.23660278 424.37752342 C59.37623429 428.82887417 63.82025337 430.15149519 69.74441528 430.70564842 C81.19573273 431.02952407 89.32577031 428.7344475 98.19363403 421.43611717 C105.21496822 414.36108254 108.63625134 405.506749 108.67410278 395.62752342 C108.67796997 394.92885155 108.68183716 394.23017967 108.68582153 393.51033592 C108.54784933 387.27859133 106.72786719 382.56454482 103.23660278 377.37752342 C101.92326415 377.2635747 101.92326415 377.2635747 100.33204651 379.16182518 Z " fill="#000000" transform="translate(120.76339721679688,59.62247657775879)"/>
<path d="M0 0 C1.67609187 1.58880874 3.29700117 3.21924035 4.9078064 4.87420654 C5.50002487 5.47066986 6.09224335 6.06713318 6.70240784 6.68167114 C8.58404868 8.58004507 10.45496337 10.48860337 12.32577515 12.39764404 C13.60307515 13.68999777 14.88106262 14.98167243 16.15975952 16.27264404 C19.28561679 19.43149933 22.40189849 22.59952744 25.51327515 25.77264404 C28.70999577 24.39264608 30.51932117 22.88270249 32.7203064 20.20233154 C36.66695257 15.54299413 40.88654147 11.21566546 45.20077515 6.89764404 C45.9464978 6.13967529 46.69222046 5.38170654 47.46054077 4.60076904 C48.54432007 3.51408936 48.54432007 3.51408936 49.6499939 2.40545654 C50.62005371 1.4292334 50.62005371 1.4292334 51.60971069 0.43328857 C54.63248446 -2.20373941 56.53062436 -3.26746415 60.57577515 -3.10235596 C63.51327515 -2.22735596 63.51327515 -2.22735596 65.38827515 -0.53985596 C66.84997166 2.46474244 66.80851356 4.45433059 66.51327515 7.77264404 C65.2124939 9.87811279 65.2124939 9.87811279 63.20077515 11.96014404 C62.4015564 12.79674561 61.60233765 13.63334717 60.77890015 14.49530029 C59.69216854 15.58954882 58.60332388 16.68169987 57.51327515 17.77264404 C56.75723999 18.53560791 56.00120483 19.29857178 55.22225952 20.08465576 C49.6799301 25.67498457 44.10729139 31.23406476 38.51327515 36.77264404 C40.13113154 40.95158585 43.2162051 43.62591975 46.39608765 46.63983154 C47.5750492 47.78376932 48.75341679 48.9283195 49.9312439 50.07342529 C51.78605951 51.86626616 53.64501035 53.65404626 55.51473999 55.43133545 C57.32213724 57.15400351 59.11003827 58.89507629 60.89608765 60.63983154 C61.73975388 61.42763504 61.73975388 61.42763504 62.60046387 62.23135376 C65.22333794 64.81898009 66.45260313 66.30632021 66.93466187 70.01141357 C66.44283478 73.23422024 65.94022865 74.58838589 63.51327515 76.77264404 C60.70077515 77.77264404 60.70077515 77.77264404 57.51327515 77.77264404 C52.97476674 75.13475819 49.32857608 71.8595529 45.67733765 68.13201904 C45.15312225 67.60497375 44.62890686 67.07792847 44.08880615 66.53491211 C42.43382681 64.86883714 40.78598225 63.19590821 39.13827515 61.52264404 C38.00983534 60.3841607 36.88093334 59.24613526 35.7515564 58.10858154 C33.00009306 55.33519892 30.25500131 52.5556517 27.51327515 49.77264404 C23.55152868 51.35478329 20.99635885 54.11487609 18.1187439 57.14764404 C17.07035734 58.22619844 16.0215148 59.30430976 14.97225952 60.38201904 C13.33450347 62.07545439 11.70096148 63.77244856 10.07553101 65.47772217 C8.49710619 67.12910039 6.90305752 68.76406678 5.3062439 70.39764404 C4.82995041 70.90601807 4.35365692 71.41439209 3.8629303 71.93817139 C0.38712675 75.46482573 -2.62474407 76.91395291 -7.48672485 77.77264404 C-10.47974415 76.47133131 -12.01913979 75.70781417 -13.48672485 72.77264404 C-13.97491886 69.80654425 -14.12479712 67.71757795 -12.39590454 65.15722656 C-10.78516328 63.37604177 -9.10331353 61.7152364 -7.36172485 60.06170654 C-6.7402356 59.44870697 -6.11874634 58.8357074 -5.47842407 58.20413208 C-3.4948501 56.2540804 -1.49142748 54.32594501 0.51327515 52.39764404 C1.86359711 51.07742274 3.21257265 49.75582281 4.56015015 48.43280029 C7.86246175 45.19655772 11.18272976 41.97981246 14.51327515 38.77264404 C12.89776068 34.68974308 9.96687819 31.98830568 6.8843689 28.98358154 C6.33466934 28.43908356 5.78496979 27.89458557 5.21861267 27.33358765 C3.46736338 25.60010625 1.70955826 23.87347853 -0.04922485 22.14764404 C-1.81068297 20.41380252 -3.57066108 18.67852222 -5.32777405 16.9402771 C-6.42013991 15.86017037 -7.51516781 14.78274801 -8.61308289 13.70828247 C-13.37958072 9.00480154 -13.37958072 9.00480154 -13.73672485 4.89764404 C-13.45841684 1.41879387 -12.9751023 0.17215087 -10.48672485 -2.22735596 C-6.53857582 -4.06982551 -3.26267143 -2.69347701 0 0 Z " fill="#000000" transform="translate(323.4867248535156,107.22735595703125)"/>
<path d="M0 0 C2.49717844 1.8236266 4.57633694 3.9933238 6.7109375 6.22265625 C7.32393707 6.84273056 7.93693665 7.46280487 8.56851196 8.10166931 C10.51609547 10.07715271 12.44553687 12.06933044 14.375 14.0625 C15.69545333 15.40804162 17.01705593 16.75245645 18.33984375 18.09570312 C21.57335762 21.3842281 24.79071486 24.68783286 28 28 C32.3141732 24.39605689 36.3913456 20.70093687 40.28515625 16.63671875 C41.23703332 15.65762248 42.18952509 14.6791235 43.14257812 13.70117188 C44.61209548 12.18826666 46.07729515 10.6719775 47.5324707 9.14526367 C48.95938206 7.65161852 50.40182892 6.17453063 51.84765625 4.69921875 C53.1162146 3.38183716 53.1162146 3.38183716 54.41040039 2.0378418 C57.37930945 -0.29849118 59.26271108 -0.78343471 63 -1 C65.63550724 -0.19470612 66.66507222 0.55342962 68.3125 2.75 C69.29551561 5.967142 68.92466532 7.74659282 68 11 C66.1763734 13.49717844 64.0066762 15.57633694 61.77734375 17.7109375 C61.15726944 18.32393707 60.53719513 18.93693665 59.89833069 19.56851196 C57.92284729 21.51609547 55.93066956 23.44553687 53.9375 25.375 C52.59195838 26.69545333 51.24754355 28.01705593 49.90429688 29.33984375 C46.6157719 32.57335762 43.31216714 35.79071486 40 39 C43.60934718 43.31667318 47.31013664 47.40792517 51.36328125 51.3203125 C52.34222588 52.27690491 53.32072926 53.23394907 54.29882812 54.19140625 C55.81300631 55.6683283 57.33002927 57.14185496 58.85473633 58.60791016 C60.34592958 60.04461429 61.82409689 61.49371961 63.30078125 62.9453125 C64.17903564 63.79625488 65.05729004 64.64719727 65.9621582 65.52392578 C68.13605736 68.16531613 68.76551468 69.62327115 69 73 C68.24657348 75.94521275 67.65264804 77.48720511 65.25 79.375 C62.04246473 80.26598202 60.2235035 79.9123259 57 79 C54.50265704 77.1766309 52.42364357 75.00665585 50.2890625 72.77734375 C49.67606293 72.15726944 49.06306335 71.53719513 48.43148804 70.89833069 C46.48390453 68.92284729 44.55446313 66.93066956 42.625 64.9375 C41.30454667 63.59195838 39.98294407 62.24754355 38.66015625 60.90429688 C35.42664238 57.6157719 32.20928514 54.31216714 29 51 C24.68332682 54.60934718 20.59207483 58.31013664 16.6796875 62.36328125 C15.72309509 63.34222588 14.76605093 64.32072926 13.80859375 65.29882812 C12.3316717 66.81300631 10.85814504 68.33002927 9.39208984 69.85473633 C7.95538571 71.34592958 6.50628039 72.82409689 5.0546875 74.30078125 C4.20374512 75.17903564 3.35280273 76.05729004 2.47607422 76.9621582 C-0.16531613 79.13605736 -1.62327115 79.76551468 -5 80 C-7.94521275 79.24657348 -9.48720511 78.65264804 -11.375 76.25 C-12.26598202 73.04246473 -11.9123259 71.2235035 -11 68 C-9.1766309 65.50265704 -7.00665585 63.42364357 -4.77734375 61.2890625 C-4.15726944 60.67606293 -3.53719513 60.06306335 -2.89833069 59.43148804 C-0.92284729 57.48390453 1.06933044 55.55446313 3.0625 53.625 C4.40804162 52.30454667 5.75245645 50.98294407 7.09570312 49.66015625 C10.3842281 46.42664238 13.68783286 43.20928514 17 40 C13.39605689 35.6858268 9.70093687 31.6086544 5.63671875 27.71484375 C4.65762248 26.76296668 3.6791235 25.81047491 2.70117188 24.85742188 C1.18826666 23.38790452 -0.3280225 21.92270485 -1.85473633 20.4675293 C-3.34838148 19.04061794 -4.82546937 17.59817108 -6.30078125 16.15234375 C-7.17903564 15.30663818 -8.05729004 14.46093262 -8.9621582 13.58959961 C-11.29849118 10.62069055 -11.78343471 8.73728892 -12 5 C-11.19470612 2.36449276 -10.44657038 1.33492778 -8.25 -0.3125 C-5.032858 -1.29551561 -3.25340718 -0.92466532 0 0 Z " fill="#000000" transform="translate(166,105)"/>
<path d="M0 0 C2.4948399 1.82712085 4.57614833 3.99312682 6.7109375 6.22265625 C7.32393707 6.84273056 7.93693665 7.46280487 8.56851196 8.10166931 C10.51609547 10.07715271 12.44553687 12.06933044 14.375 14.0625 C15.69545333 15.40804162 17.01705593 16.75245645 18.33984375 18.09570312 C21.57335762 21.3842281 24.79071486 24.68783286 28 28 C32.3141732 24.39605689 36.3913456 20.70093687 40.28515625 16.63671875 C41.23703332 15.65762248 42.18952509 14.6791235 43.14257812 13.70117188 C44.61209548 12.18826666 46.07729515 10.6719775 47.5324707 9.14526367 C48.95938206 7.65161852 50.40182892 6.17453063 51.84765625 4.69921875 C53.1162146 3.38183716 53.1162146 3.38183716 54.41040039 2.0378418 C57.38065511 -0.29955013 59.25910513 -0.79388028 63 -1 C65.74954328 -0.03394425 66.69007757 0.38015514 68 3 C68.80493691 9.67603372 68.80493691 9.67603372 66.90917969 12.79418945 C65.31509809 14.6089698 63.64151405 16.25882809 61.875 17.90625 C61.25351074 18.51641968 60.63202148 19.12658936 59.99169922 19.75524902 C58.01251697 21.68983383 56.00732602 23.59467616 54 25.5 C52.64922352 26.81062876 51.30024281 28.123111 49.953125 29.4375 C46.65582811 32.64683862 43.33492271 35.82979612 40 39 C43.59865471 43.32050832 47.28883376 47.36446116 51.3984375 51.21484375 C52.38253931 52.15712975 53.36558293 53.10052193 54.34765625 54.04492188 C55.86578143 55.50120846 57.38859671 56.95012552 58.93017578 58.3815918 C67.53554136 66.39719427 67.53554136 66.39719427 68.69628906 70.40283203 C68.73568786 73.21857499 68.26004617 75.47990766 67 78 C63.72848201 79.63575899 60.52181475 79.67663845 57 79 C54.2822446 77.34767572 52.25393415 75.19134388 50.09375 72.875 C49.48358032 72.25351074 48.87341064 71.63202148 48.24475098 70.99169922 C46.31016617 69.01251697 44.40532384 67.00732602 42.5 65 C41.18937124 63.64922352 39.876889 62.30024281 38.5625 60.953125 C35.35316138 57.65582811 32.17020388 54.33492271 29 51 C24.67949168 54.59865471 20.63553884 58.28883376 16.78515625 62.3984375 C15.84287025 63.38253931 14.89947807 64.36558293 13.95507812 65.34765625 C12.49879154 66.86578143 11.04987448 68.38859671 9.6184082 69.93017578 C1.60600726 78.53210427 1.60600726 78.53210427 -2.4050293 79.70068359 C-5.26106188 79.74512293 -7.45943682 79.31387539 -9.9375 77.875 C-11.59779265 74.94507179 -12.1296177 73.43486912 -12 70 C-7.03671726 62.74139806 0.19812111 56.68591291 6.4375 50.5 C7.4657298 49.47679861 8.49372626 48.45336267 9.52148438 47.4296875 C12.01164338 44.95042001 14.50492833 42.47432462 17 40 C13.4430474 35.63712799 9.68902405 31.65995922 5.63671875 27.75 C4.91610764 27.05185181 4.91610764 27.05185181 4.18093872 26.33959961 C2.17714023 24.39865615 0.17312944 22.4587995 -1.85473633 20.54296875 C-3.35086311 19.12586191 -4.82681436 17.69009686 -6.30078125 16.25 C-7.17903564 15.40953125 -8.05729004 14.5690625 -8.9621582 13.703125 C-11.451091 10.40164376 -11.84189257 8.09573538 -12 4 C-9.22007786 -1.28185207 -5.42749972 -1.59774637 0 0 Z " fill="#000000" transform="translate(477,416)"/>
</svg>
