<?xml version="1.0" encoding="UTF-8"?>
<svg version="1.1" xmlns="http://www.w3.org/2000/svg" width="736" height="471">
<path d="M0 0 C242.88 0 485.76 0 736 0 C736 155.43 736 310.86 736 471 C493.12 471 250.24 471 0 471 C0 315.57 0 160.14 0 0 Z " fill="#F6F6F6" transform="translate(0,0)"/>
<path d="M0 0 C66 0 132 0 200 0 C200 11.22 200 22.44 200 34 C210.89 34 221.78 34 233 34 C233 44.89 233 55.78 233 67 C243.89 67 254.78 67 266 67 C266 77.89 266 88.78 266 100 C277.22 100 288.44 100 300 100 C300 133 300 166 300 200 C310.89 200 321.78 200 333 200 C333 210.89 333 221.78 333 233 C343.89 233 354.78 233 366 233 C366 244.22 366 255.44 366 267 C355.11 267 344.22 267 333 267 C333 299.67 333 332.34 333 366 C278.22 366 223.44 366 167 366 C167 376.89 167 387.78 167 399 C134 399 101 399 67 399 C67 388.11 67 377.22 67 366 C44.89 366 22.78 366 0 366 C0 355.11 0 344.22 0 333 C-10.89 333 -21.78 333 -33 333 C-33 322.11 -33 311.22 -33 300 C-37.49065063 300.00785522 -37.49065063 300.00785522 -42.07202148 300.01586914 C-51.93873714 300.03240325 -61.8054534 300.0434705 -71.67217922 300.05181217 C-77.65719266 300.05704151 -83.64219196 300.06414008 -89.62719727 300.07543945 C-95.39783429 300.08626653 -101.16845768 300.09227645 -106.93910408 300.09487724 C-109.14602943 300.09673182 -111.352954 300.10035304 -113.55987358 300.10573006 C-116.63946041 300.1129381 -119.71899014 300.11399104 -122.79858398 300.11352539 C-123.72071182 300.11712067 -124.64283966 300.12071594 -125.59291077 300.12442017 C-131.88594784 300.11405216 -131.88594784 300.11405216 -133 299 C-133.08838648 296.62458949 -133.11537523 294.2776642 -133.09765625 291.90234375 C-133.09515869 290.60546631 -133.09266113 289.30858887 -133.09008789 287.97241211 C-133.08098389 286.31089111 -133.07187988 284.64937012 -133.0625 282.9375 C-133.041875 277.678125 -133.02125 272.41875 -133 267 C-143.89 267 -154.78 267 -166 267 C-166 255.78 -166 244.56 -166 233 C-176.89 233 -187.78 233 -199 233 C-199 200 -199 167 -199 133 C-188.11 133 -177.22 133 -166 133 C-166 122.11 -166 111.22 -166 100 C-143.89 100 -121.78 100 -99 100 C-99 89.11 -99 78.22 -99 67 C-88.11 67 -77.22 67 -66 67 C-66 56.11 -66 45.22 -66 34 C-44.22 34 -22.44 34 0 34 C0 22.78 0 11.56 0 0 Z " fill="#FCE93E" transform="translate(285,36)"/>
<path d="M0 0 C10.89 0 21.78 0 33 0 C33 10.89 33 21.78 33 33 C55.11 33 77.22 33 100 33 C100 43.89 100 54.78 100 66 C110.89 66 121.78 66 133 66 C133 77.22 133 88.44 133 100 C143.89 100 154.78 100 166 100 C166 121.78 166 143.56 166 166 C155.11 166 144.22 166 133 166 C133 177.22 133 188.44 133 200 C122.11 200 111.22 200 100 200 C100 221.78 100 243.56 100 266 C121.78 266 143.56 266 166 266 C166 276.89 166 287.78 166 299 C143.89 299 121.78 299 99 299 C99 288.11 99 277.22 99 266 C88.11 266 77.22 266 66 266 C66 255.11 66 244.22 66 233 C61.50934937 233.00785522 61.50934937 233.00785522 56.92797852 233.01586914 C47.06126286 233.03240325 37.1945466 233.0434705 27.32782078 233.05181217 C21.34280734 233.05704151 15.35780804 233.06414008 9.37280273 233.07543945 C3.60216571 233.08626653 -2.16845768 233.09227645 -7.93910408 233.09487724 C-10.14602943 233.09673182 -12.352954 233.10035304 -14.55987358 233.10573006 C-17.63946041 233.1129381 -20.71899014 233.11399104 -23.79858398 233.11352539 C-24.72071182 233.11712067 -25.64283966 233.12071594 -26.59291077 233.12442017 C-32.88594784 233.11405216 -32.88594784 233.11405216 -34 232 C-34.08838648 229.62458949 -34.11537523 227.2776642 -34.09765625 224.90234375 C-34.09515869 223.60546631 -34.09266113 222.30858887 -34.09008789 220.97241211 C-34.08098389 219.31089111 -34.07187988 217.64937012 -34.0625 215.9375 C-34.041875 210.678125 -34.02125 205.41875 -34 200 C-44.89 200 -55.78 200 -67 200 C-67 188.78 -67 177.56 -67 166 C-77.89 166 -88.78 166 -100 166 C-100 133 -100 100 -100 66 C-89.11 66 -78.22 66 -67 66 C-67 55.11 -67 44.22 -67 33 C-44.89 33 -22.78 33 0 33 C0 22.11 0 11.22 0 0 Z " fill="#6D6841" transform="translate(186,103)"/>
<path d="M0 0 C10.89 0 21.78 0 33 0 C33 32.67 33 65.34 33 99 C44.22 99 55.44 99 67 99 C67 109.89 67 120.78 67 132 C77.89 132 88.78 132 100 132 C100 143.22 100 154.44 100 166 C89.11 166 78.22 166 67 166 C67 198.67 67 231.34 67 265 C12.22 265 -42.56 265 -99 265 C-99 275.89 -99 286.78 -99 298 C-132 298 -165 298 -199 298 C-199 287.11 -199 276.22 -199 265 C-166.33 265 -133.66 265 -100 265 C-100 254.11 -100 243.22 -100 232 C-110.89 232 -121.78 232 -133 232 C-133 221.11 -133 210.22 -133 199 C-143.89 199 -154.78 199 -166 199 C-166 187.78 -166 176.56 -166 165 C-155.11 165 -144.22 165 -133 165 C-133 154.11 -133 143.22 -133 132 C-122.11 132 -111.22 132 -100 132 C-100 121.11 -100 110.22 -100 99 C-110.89 99 -121.78 99 -133 99 C-133 88.11 -133 77.22 -133 66 C-121.78 66 -110.56 66 -99 66 C-99 76.89 -99 87.78 -99 99 C-66.33 99 -33.66 99 0 99 C0 66.33 0 33.66 0 0 Z " fill="#794226" transform="translate(551,137)"/>
<path d="M0 0 C54.45 0 108.9 0 165 0 C165 10.89 165 21.78 165 33 C175.89 33 186.78 33 198 33 C198 54.78 198 76.56 198 99 C187.11 99 176.22 99 165 99 C165 109.89 165 120.78 165 132 C121.44 132 77.88 132 33 132 C33 121.11 33 110.22 33 99 C22.11 99 11.22 99 0 99 C0 66.33 0 33.66 0 0 Z " fill="#F6F6F6" transform="translate(120,170)"/>
<path d="M0 0 C22.11 0 44.22 0 67 0 C67 10.89 67 21.78 67 33 C77.89 33 88.78 33 100 33 C100 43.89 100 54.78 100 66 C111.22 66 122.44 66 134 66 C134 99 134 132 134 166 C133.67 166 133.34 166 133 166 C133 133.33 133 100.66 133 67 C122.11 67 111.22 67 100 67 C100 99.67 100 132.34 100 166 C67.33 166 34.66 166 1 166 C1 155.11 1 144.22 1 133 C-10.22 133 -21.44 133 -33 133 C-33 100 -33 67 -33 33 C-22.11 33 -11.22 33 0 33 C0 22.11 0 11.22 0 0 Z " fill="#F3F3F3" transform="translate(451,70)"/>
<path d="M0 0 C54.45 0 108.9 0 165 0 C165 32.67 165 65.34 165 99 C110.55 99 56.1 99 0 99 C0 88.11 0 77.22 0 66 C43.56 66 87.12 66 132 66 C132 54.78 132 43.56 132 32 C88.44 32 44.88 32 0 32 C0 21.44 0 10.88 0 0 Z " fill="#020000" transform="translate(452,303)"/>
<path d="M0 0 C10.89 0 21.78 0 33 0 C33 32.67 33 65.34 33 99 C43.89 99 54.78 99 66 99 C66 109.89 66 120.78 66 132 C11.55 132 -42.9 132 -99 132 C-99 121.11 -99 110.22 -99 99 C-66.33 99 -33.66 99 0 99 C0 66.33 0 33.66 0 0 Z " fill="#010000" transform="translate(551,137)"/>
<path d="M0 0 C65.67 0 131.34 0 199 0 C199 10.89 199 21.78 199 33 C187.78 33 176.56 33 165 33 C165 43.89 165 54.78 165 66 C154.11 66 143.22 66 132 66 C132 55.11 132 44.22 132 33 C88.44 33 44.88 33 0 33 C0 22.11 0 11.22 0 0 Z " fill="#010100" transform="translate(286,37)"/>
<path d="M0 0 C10.89 0 21.78 0 33 0 C33 11.22 33 22.44 33 34 C54.78 34 76.56 34 99 34 C99 44.56 99 55.12 99 66 C44.55 66 -9.9 66 -66 66 C-66 55.44 -66 44.88 -66 34 C-44.22 34 -22.44 34 0 34 C0 22.78 0 11.56 0 0 Z " fill="#010000" transform="translate(186,103)"/>
<path d="M0 0 C43.56 0 87.12 0 132 0 C132 21.45 132 42.9 132 65 C121.44 65 110.88 65 100 65 C100 54.44 100 43.88 100 33 C67 33 34 33 0 33 C0 22.11 0 11.22 0 0 Z " fill="#030202" transform="translate(153,303)"/>
<path d="M0 0 C54.45 0 108.9 0 165 0 C165 10.56 165 21.12 165 32 C110.55 32 56.1 32 0 32 C0 21.44 0 10.88 0 0 Z " fill="#FC5521" transform="translate(452,270)"/>
<path d="M0 0 C43.56 0 87.12 0 132 0 C132 10.89 132 21.78 132 33 C88.44 33 44.88 33 0 33 C0 22.11 0 11.22 0 0 Z " fill="#FCEA41" transform="translate(153,269)"/>
<path d="M0 0 C43.56 0 87.12 0 132 0 C132 10.56 132 21.12 132 32 C88.44 32 44.88 32 0 32 C0 21.44 0 10.88 0 0 Z " fill="#FB5723" transform="translate(452,336)"/>
<path d="M0 0 C10.89 0 21.78 0 33 0 C33 33 33 66 33 100 C22.11 100 11.22 100 0 100 C0 67 0 34 0 0 Z " fill="#030201" transform="translate(385,103)"/>
<path d="M0 0 C32.67 0 65.34 0 99 0 C99 10.89 99 21.78 99 33 C66.33 33 33.66 33 0 33 C0 22.11 0 11.22 0 0 Z " fill="#010001" transform="translate(352,402)"/>
<path d="M0 0 C10.89 0 21.78 0 33 0 C33 32.67 33 65.34 33 99 C22.11 99 11.22 99 0 99 C0 66.33 0 33.66 0 0 Z " fill="#010101" transform="translate(86,170)"/>
<path d="M0 0 C10.89 0 21.78 0 33 0 C33 22.11 33 44.22 33 67 C22.11 67 11.22 67 0 67 C0 44.89 0 22.78 0 0 Z " fill="#030303" transform="translate(485,136)"/>
<path d="M0 0 C21.78 0 43.56 0 66 0 C66 10.89 66 21.78 66 33 C44.22 33 22.44 33 0 33 C0 22.11 0 11.22 0 0 Z " fill="#020201" transform="translate(286,369)"/>
<path d="M0 0 C10.89 0 21.78 0 33 0 C33 21.78 33 43.56 33 66 C22.11 66 11.22 66 0 66 C0 44.22 0 22.44 0 0 Z " fill="#020200" transform="translate(319,203)"/>
<path d="M0 0 C21.78 0 43.56 0 66 0 C66 10.89 66 21.78 66 33 C44.22 33 22.44 33 0 33 C0 22.11 0 11.22 0 0 Z " fill="#010001" transform="translate(219,70)"/>
<path d="M0 0 C10.89 0 21.78 0 33 0 C33 10.89 33 21.78 33 33 C22.11 33 11.22 33 0 33 C0 22.11 0 11.22 0 0 Z " fill="#FCE940" transform="translate(285,236)"/>
<path d="M0 0 C10.89 0 21.78 0 33 0 C33 10.89 33 21.78 33 33 C22.11 33 11.22 33 0 33 C0 22.11 0 11.22 0 0 Z " fill="#040301" transform="translate(418,203)"/>
<path d="M0 0 C10.89 0 21.78 0 33 0 C33 10.89 33 21.78 33 33 C22.11 33 11.22 33 0 33 C0 22.11 0 11.22 0 0 Z " fill="#010101" transform="translate(518,103)"/>
<path d="M0 0 C10.89 0 21.78 0 33 0 C33 10.89 33 21.78 33 33 C22.11 33 11.22 33 0 33 C0 22.11 0 11.22 0 0 Z " fill="#010101" transform="translate(485,70)"/>
<path d="M0 0 C10.56 0 21.12 0 32 0 C33.48679725 2.97359449 33.11112605 5.66299179 33.09765625 8.9765625 C33.09515869 10.23033691 33.09266113 11.48411133 33.09008789 12.77587891 C33.08098389 14.37608887 33.07187988 15.97629883 33.0625 17.625 C33.041875 22.69875 33.02125 27.7725 33 33 C22.11 33 11.22 33 0 33 C0 22.11 0 11.22 0 0 Z " fill="#FBEA45" transform="translate(120,236)"/>
<path d="M0 0 C10.89 0 21.78 0 33 0 C33 10.56 33 21.12 33 32 C22.11 32 11.22 32 0 32 C0 21.44 0 10.88 0 0 Z " fill="#030100" transform="translate(385,303)"/>
<path d="M0 0 C10.56 0 21.12 0 32 0 C32 10.89 32 21.78 32 33 C21.44 33 10.88 33 0 33 C0 22.11 0 11.22 0 0 Z " fill="#050101" transform="translate(419,269)"/>
<path d="M0 0 C10.56 0 21.12 0 32 0 C32 10.89 32 21.78 32 33 C21.44 33 10.88 33 0 33 C0 22.11 0 11.22 0 0 Z " fill="#030201" transform="translate(286,269)"/>
<path d="M0 0 C10.56 0 21.12 0 32 0 C32 10.89 32 21.78 32 33 C21.44 33 10.88 33 0 33 C0 22.11 0 11.22 0 0 Z " fill="#000001" transform="translate(120,269)"/>
<path d="M0 0 C10.56 0 21.12 0 32 0 C32 10.56 32 21.12 32 32 C21.44 32 10.88 32 0 32 C0 21.44 0 10.88 0 0 Z " fill="#030000" transform="translate(419,336)"/>
<path d="M0 0 C10.56 0 21.12 0 32 0 C32 10.56 32 21.12 32 32 C21.44 32 10.88 32 0 32 C0 21.44 0 10.88 0 0 Z " fill="#F85825" transform="translate(419,303)"/>
<path d="M0 0 C10.56 0 21.12 0 32 0 C32 10.56 32 21.12 32 32 C21.44 32 10.88 32 0 32 C0 21.44 0 10.88 0 0 Z " fill="#010000" transform="translate(618,270)"/>
<path d="M0 0 C10.56 0 21.12 0 32 0 C32 10.56 32 21.12 32 32 C21.44 32 10.88 32 0 32 C0 21.44 0 10.88 0 0 Z " fill="#010001" transform="translate(286,170)"/>
<path d="M0 0 C54.45 0 108.9 0 165 0 C165 10.56 165 21.12 165 32 C110.55 32 56.1 32 0 32 C0 21.44 0 10.88 0 0 Z M2 1 C2 10.57 2 20.14 2 30 C55.13 30 108.26 30 163 30 C163 20.43 163 10.86 163 1 C109.87 1 56.74 1 2 1 Z " fill="#E56236" transform="translate(452,270)"/>
<path d="M0 0 C4.64475959 -0.04944066 9.28936596 -0.08573863 13.93432617 -0.10986328 C15.51443144 -0.11992041 17.0945181 -0.13356785 18.67456055 -0.15087891 C20.9458475 -0.17514022 23.21688836 -0.18648582 25.48828125 -0.1953125 C26.54780754 -0.21079636 26.54780754 -0.21079636 27.6287384 -0.22659302 C31.32197792 -0.22743775 32.83919216 -0.10720523 36 2 C36.34057617 3.97119141 36.34057617 3.97119141 36.29296875 6.3515625 C36.2784668 7.62773437 36.2784668 7.62773437 36.26367188 8.9296875 C36.23853516 9.81914062 36.21339844 10.70859375 36.1875 11.625 C36.16719727 12.97078125 36.16719727 12.97078125 36.14648438 14.34375 C36.11106925 16.56309789 36.06168461 18.78125188 36 21 C37.32 21.66 38.64 22.32 40 23 C39.505 23.495 39.505 23.495 39 24 C38.76807135 25.51469448 38.58784762 27.03754562 38.4375 28.5625 C38.35371094 29.38878906 38.26992187 30.21507812 38.18359375 31.06640625 C38.09271484 32.02353516 38.09271484 32.02353516 38 33 C38.86469595 32.99861731 38.86469595 32.99861731 39.7468605 32.99720669 C53.82107554 32.97505169 67.89528794 32.95854001 81.96951675 32.94818783 C88.77590819 32.94304759 95.58228794 32.93604856 102.38867188 32.92456055 C108.96335557 32.91346897 115.5380317 32.90770701 122.1127243 32.90512276 C124.61478618 32.90328225 127.11684743 32.89968829 129.61890411 32.89426994 C133.13690091 32.88695797 136.65484833 32.88601332 140.17285156 32.88647461 C141.19569244 32.88287933 142.21853333 32.87928406 143.27236938 32.87557983 C150.28388847 32.88545827 156.95743444 33.41311954 164 34 C164 22.78 164 11.56 164 0 C174.89 0 185.78 0 197 0 C197 0.66 197 1.32 197 2 C186.44 2 175.88 2 165 2 C165 12.89 165 23.78 165 35 C121.44 35 77.88 35 33 35 C32.67 24.11 32.34 13.22 32 2 C21.44 2 10.88 2 0 2 C0 1.34 0 0.68 0 0 Z " fill="#FDF7CD" transform="translate(120,234)"/>
<path d="M0 0 C0.95036857 0.00092179 1.90073713 0.00184359 2.87990475 0.00279331 C3.96670528 0.00141865 5.05350582 0.00004398 6.17323971 -0.00137234 C7.3758897 0.00222294 8.5785397 0.00581821 9.81763363 0.00952244 C11.07599026 0.00937641 12.33434689 0.00923038 13.63083553 0.00907993 C17.09142389 0.00879198 20.55197788 0.01468834 24.01255822 0.02165389 C27.62539227 0.0278878 31.23822704 0.02849126 34.85106564 0.0296793 C41.69694645 0.0327925 48.54281137 0.04100575 55.38868517 0.05102879 C63.18057726 0.06219026 70.97247009 0.06770046 78.76436818 0.07272422 C94.79702522 0.08318837 110.82966627 0.1007876 126.86231136 0.12304783 C126.86231136 1.11304783 126.86231136 2.10304783 126.86231136 3.12304783 C126.53231136 2.79304783 126.20231136 2.46304783 125.86231136 2.12304783 C124.21780473 2.01479203 122.56867247 1.97619515 120.92064571 1.96482944 C119.85067348 1.95504063 118.78070126 1.94525181 117.67830563 1.93516636 C116.49435711 1.9294109 115.31040859 1.92365543 114.09058285 1.91772556 C112.23230862 1.90287617 112.23230862 1.90287617 110.33649349 1.88772678 C106.92964163 1.86147559 103.52281399 1.83963987 100.11592269 1.8197248 C96.55911527 1.79790341 93.00235112 1.77049596 89.44557858 1.74366856 C82.70597694 1.69368948 75.96635135 1.64877007 69.22670275 1.60564619 C61.55569665 1.55631829 53.88473395 1.50138372 46.21376979 1.4459666 C30.4299904 1.33206653 14.64617113 1.22524506 -1.13768864 1.12304783 C-1.17527287 2.5692551 -1.17527287 2.5692551 -1.21361637 4.04467869 C-1.30754169 7.60992625 -1.40779803 11.17497216 -1.51000309 14.73999119 C-1.55340848 16.28519072 -1.59507934 17.83043997 -1.63500309 19.37573338 C-1.69257062 21.59243879 -1.75630287 23.80889263 -1.82128239 26.02539158 C-1.83799488 26.72019123 -1.85470737 27.41499088 -1.87192631 28.13084507 C-2.02381693 33.00917612 -2.02381693 33.00917612 -3.13768864 34.12304783 C-5.16183855 34.24679952 -7.19026601 34.30102093 -9.2180109 34.32837009 C-11.16992092 34.35828793 -11.16992092 34.35828793 -13.16126347 34.38881016 C-14.59220604 34.40579582 -16.02314988 34.42267458 -17.45409489 34.43945408 C-18.90998784 34.46001688 -20.36587473 34.48101317 -21.82175541 34.5024271 C-25.6604151 34.55771744 -29.49912929 34.60709585 -33.33788395 34.65527439 C-37.94011513 34.71425296 -42.54224636 34.78051907 -47.14439487 34.84557438 C-54.1420986 34.94367146 -61.13986537 35.03246736 -68.13768864 35.12304783 C-68.13768864 44.69304783 -68.13768864 54.26304783 -68.13768864 64.12304783 C-46.68768864 64.12304783 -25.23768864 64.12304783 -3.13768864 64.12304783 C-3.13768864 64.45304783 -3.13768864 64.78304783 -3.13768864 65.12304783 C-25.24768864 65.12304783 -47.35768864 65.12304783 -70.13768864 65.12304783 C-70.13768864 54.23304783 -70.13768864 43.34304783 -70.13768864 32.12304783 C-48.02768864 32.12304783 -25.91768864 32.12304783 -3.13768864 32.12304783 C-3.13768864 21.89304783 -3.13768864 11.66304783 -3.13768864 1.12304783 C-2.13768864 0.12304783 -2.13768864 0.12304783 0 0 Z " fill="#EEE560" transform="translate(289.1376886367798,70.87695217132568)"/>
<path d="M0 0 C0.33 0 0.66 0 1 0 C1 10.89 1 21.78 1 33 C11.89 33 22.78 33 34 33 C34 44.22 34 55.44 34 67 C23.11 67 12.22 67 1 67 C1 99.67 1 132.34 1 166 C0.67 166 0.34 166 0 166 C0 122.44 0 78.88 0 34 C-54.45 34 -108.9 34 -165 34 C-165 33.67 -165 33.34 -165 33 C-110.55 33 -56.1 33 0 33 C0 22.11 0 11.22 0 0 Z M1 34 C1 44.56 1 55.12 1 66 C11.56 66 22.12 66 33 66 C33 55.44 33 44.88 33 34 C22.44 34 11.88 34 1 34 Z " fill="#885D51" transform="translate(617,236)"/>
<path d="M0 0 C22.11 0 44.22 0 67 0 C67 0.33 67 0.66 67 1 C45.22 1 23.44 1 1 1 C1 55.45 1 109.9 1 166 C11.56 166 22.12 166 33 166 C33 155.11 33 144.22 33 133 C33.33 133 33.66 133 34 133 C34.90915536 155.06711784 34.99074765 176.93396059 34 199 C33.67 199 33.34 199 33 199 C33 188.44 33 177.88 33 167 C22.11 167 11.22 167 0 167 C0 123.11 0 79.22 0 34 C-10.89 34 -21.78 34 -33 34 C-33 33.67 -33 33.34 -33 33 C-22.11 33 -11.22 33 0 33 C0 22.11 0 11.22 0 0 Z " fill="#777777" transform="translate(119,136)"/>
<path d="M0 0 C0.66 0 1.32 0 2 0 C2 10.56 2 21.12 2 32 C12.15713092 31.96040178 12.15713092 31.96040178 22.31420898 31.90991211 C23.57048096 31.90741455 24.82675293 31.90491699 26.12109375 31.90234375 C28.06133423 31.89448853 28.06133423 31.89448853 30.04077148 31.88647461 C33 32 33 32 34 33 C34.09425595 35.14743549 34.11742648 37.29801026 34.11352539 39.44750977 C34.11367142 40.12065216 34.11381744 40.79379456 34.1139679 41.48733521 C34.11326878 43.72205784 34.10547652 45.9566981 34.09765625 48.19140625 C34.09579206 49.73697362 34.09436816 51.28254157 34.09336853 52.82810974 C34.0895434 56.90357077 34.07971317 60.97899637 34.06866455 65.05444336 C34.05665566 69.94027728 34.05204817 74.82612302 34.04621124 79.71196747 C34.0365014 87.14133631 34.01734484 94.57062737 34 102 C23.11 102 12.22 102 1 102 C1 111.9 1 121.8 1 132 C0.67 132 0.34 132 0 132 C0 121.44 0 110.88 0 100 C10.89 100 21.78 100 33 100 C33 78.22 33 56.44 33 34 C22.11 34 11.22 34 0 34 C0 22.78 0 11.56 0 0 Z " fill="#EFE46B" transform="translate(319,169)"/>
<path d="M0 0 C1 1 1 1 1.11352539 3.59204102 C1.10828857 4.71795654 1.10305176 5.84387207 1.09765625 7.00390625 C1.09443359 8.21884766 1.09121094 9.43378906 1.08789062 10.68554688 C1.07951172 11.96494141 1.07113281 13.24433594 1.0625 14.5625 C1.05798828 15.84576172 1.05347656 17.12902344 1.04882812 18.45117188 C1.03699545 21.63416022 1.02051068 24.81705762 1 28 C-2.47823115 29.15941038 -4.45895578 28.70820884 -8 28 C-7.34 27.67 -6.68 27.34 -6 27 C-6 26.34 -6 25.68 -6 25 C-4.68 25 -3.36 25 -2 25 C-1.7834375 23.8553125 -1.7834375 23.8553125 -1.5625 22.6875 C-1 20 -1 20 0 17 C-1.32 17 -2.64 17 -4 17 C-4 18.32 -4 19.64 -4 21 C-5.32 21 -6.64 21 -8 21 C-10.1103435 16.72115394 -10.24128739 12.86135858 -10.125 8.1875 C-10.11597656 7.49462891 -10.10695313 6.80175781 -10.09765625 6.08789062 C-10.07426157 4.39177605 -10.03839641 2.69584129 -10 1 C-6.14536527 -0.68801957 -4.09625608 -1.2516338 0 0 Z " fill="#FBEA39" transform="translate(316,239)"/>
<path d="M0 0 C54.45 0 108.9 0 165 0 C165 0.33 165 0.66 165 1 C84.81 1.495 84.81 1.495 3 2 C3 10.91 3 19.82 3 29 C2.01 29.99 1.02 30.98 0 32 C0 21.44 0 10.88 0 0 Z " fill="#180000" transform="translate(452,303)"/>
<path d="M0 0 C0.33 0 0.66 0 1 0 C1 22.11 1 44.22 1 67 C11.56 67 22.12 67 33 67 C33 56.11 33 45.22 33 34 C33.33 34 33.66 34 34 34 C34.90915536 56.06711784 34.99074765 77.93396059 34 100 C33.67 100 33.34 100 33 100 C33 89.44 33 78.88 33 68 C22.11 68 11.22 68 0 68 C0 45.56 0 23.12 0 0 Z " fill="#848164" transform="translate(119,235)"/>
<path d="M0 0 C0.5165918 0.15847412 1.03318359 0.31694824 1.56542969 0.48022461 C4.71232894 1.15208066 7.73638152 1.22099437 10.953125 1.31640625 C12.76538574 1.37356812 12.76538574 1.37356812 14.61425781 1.43188477 C16.14405273 1.47498779 17.67384766 1.51809082 19.25 1.5625 C24.1175 1.706875 28.985 1.85125 34 2 C34 11.9 34 21.8 34 32 C4.63 32 -24.74 32 -55 32 C-55 31.67 -55 31.34 -55 31 C-25.96 31 3.08 31 33 31 C32.67 21.76 32.34 12.52 32 3 C21.77 3 11.54 3 1 3 C0.505 1.515 0.505 1.515 0 0 Z " fill="#FAEA41" transform="translate(416,368)"/>
<path d="M0 0 C10.89 0 21.78 0 33 0 C33 10.89 33 21.78 33 33 C22.11 33 11.22 33 0 33 C0 22.11 0 11.22 0 0 Z M1 3 C0.72108853 6.01263725 0.72108853 6.01263725 0.8046875 9.5390625 C0.81113281 10.84101563 0.81757813 12.14296875 0.82421875 13.484375 C0.84093071 14.86458595 0.85786061 16.24479429 0.875 17.625 C0.88502994 19.01301452 0.89415577 20.40103589 0.90234375 21.7890625 C0.92598137 25.19288026 0.95893133 28.59635506 1 32 C5.09341499 32.02469575 9.18680121 32.04285793 13.28027344 32.05493164 C14.67318477 32.0599643 16.0660908 32.06679098 17.45898438 32.07543945 C19.45961246 32.08755152 21.46027888 32.09270412 23.4609375 32.09765625 C24.66540527 32.10289307 25.86987305 32.10812988 27.11083984 32.11352539 C29.9413677 32.20087891 29.9413677 32.20087891 32 31 C32.02465746 26.8882744 32.04283959 22.77657722 32.05493164 18.66479492 C32.0599708 17.26504772 32.06680216 15.8653058 32.07543945 14.46557617 C32.0875232 12.45754223 32.09269807 10.44947043 32.09765625 8.44140625 C32.10289307 7.23170166 32.10812988 6.02199707 32.11352539 4.77563477 C32.31775285 2.09187983 32.31775285 2.09187983 31 1 C26.35984675 0.7458445 21.70878694 0.81477202 17.0625 0.8125 C15.09120117 0.79413086 15.09120117 0.79413086 13.08007812 0.77539062 C11.82775391 0.77345703 10.57542969 0.77152344 9.28515625 0.76953125 C8.12894775 0.76542236 6.97273926 0.76131348 5.78149414 0.75708008 C2.859433 0.71196371 2.859433 0.71196371 1 3 Z " fill="#F6ED81" transform="translate(285,236)"/>
<path d="M0 0 C0.66 0 1.32 0 2 0 C2 10.56 2 21.12 2 32 C12.23 32 22.46 32 33 32 C33 32.66 33 33.32 33 34 C22.11 34 11.22 34 0 34 C0 22.78 0 11.56 0 0 Z " fill="#E7DE60" transform="translate(319,169)"/>
<path d="M0 0 C4.25414623 -0.02465622 8.50825498 -0.04283899 12.76245117 -0.05493164 C14.21070073 -0.05997101 15.65894517 -0.06680253 17.10717773 -0.07543945 C19.18474588 -0.08752247 21.26224697 -0.09323211 23.33984375 -0.09765625 C24.59144287 -0.10289307 25.84304199 -0.10812988 27.13256836 -0.11352539 C30 0 30 0 31 1 C31.08790975 3.29151417 31.10694038 5.58572524 31.09765625 7.87890625 C31.0962413 8.5655687 31.09482635 9.25223114 31.09336853 9.95970154 C31.08775479 12.16067801 31.07520007 14.36155409 31.0625 16.5625 C31.05748676 18.05143083 31.05292355 19.54036324 31.04882812 21.02929688 C31.03863021 24.68626805 31.01905779 28.34302117 31 32 C21.1 32 11.2 32 1 32 C1 31.67 1 31.34 1 31 C10.57 31 20.14 31 30 31 C30 21.76 30 12.52 30 3 C18.615 2.505 18.615 2.505 7 2 C7 2.66 7 3.32 7 4 C4.50638429 2.79618552 2.31856917 1.54571278 0 0 Z " fill="#F1E656" transform="translate(419,236)"/>
<path d="M0 0 C10.56 0 21.12 0 32 0 C32 8.25 32 16.5 32 25 C30.25177734 21.50355468 29.74144074 20.30028401 29.5859375 16.671875 C29.54726562 15.87265625 29.50859375 15.0734375 29.46875 14.25 C29.4378125 13.425 29.406875 12.6 29.375 11.75 C29.33632812 10.90953125 29.29765625 10.0690625 29.2578125 9.203125 C29.16384164 7.13576618 29.08084436 5.06791373 29 3 C26.26321275 1.63160637 23.95735576 1.78365182 20.8984375 1.68359375 C19.68671875 1.64169922 18.475 1.59980469 17.2265625 1.55664062 C15.95554688 1.51732422 14.68453125 1.47800781 13.375 1.4375 C11.456875 1.37272461 11.456875 1.37272461 9.5 1.30664062 C6.33344652 1.20030114 3.16681247 1.09827167 0 1 C0 0.67 0 0.34 0 0 Z " fill="#171000" transform="translate(120,269)"/>
<path d="M0 0 C0.33 0 0.66 0 1 0 C1.85695967 5.88400655 2.12539234 11.55909292 2.0625 17.5 C2.05798828 18.32242188 2.05347656 19.14484375 2.04882812 19.9921875 C2.03718489 21.99482396 2.01925556 23.99742227 2 26 C2.66 26 3.32 26 4 26 C4.66 27.65 5.32 29.3 6 31 C3 33 3 33 0 33 C0 22.11 0 11.22 0 0 Z " fill="#281D06" transform="translate(418,70)"/>
<path d="M0 0 C0.5165918 0.15847412 1.03318359 0.31694824 1.56542969 0.48022461 C4.71232894 1.15208066 7.73638152 1.22099437 10.953125 1.31640625 C12.76538574 1.37356812 12.76538574 1.37356812 14.61425781 1.43188477 C16.14405273 1.47498779 17.67384766 1.51809082 19.25 1.5625 C24.1175 1.706875 28.985 1.85125 34 2 C34 11.9 34 21.8 34 32 C33.67 32 33.34 32 33 32 C32.67 22.43 32.34 12.86 32 3 C21.77 3 11.54 3 1 3 C0.67 2.01 0.34 1.02 0 0 Z " fill="#F1E54C" transform="translate(416,368)"/>
<path d="M0 0 C0.99 0.33 1.98 0.66 3 1 C2.67 1.33 2.34 1.66 2 2 C1.9004557 3.73338564 1.86919654 5.47079083 1.8671875 7.20703125 C1.86589844 8.26857422 1.86460937 9.33011719 1.86328125 10.42382812 C1.86714844 11.54208984 1.87101563 12.66035156 1.875 13.8125 C1.87113281 14.91916016 1.86726562 16.02582031 1.86328125 17.16601562 C1.86457031 18.23142578 1.86585938 19.29683594 1.8671875 20.39453125 C1.86831543 21.37268799 1.86944336 22.35084473 1.87060547 23.35864258 C1.98943161 25.78426536 2.13296483 27.73455116 3 30 C3.99 30.66 4.98 31.32 6 32 C5.505 32.495 5.505 32.495 5 33 C3.35 33 1.7 33 0 33 C0 22.11 0 11.22 0 0 Z " fill="#101010" transform="translate(219,70)"/>
<path d="M0 0 C0.33 0 0.66 0 1 0 C1 9.9 1 19.8 1 30 C-0.32 30 -1.64 30 -3 30 C-3 29.34 -3 28.68 -3 28 C-2.34 28 -1.68 28 -1 28 C-1 27.01 -1 26.02 -1 25 C-1.99 24.67 -2.98 24.34 -4 24 C-2.68 23.67 -1.36 23.34 0 23 C0 15.41 0 7.82 0 0 Z " fill="#0C0302" transform="translate(284,73)"/>
<path d="M0 0 C1.98 0.99 1.98 0.99 4 2 C4 10.58 4 19.16 4 28 C1.45223801 25.45223801 1.71599154 24.41636646 1.62109375 20.87890625 C1.58693359 19.86119141 1.55277344 18.84347656 1.51757812 17.79492188 C1.49115234 16.72822266 1.46472656 15.66152344 1.4375 14.5625 C1.37756066 12.45952177 1.31392402 10.35664475 1.24609375 8.25390625 C1.22216553 7.31877197 1.1982373 6.3836377 1.17358398 5.42016602 C1.09017661 2.85794902 1.09017661 2.85794902 0 0 Z " fill="#FBF4E8" transform="translate(152,234)"/>
<path d="M0 0 C0.99 0.33 1.98 0.66 3 1 C3 1.99 3 2.98 3 4 C3.99 4.66 4.98 5.32 6 6 C5 7 5 7 2.4375 7.0625 C1.2309375 7.0315625 1.2309375 7.0315625 0 7 C0 4.69 0 2.38 0 0 Z " fill="#0C0D01" transform="translate(219,96)"/>
<path d="M0 0 C0 1.32 0 2.64 0 4 C-1.98 4 -3.96 4 -6 4 C-6 3.01 -6 2.02 -6 1 C-4 0 -4 0 0 0 Z " fill="#0B0801" transform="translate(119,265)"/>
</svg>
