<?xml version="1.0" encoding="UTF-8"?>
<svg version="1.1" xmlns="http://www.w3.org/2000/svg" width="288" height="203">
<path d="M0 0 C24.42 0 48.84 0 74 0 C74 3.3 74 6.6 74 10 C77.3 10 80.6 10 84 10 C84 23.86 84 37.72 84 52 C68.82 52 53.64 52 38 52 C38 54.64 38 57.28 38 60 C46.91 60 55.82 60 65 60 C65 63.3 65 66.6 65 70 C53.12 70 41.24 70 29 70 C29 75.94 29 81.88 29 88 C34.94 88 40.88 88 47 88 C47 94.27 47 100.54 47 107 C43.7 107 40.4 107 37 107 C37 104.03 37 101.06 37 98 C34.36 98 31.72 98 29 98 C29 108.56 29 119.12 29 130 C25.7 130 22.4 130 19 130 C19 134.29 19 138.58 19 143 C16.03 143 13.06 143 10 143 C10 146.3 10 149.6 10 153 C7.03 153 4.06 153 1 153 C1 164.55 1 176.1 1 188 C3.97 188 6.94 188 10 188 C10 191.3 10 194.6 10 198 C3.73 198 -2.54 198 -9 198 C-9 189.09 -9 180.18 -9 171 C-11.97 171 -14.94 171 -18 171 C-18 168.03 -18 165.06 -18 162 C-20.64 162 -23.28 162 -26 162 C-26 164.97 -26 167.94 -26 171 C-29.3 171 -32.6 171 -36 171 C-36 173.97 -36 176.94 -36 180 C-38.97 180 -41.94 180 -45 180 C-45 182.64 -45 185.28 -45 188 C-42.03 188 -39.06 188 -36 188 C-36 191.3 -36 194.6 -36 198 C-42.27 198 -48.54 198 -55 198 C-55 186.12 -55 174.24 -55 162 C-57.97 162 -60.94 162 -64 162 C-64 159.03 -64 156.06 -64 153 C-66.97 153 -69.94 153 -73 153 C-73 149.7 -73 146.4 -73 143 C-75.97 143 -78.94 143 -82 143 C-82 140.03 -82 137.06 -82 134 C-84.97 134 -87.94 134 -91 134 C-91 131.03 -91 128.06 -91 125 C-94.3 125 -97.6 125 -101 125 C-101 106.52 -101 88.04 -101 69 C-97.7 69 -94.4 69 -91 69 C-91 75.27 -91 81.54 -91 88 C-87.7 88 -84.4 88 -81 88 C-81 90.97 -81 93.94 -81 97 C-78.03 97 -75.06 97 -72 97 C-72 99.97 -72 102.94 -72 106 C-66.39 106 -60.78 106 -55 106 C-55 103.03 -55 100.06 -55 97 C-52.03 97 -49.06 97 -46 97 C-46 94.03 -46 91.06 -46 88 C-41.38 88 -36.76 88 -32 88 C-32 84.7 -32 81.4 -32 78 C-27.38 78 -22.76 78 -18 78 C-18 75.03 -18 72.06 -18 69 C-15.03 69 -12.06 69 -9 69 C-9 49.53 -9 30.06 -9 10 C-6.03 10 -3.06 10 0 10 C0 6.7 0 3.4 0 0 Z M10 15 C10 17.64 10 20.28 10 23 C12.97 23 15.94 23 19 23 C19 20.36 19 17.72 19 15 C16.03 15 13.06 15 10 15 Z " fill="#535353" transform="translate(146,5)"/>
<path d="M0 0 C40.59 0 81.18 0 123 0 C123 1.65 123 3.3 123 5 C82.41 5 41.82 5 0 5 C0 3.35 0 1.7 0 0 Z " fill="#525252" transform="translate(165,166)"/>
<path d="M0 0 C24.42 0 48.84 0 74 0 C74 1.65 74 3.3 74 5 C49.58 5 25.16 5 0 5 C0 3.35 0 1.7 0 0 Z " fill="#525252" transform="translate(0,166)"/>
<path d="M0 0 C6.27 0 12.54 0 19 0 C19 1.98 19 3.96 19 6 C12.73 6 6.46 6 0 6 C0 4.02 0 2.04 0 0 Z " fill="#535353" transform="translate(27,184)"/>
<path d="M0 0 C6.27 0 12.54 0 19 0 C19 1.65 19 3.3 19 5 C12.73 5 6.46 5 0 5 C0 3.35 0 1.7 0 0 Z " fill="#525252" transform="translate(220,198)"/>
<path d="M0 0 C6.27 0 12.54 0 19 0 C19 1.65 19 3.3 19 5 C12.73 5 6.46 5 0 5 C0 3.35 0 1.7 0 0 Z " fill="#525252" transform="translate(0,198)"/>
<path d="M0 0 C4.62 0 9.24 0 14 0 C14 1.65 14 3.3 14 5 C9.38 5 4.76 5 0 5 C0 3.35 0 1.7 0 0 Z " fill="#525252" transform="translate(252,180)"/>
<path d="M0 0 C3.3 0 6.6 0 10 0 C10 1.65 10 3.3 10 5 C6.7 5 3.4 5 0 5 C0 3.35 0 1.7 0 0 Z " fill="#525252" transform="translate(64,198)"/>
<path d="M0 0 C1.98 0 3.96 0 6 0 C6 1.98 6 3.96 6 6 C4.02 6 2.04 6 0 6 C0 4.02 0 2.04 0 0 Z " fill="#535353" transform="translate(187,193)"/>
</svg>
