<?xml version="1.0" encoding="UTF-8"?>
<svg version="1.1" xmlns="http://www.w3.org/2000/svg" width="1280" height="1280">
<path d="M0 0 C1.81227778 -0.0026965 3.62455443 -0.00626609 5.43682897 -0.01062447 C10.41289676 -0.02005793 15.3888911 -0.01708977 20.36496244 -0.01206893 C25.78024251 -0.00879742 31.19550705 -0.0170889 36.61078215 -0.02388728 C46.1007268 -0.03418946 55.59065105 -0.03703069 65.08060074 -0.03497505 C79.19286336 -0.03192564 93.3051034 -0.04024776 107.41736164 -0.0507243 C134.08901568 -0.07007124 160.76066198 -0.07569404 187.4323222 -0.07683842 C190.3732781 -0.07696792 193.314234 -0.0771038 196.2551899 -0.07724524 C197.34993397 -0.07729625 197.34993397 -0.07729625 198.46679408 -0.07734829 C214.64845169 -0.07816563 230.83010774 -0.08254684 247.01176453 -0.08755693 C253.67738834 -0.08961368 260.34301217 -0.09159376 267.008636 -0.09358943 C268.11342195 -0.09392119 268.11342195 -0.09392119 269.24052682 -0.09425966 C311.44157037 -0.10690614 353.6426129 -0.11515808 395.84365845 -0.11424255 C397.42261763 -0.114211 399.00157682 -0.11417952 400.580536 -0.11414814 C407.70920514 -0.11400137 414.83787428 -0.11382503 421.96654342 -0.11364037 C425.14531415 -0.11355812 428.32408488 -0.11347783 431.50285561 -0.11339774 C433.09388693 -0.11335695 434.68491824 -0.11331491 436.27594956 -0.11327162 C486.5773576 -0.11191137 536.87873748 -0.12654234 587.18013763 -0.15435219 C599.85243217 -0.16135445 612.52472673 -0.16829347 625.19702148 -0.17488098 C626.36750847 -0.1754896 626.36750847 -0.1754896 627.56164166 -0.17611052 C651.62014997 -0.18854461 675.67865597 -0.19607244 699.73716736 -0.19859695 C700.49274903 -0.19867686 701.2483307 -0.19875676 702.02680878 -0.19883908 C718.61541938 -0.20054581 735.20402984 -0.20106796 751.79264051 -0.20049833 C757.72869977 -0.20030537 763.66475902 -0.20020127 769.60081829 -0.20014087 C771.07751154 -0.20012504 772.5542048 -0.20010463 774.03089806 -0.20007962 C797.53907514 -0.1997273 821.04722809 -0.21111001 844.55539826 -0.22838725 C868.89957214 -0.24618794 893.24370683 -0.24931746 917.58788413 -0.235763 C931.61657301 -0.22837312 945.64515618 -0.23203307 959.67383386 -0.25164768 C969.05006668 -0.26364907 978.42622295 -0.26105475 987.80245226 -0.24670668 C993.14117155 -0.23894516 998.47968629 -0.23738786 1003.81839114 -0.25362138 C1008.68596565 -0.26829227 1013.5531673 -0.26417503 1018.42072584 -0.24577365 C1020.16026993 -0.24236255 1021.89984404 -0.24548322 1023.63935737 -0.25637607 C1058.93614849 -0.46240221 1090.43339149 13.06433234 1115.59029388 37.77289391 C1140.17107108 62.66482018 1151.40558253 94.64748922 1151.31058979 129.21232796 C1151.31298247 131.02581609 1151.31624947 132.83930323 1151.32030639 134.6527884 C1151.32891143 139.63219127 1151.32510614 144.61151859 1151.31925067 149.59092259 C1151.31507632 155.00975596 1151.32248462 160.42857564 1151.32840317 165.84740567 C1151.33716588 175.34347278 1151.33847703 184.83951831 1151.3348999 194.33558846 C1151.32959456 208.45673823 1151.33568652 222.57786712 1151.34398284 236.69901463 C1151.35881133 262.65247931 1151.36107197 288.60593486 1151.35866246 314.55940297 C1151.358324 318.2356256 1151.35800191 321.91184824 1151.35769677 325.58807087 C1151.35760521 326.68338526 1151.35760521 326.68338526 1151.35751179 327.80082721 C1151.35623941 343.9898147 1151.35884218 360.17880088 1151.36222284 376.36778799 C1151.36299358 380.06532314 1151.36373831 383.76285829 1151.36448785 387.46039344 C1151.36478955 388.94438866 1151.36509143 390.42838388 1151.3653935 391.9123791 C1151.36554318 392.64797424 1151.36569286 393.38356938 1151.36584707 394.14145528 C1151.3661506 395.6293729 1151.36645528 397.11729051 1151.36676112 398.60520813 C1151.37543346 440.82082616 1151.38007855 483.03644303 1151.37581348 525.25206184 C1151.37573543 526.03365565 1151.37565737 526.81524945 1151.37557695 527.62052791 C1151.37470416 536.33595616 1151.3737749 545.05138441 1151.37282632 553.76681265 C1151.37274081 554.55367424 1151.3726553 555.34053583 1151.3725672 556.15124171 C1151.37185644 562.6890611 1151.37185644 562.6890611 1151.37152497 565.69762329 C1151.36598939 616.02610613 1151.37353105 666.35457063 1151.39229584 716.68305016 C1151.39701813 729.36426731 1151.40169868 742.04548448 1151.4061327 754.72670174 C1151.40640602 755.5075561 1151.40667934 756.28841046 1151.40696095 757.09292708 C1151.41533345 781.16291183 1151.42001202 805.23289505 1151.42084026 829.30288124 C1151.42086663 830.05867705 1151.420893 830.81447286 1151.42092016 831.59317157 C1151.42146097 848.18538082 1151.42108844 864.77758994 1151.41988045 881.36979915 C1151.41945483 887.30688771 1151.4190897 893.24397628 1151.41875101 899.18106485 C1151.4186657 900.65803221 1151.41857677 902.13499956 1151.41848419 903.61196691 C1151.41703609 927.13521037 1151.42415729 950.65844134 1151.43548815 974.1816818 C1151.44714311 998.5354769 1151.44769564 1022.88924906 1151.43564472 1047.24304435 C1151.4290092 1061.28144358 1151.4306632 1075.31978418 1151.44423324 1089.35817874 C1151.45246747 1098.73577976 1151.4497935 1108.11333679 1151.43825797 1117.49093422 C1151.43199145 1122.83368937 1151.43042693 1128.17632998 1151.4421213 1133.51907858 C1151.45267524 1138.38560674 1151.44926547 1143.25192353 1151.43501678 1148.11844045 C1151.43230248 1149.862111 1151.43453947 1151.60579868 1151.44252392 1153.34945306 C1151.50215662 1167.33366507 1150.05508944 1180.74028966 1145.4936142 1194.06976891 C1145.24458344 1194.80276207 1144.99555267 1195.53575523 1144.73897552 1196.29096031 C1132.88398333 1229.49056193 1108.07890439 1254.86675048 1076.6811142 1270.00726891 C1059.14536256 1278.12220551 1041.26763423 1280.56441901 1022.10105515 1280.5117445 C1020.28756702 1280.51413717 1018.47407987 1280.51740418 1016.6605947 1280.5214611 C1011.68119183 1280.53006614 1006.70186452 1280.52626085 1001.72246051 1280.52040538 C996.30362714 1280.51623103 990.88480746 1280.52363933 985.46597743 1280.52955788 C975.96991033 1280.53832059 966.47386479 1280.53963174 956.97779465 1280.53605461 C942.85664487 1280.53074927 928.73551598 1280.53684123 914.61436847 1280.54513754 C888.66090379 1280.55996604 862.70744824 1280.56222668 836.75398013 1280.55981716 C833.0777575 1280.55947871 829.40153487 1280.55915661 825.72531223 1280.55885148 C824.99510264 1280.55879044 824.26489305 1280.55872939 823.5125559 1280.5586665 C807.3235684 1280.55739411 791.13458222 1280.55999688 774.94559511 1280.56337755 C771.24805996 1280.56414829 767.55052481 1280.56489302 763.85298966 1280.56564256 C762.36899444 1280.56594425 760.88499922 1280.56624614 759.401004 1280.5665482 C758.66540886 1280.56669788 757.92981372 1280.56684756 757.17192782 1280.56700178 C755.68401021 1280.56730531 754.19609259 1280.56760999 752.70817497 1280.56791582 C710.49255694 1280.57658816 668.27694007 1280.58123326 626.06132126 1280.57696819 C625.27972746 1280.57689014 624.49813366 1280.57681208 623.69285519 1280.57673166 C614.97742694 1280.57585887 606.26199869 1280.57492961 597.54657045 1280.57398102 C596.75970886 1280.57389552 595.97284727 1280.57381001 595.16214139 1280.57372191 C588.624322 1280.57301115 588.624322 1280.57301115 585.61575982 1280.57267968 C535.28727697 1280.5671441 484.95881247 1280.57468576 434.63033295 1280.59345055 C421.94911579 1280.59817284 409.26789863 1280.60285338 396.58668137 1280.60728741 C395.805827 1280.60756073 395.02497264 1280.60783405 394.22045602 1280.60811566 C370.15047128 1280.61648816 346.08048805 1280.62116673 322.01050186 1280.62199497 C321.25470605 1280.62202134 320.49891024 1280.62204771 319.72021153 1280.62207487 C303.12800228 1280.62261568 286.53579316 1280.62224314 269.94358395 1280.62103516 C264.00649539 1280.62060954 258.06940682 1280.62024441 252.13231825 1280.61990572 C250.6553509 1280.61982041 249.17838354 1280.61973148 247.70141619 1280.6196389 C224.17817274 1280.6181908 200.65494176 1280.625312 177.1317013 1280.63664286 C152.7779062 1280.64829782 128.42413404 1280.64885035 104.07033876 1280.63679943 C90.03193953 1280.63016391 75.99359892 1280.63181791 61.95520436 1280.64538795 C52.57760334 1280.65362218 43.20004632 1280.65094821 33.82244888 1280.63941268 C28.47969373 1280.63314616 23.13705312 1280.63158164 17.79430452 1280.64327601 C12.92777636 1280.65382995 8.06145957 1280.65042018 3.19494265 1280.63617149 C1.4512721 1280.63345719 -0.29241557 1280.63569418 -2.03606996 1280.64367863 C-16.02028196 1280.70331133 -29.42690656 1279.25624415 -42.7563858 1274.69476891 C-43.48937897 1274.44573814 -44.22237213 1274.19670738 -44.97757721 1273.94013023 C-78.17717883 1262.08513804 -103.55336738 1237.2800591 -118.6938858 1205.88226891 C-126.80680777 1188.35087075 -129.25055423 1170.47527662 -129.20115471 1151.3133831 C-129.2038512 1149.50110532 -129.20742079 1147.68882867 -129.21177918 1145.87655413 C-129.22121263 1140.90048634 -129.21824448 1135.924492 -129.21322363 1130.94842067 C-129.20995213 1125.53314059 -129.21824361 1120.11787605 -129.22504199 1114.70260096 C-129.23534417 1105.2126563 -129.23818539 1095.72273205 -129.23612976 1086.23278236 C-129.23308035 1072.12051974 -129.24140247 1058.0082797 -129.25187901 1043.89602146 C-129.27122595 1017.22436743 -129.27684875 990.55272112 -129.27799313 963.8810609 C-129.27812263 960.940105 -129.2782585 957.9991491 -129.27839994 955.05819321 C-129.27843395 954.32836383 -129.27846796 953.59853444 -129.278503 952.84658902 C-129.27932034 936.66493141 -129.28370155 920.48327536 -129.28871163 904.30161858 C-129.29076839 897.63599477 -129.29274847 890.97037093 -129.29474413 884.3047471 C-129.29496531 883.56822313 -129.29518649 882.83169916 -129.29541437 882.07285629 C-129.30806084 839.87181273 -129.31631279 797.6707702 -129.31539726 755.46972466 C-129.31536571 753.89076547 -129.31533423 752.31180628 -129.31530285 750.7328471 C-129.31515608 743.60417796 -129.31497974 736.47550882 -129.31479508 729.34683968 C-129.31471283 726.16806895 -129.31463254 722.98929822 -129.31455245 719.81052749 C-129.31451166 718.21949618 -129.31446962 716.62846486 -129.31442633 715.03743355 C-129.31306608 664.7360255 -129.32769705 614.43464562 -129.3555069 564.13324547 C-129.36250916 551.46095093 -129.36944818 538.78865638 -129.37603569 526.11636162 C-129.37644144 525.33603696 -129.37684719 524.5557123 -129.37726523 523.75174144 C-129.38969932 499.69323313 -129.39722715 475.63472713 -129.39975166 451.57621574 C-129.39983156 450.82063407 -129.39991147 450.06505241 -129.39999379 449.28657432 C-129.40170052 432.69796372 -129.40222267 416.10935327 -129.40165304 399.5207426 C-129.40146007 393.58468334 -129.40135598 387.64862408 -129.40129558 381.71256482 C-129.40127975 380.23587156 -129.40125934 378.7591783 -129.40123433 377.28248505 C-129.40088201 353.77430796 -129.41226472 330.26615502 -129.42954196 306.75798485 C-129.44734265 282.41381096 -129.45047217 258.06967627 -129.43691771 233.72549897 C-129.42952783 219.69681009 -129.43318777 205.66822692 -129.45280239 191.63954925 C-129.46480378 182.26331643 -129.46220946 172.88716016 -129.44786139 163.51093085 C-129.44009987 158.17221156 -129.43854256 152.83369681 -129.45477609 147.49499196 C-129.46944697 142.62741745 -129.46532974 137.7602158 -129.44692836 132.89265727 C-129.44351726 131.15311317 -129.44663793 129.41353906 -129.45753077 127.67402573 C-129.66355692 92.37723461 -116.13682237 60.87999162 -91.4282608 35.72308922 C-66.53953211 11.14546963 -34.56042329 -0.08909705 0 0 Z M-29.6938858 75.00726891 C-30.32947418 75.35942467 -30.96506256 75.71158043 -31.61991119 76.07440758 C-45.34784745 83.89055676 -55.04094381 96.91553324 -59.4927119 112.13336462 C-61.05905771 118.51273157 -61.21963029 124.61223529 -61.18439484 131.1592617 C-61.18610687 132.32795296 -61.18781891 133.49664421 -61.18958282 134.70075035 C-61.19230494 137.92858449 -61.18607892 141.15625599 -61.17603126 144.38407095 C-61.16726302 147.92435258 -61.17022278 151.46462857 -61.1716671 155.0049181 C-61.17272805 161.86915992 -61.16351653 168.73334917 -61.15066444 175.59757751 C-61.13623709 183.54172293 -61.13467344 191.485837 -61.13309479 199.4299984 C-61.12260373 220.39326353 -61.09468139 241.35651701 -61.0688858 262.31976891 C-61.0276358 309.15914391 -60.9863858 355.99851891 -60.9438858 404.25726891 C49.9361142 404.25726891 160.8161142 404.25726891 275.0561142 404.25726891 C275.0561142 293.37726891 275.0561142 182.49726891 275.0561142 68.25726891 C228.2786142 68.19539391 181.5011142 68.13351891 133.3061142 68.06976891 C118.53635834 68.04245689 103.76660248 68.01514488 88.54927826 67.98700523 C75.30901442 67.97697189 75.30901442 67.97697189 62.06874847 67.97093773 C56.17173924 67.96814297 50.27481551 67.95715051 44.37783051 67.94054222 C37.57157773 67.92140152 30.76540681 67.9127715 23.95912693 67.91693405 C20.47986741 67.91873581 17.00079068 67.91594511 13.52156496 67.89962351 C9.78718585 67.88465093 6.05326059 67.88831749 2.31887054 67.89650536 C1.24521618 67.88776736 0.17156181 67.87902937 -0.93462753 67.87002659 C-11.16037134 67.93008175 -20.7501252 69.95424797 -29.6938858 75.00726891 Z M343.0561142 68.25726891 C343.0561142 179.13726891 343.0561142 290.01726891 343.0561142 404.25726891 C453.9361142 404.25726891 564.8161142 404.25726891 679.0561142 404.25726891 C679.0561142 293.37726891 679.0561142 182.49726891 679.0561142 68.25726891 C568.1761142 68.25726891 457.2961142 68.25726891 343.0561142 68.25726891 Z M747.0561142 68.25726891 C747.0561142 179.13726891 747.0561142 290.01726891 747.0561142 404.25726891 C857.9361142 404.25726891 968.8161142 404.25726891 1083.0561142 404.25726891 C1083.1179892 357.47976891 1083.1798642 310.70226891 1083.2436142 262.50726891 C1083.27092621 247.73751305 1083.29823822 232.96775719 1083.32637787 217.75043297 C1083.33641121 204.51016912 1083.33641121 204.51016912 1083.34244537 191.26990318 C1083.34524013 185.37289395 1083.35623259 179.47597022 1083.37284088 173.57898521 C1083.39198158 166.77273244 1083.4006116 159.96656152 1083.39644905 153.16028164 C1083.3946473 149.68102212 1083.397438 146.20194539 1083.41375959 142.72271967 C1083.42873218 138.98834056 1083.42506561 135.25441529 1083.41687775 131.52002525 C1083.42561574 130.44637089 1083.43435373 129.37271652 1083.44335651 128.26652718 C1083.38330135 118.04078337 1081.35913514 108.45102951 1076.3061142 99.50726891 C1075.95395844 98.87168053 1075.60180267 98.23609215 1075.23897552 97.58124352 C1067.42282634 83.85330726 1054.39784987 74.1602109 1039.18001848 69.70844281 C1032.80065153 68.142097 1026.70114782 67.98152442 1020.1541214 68.01675987 C1018.98543015 68.01504784 1017.81673889 68.0133358 1016.61263275 68.01157188 C1013.38479861 68.00884976 1010.15712711 68.01507579 1006.92931215 68.02512345 C1003.38903052 68.03389169 999.84875453 68.03093193 996.308465 68.02948761 C989.44422319 68.02842666 982.58003393 68.03763818 975.71580559 68.05049027 C967.77166017 68.06491762 959.82754611 68.06648126 951.8833847 68.06805992 C930.92011957 68.07855098 909.95686609 68.10647332 888.9936142 68.13226891 C818.7345517 68.19414391 818.7345517 68.19414391 747.0561142 68.25726891 Z M-60.9438858 472.25726891 C-60.9438858 583.13726891 -60.9438858 694.01726891 -60.9438858 808.25726891 C49.9361142 808.25726891 160.8161142 808.25726891 275.0561142 808.25726891 C275.0561142 697.37726891 275.0561142 586.49726891 275.0561142 472.25726891 C164.1761142 472.25726891 53.2961142 472.25726891 -60.9438858 472.25726891 Z " fill="#000000" transform="translate(128.94388580322266,-0.25726890563964844)"/>
<path d="M0 0 C1.17179526 -0.00260775 2.34359053 -0.00521549 3.55089474 -0.00790226 C4.8546584 -0.00567154 6.15842207 -0.00344082 7.50169373 -0.0011425 C8.88777743 -0.00229336 10.27386083 -0.00388065 11.65994358 -0.00586975 C15.48669062 -0.01006787 19.31341292 -0.00797021 23.14016008 -0.00488353 C27.2601746 -0.0026316 31.38018471 -0.006108 35.50019836 -0.00886345 C43.57837234 -0.01332237 51.65653706 -0.01234414 59.73471141 -0.00945081 C66.29694238 -0.00719725 72.85917074 -0.00688404 79.42140198 -0.00797462 C80.81954772 -0.00820447 80.81954772 -0.00820447 82.24593884 -0.00843897 C84.13916357 -0.00875868 86.03238831 -0.00908289 87.92561305 -0.00941156 C105.70040581 -0.01226671 123.47519342 -0.00897878 141.24998534 -0.00361119 C156.51903069 0.00085688 171.78806844 0.00008096 187.05711365 -0.00452995 C204.76601633 -0.0098751 222.47491449 -0.01199202 240.18381786 -0.00891769 C242.07028389 -0.00859912 243.95674992 -0.00828475 245.84321594 -0.00797462 C246.77152129 -0.00782035 247.69982664 -0.00766607 248.65626246 -0.00750712 C255.2146141 -0.00664179 261.77296289 -0.0081052 268.33131409 -0.01045418 C276.31800326 -0.01325172 284.30468259 -0.0125149 292.29137063 -0.00717343 C296.3703937 -0.00453579 300.44940034 -0.00353241 304.52842331 -0.00682259 C308.25643262 -0.00978427 311.98441014 -0.0081949 315.71241653 -0.00284503 C317.7128521 -0.00118408 319.71328985 -0.00447955 321.71372318 -0.00790226 C323.47141608 -0.00399064 323.47141608 -0.00399064 325.26461792 0 C326.28438437 0.00016235 327.30415083 0.0003247 328.3548193 0.00049198 C330.63230896 0.12584114 330.63230896 0.12584114 331.63230896 1.12584114 C331.73066336 2.91285854 331.75786517 4.70381022 331.7581501 6.49353218 C331.76206172 8.25122508 331.76206172 8.25122508 331.76605237 10.04442692 C331.76270628 12.00007242 331.76270628 12.00007242 331.7592926 13.99522591 C331.76044346 15.38130961 331.76203075 16.76739301 331.76401985 18.15347576 C331.76821798 21.9802228 331.76612031 25.8069451 331.76303363 29.63369226 C331.7607817 33.75370678 331.7642581 37.87371689 331.76701355 41.99373055 C331.77147248 50.07190452 331.77049424 58.15006924 331.76760091 66.22824359 C331.76534735 72.79047456 331.76503414 79.35270292 331.76612473 85.91493416 C331.76627796 86.84703132 331.76643119 87.77912849 331.76658907 88.73947102 C331.76690878 90.63269576 331.76723299 92.52592049 331.76756166 94.41914523 C331.77041681 112.19393799 331.76712888 129.9687256 331.76176129 147.74351752 C331.75729322 163.01256287 331.75806915 178.28160062 331.76268005 193.55064583 C331.7680252 211.25954851 331.77014212 228.96844667 331.76706779 246.67735004 C331.76674922 248.56381607 331.76643485 250.4502821 331.76612473 252.33674812 C331.76597045 253.26505347 331.76581617 254.19335882 331.76565722 255.14979464 C331.76479189 261.70814628 331.7662553 268.26649507 331.76860428 274.82484627 C331.77140182 282.81153544 331.770665 290.79821477 331.76532353 298.78490281 C331.76268589 302.86392588 331.76168251 306.94293252 331.76497269 311.02195549 C331.76793437 314.7499648 331.766345 318.47794232 331.76099513 322.20594871 C331.75933418 324.20638428 331.76262965 326.20682203 331.76605237 328.20725536 C331.76344462 329.37905063 331.76083687 330.55084589 331.7581501 331.7581501 C331.75798775 332.77791656 331.7578254 333.79768301 331.75765812 334.84835148 C331.63230896 337.12584114 331.63230896 337.12584114 330.63230896 338.12584114 C328.84529156 338.22419554 327.05433988 338.25139735 325.26461792 338.25168228 C323.50692502 338.2555939 323.50692502 338.2555939 321.71372318 338.25958455 C320.40995952 338.25735382 319.10619585 338.2551231 317.76292419 338.25282478 C316.37684049 338.25397565 314.99075709 338.25556293 313.60467434 338.25755203 C309.7779273 338.26175016 305.951205 338.25965249 302.12445784 338.25656581 C298.00444332 338.25431388 293.88443321 338.25779028 289.76441956 338.26054573 C281.68624558 338.26500466 273.60808086 338.26402642 265.52990651 338.26113309 C258.96767554 338.25887953 252.40544718 338.25856633 245.84321594 338.25965691 C244.4450702 338.25988676 244.4450702 338.25988676 243.01867908 338.26012125 C241.12545435 338.26044096 239.23222961 338.26076517 237.33900487 338.26109384 C219.56421211 338.26394899 201.7894245 338.26066106 184.01463258 338.25529347 C168.74558723 338.2508254 153.47654948 338.25160133 138.20750427 338.25621223 C120.49860159 338.26155738 102.78970343 338.2636743 85.08080006 338.26059997 C83.19433403 338.2602814 81.307868 338.25996703 79.42140198 338.25965691 C78.49309663 338.25950263 77.56479128 338.25934836 76.60835546 338.2591894 C70.05000382 338.25832407 63.49165503 338.25978748 56.93330383 338.26213646 C48.94661466 338.264934 40.95993533 338.26419718 32.97324729 338.25885572 C28.89422422 338.25621807 24.81521758 338.25521469 20.73619461 338.25850487 C17.0081853 338.26146655 13.28020778 338.25987719 9.55220139 338.25452732 C7.55176582 338.25286636 5.55132807 338.25616183 3.55089474 338.25958455 C2.37909947 338.2569768 1.20730421 338.25436905 0 338.25168228 C-1.01976645 338.25151993 -2.03953291 338.25135758 -3.09020138 338.2511903 C-5.36769104 338.12584114 -5.36769104 338.12584114 -6.36769104 337.12584114 C-6.46604544 335.33882374 -6.49324725 333.54787206 -6.49353218 331.7581501 C-6.49613993 330.58635484 -6.49874768 329.41455957 -6.50143445 328.20725536 C-6.49920372 326.9034917 -6.496973 325.59972803 -6.49467468 324.25645638 C-6.49582554 322.87037267 -6.49741283 321.48428927 -6.49940193 320.09820652 C-6.50360006 316.27145948 -6.50150239 312.44473718 -6.49841571 308.61799002 C-6.49616378 304.4979755 -6.49964018 300.37796539 -6.50239563 296.25795174 C-6.50685456 288.17977776 -6.50587632 280.10161304 -6.50298299 272.02343869 C-6.50072943 265.46120773 -6.50041622 258.89897937 -6.50150681 252.33674812 C-6.50166004 251.40465096 -6.50181327 250.4725538 -6.50197115 249.51221126 C-6.50229086 247.61898653 -6.50261507 245.72576179 -6.50294374 243.83253706 C-6.50579889 226.05774429 -6.50251096 208.28295668 -6.49714337 190.50816476 C-6.4926753 175.23911941 -6.49345123 159.97008167 -6.49806213 144.70103645 C-6.50340728 126.99213377 -6.5055242 109.28323561 -6.50244987 91.57433224 C-6.5021313 89.68786621 -6.50181693 87.80140019 -6.50150681 85.91493416 C-6.50135253 84.98662881 -6.50119825 84.05832346 -6.5010393 83.10188764 C-6.50017397 76.543536 -6.50163738 69.98518721 -6.50398636 63.42683601 C-6.5067839 55.44014684 -6.50604708 47.45346751 -6.50070561 39.46677947 C-6.49806797 35.3877564 -6.49706459 31.30874976 -6.50035477 27.22972679 C-6.50331645 23.50171748 -6.50172708 19.77373996 -6.49637721 16.04573357 C-6.49471626 14.045298 -6.49801173 12.04486025 -6.50143445 10.04442692 C-6.4988267 8.87263165 -6.49621895 7.70083639 -6.49353218 6.49353218 C-6.49336983 5.47376573 -6.49320748 4.45399927 -6.4930402 3.4033308 C-6.25332571 -0.95208139 -3.79572174 0.0006043 0 0 Z " fill="#D8BA44" transform="translate(477.36769104003906,470.87415885925293)"/>
<path d="M0 0 C111.54 0 223.08 0 338 0 C338 111.21 338 222.42 338 337 C226.46 337 114.92 337 0 337 C0 225.79 0 114.58 0 0 Z " fill="#7AB576" transform="translate(471,876)"/>
<path d="M0 0 C111.21 0 222.42 0 337 0 C337 111.54 337 223.08 337 338 C225.79 338 114.58 338 0 338 C0 226.46 0 114.92 0 0 Z " fill="#7AB576" transform="translate(876,471)"/>
<path d="M0 0 C111.21 0 222.42 0 337 0 C337 111.21 337 222.42 337 337 C267.1740625 337.12375 267.1740625 337.12375 195.9375 337.25 C181.24726318 337.28641602 166.55702637 337.32283203 151.42163086 337.36035156 C133.46203613 337.37841797 133.46203613 337.37841797 125.05030823 337.3817749 C119.18423515 337.38549655 113.31831543 337.40013301 107.45228577 337.42230225 C100.67787996 337.44786637 93.90362062 337.45931992 87.12916628 337.4537798 C83.66790859 337.45138274 80.20697772 337.45503073 76.74578083 337.47686052 C54.15045621 337.59857376 36.52548553 335.79048701 18.64453125 320.62109375 C4.42603039 306.52860619 -0.19345578 289.15182594 -0.36076355 269.61062622 C-0.37793513 265.25566451 -0.36893482 260.9012647 -0.34821819 256.5463306 C-0.33499543 253.04702233 -0.33951002 249.54772542 -0.34167194 246.04839897 C-0.34325856 239.27421747 -0.32948864 232.50015654 -0.31016796 225.7260059 C-0.28846652 217.8803954 -0.28617819 210.03485607 -0.28381348 202.18920898 C-0.26809799 181.50112038 -0.22621431 160.81305835 -0.1875 140.125 C-0.125625 93.88375 -0.06375 47.6425 0 0 Z " fill="#7AB576" transform="translate(67,876)"/>
<path d="M0 0 C111.21 0 222.42 0 337 0 C337.0825 46.365 337.165 92.73 337.25 140.5 C337.28641602 155.12892578 337.32283203 169.75785156 337.36035156 184.83007812 C337.37841797 202.72167969 337.37841797 202.72167969 337.3817749 211.10290527 C337.38549491 216.94476809 337.40012435 222.78647672 337.42230225 228.6282959 C337.4478814 235.37608675 337.45931646 242.12373046 337.4537798 248.87157008 C337.45138459 252.31861631 337.45500714 255.76533432 337.47686052 259.21231937 C337.60020155 281.99674497 335.92921466 300.31098896 320.62109375 318.35546875 C308.09332493 330.99525935 291.62030165 337.28274286 273.91401386 337.38724232 C272.85105186 337.37850432 271.78808985 337.36976633 270.69291687 337.36076355 C269.52894882 337.3633316 268.36498077 337.36589966 267.16574097 337.36854553 C263.96965578 337.37261011 260.77394559 337.3633431 257.57790457 337.34821819 C254.0654238 337.33500996 250.55295466 337.33950909 247.04045582 337.34167194 C240.23857862 337.34325955 233.43682134 337.32947988 226.63497486 337.31016796 C218.75846944 337.28847896 210.88203498 337.28617886 203.00549316 337.28381348 C182.23280992 337.26809365 161.46015313 337.22621 140.6875 337.1875 C94.260625 337.125625 47.83375 337.06375 0 337 C0 225.79 0 114.58 0 0 Z " fill="#7AB576" transform="translate(876,876)"/>
</svg>
